ISO-10303-21;
HEADER;
FILE_DESCRIPTION(('KiCad electronic assembly'),'2;1');
FILE_NAME('env-sensor-b.step','2026-08-25T17:32:44',('Pcbnew'),('Kicad')
  ,'Open CASCADE STEP processor 7.9','KiCad to STEP converter','Unknown'
  );
FILE_SCHEMA(('AUTOMOTIVE_DESIGN { 1 0 10303 214 1 1 1 1 }'));
ENDSEC;
DATA;
#1 = APPLICATION_PROTOCOL_DEFINITION('international standard',
  'automotive_design',2000,#2);
#2 = APPLICATION_CONTEXT(
  'core data for automotive mechanical design processes');
#3 = SHAPE_DEFINITION_REPRESENTATION(#4,#10);
#4 = PRODUCT_DEFINITION_SHAPE('','',#5);
#5 = PRODUCT_DEFINITION('design','',#6,#9);
#6 = PRODUCT_DEFINITION_FORMATION('','',#7);
#7 = PRODUCT('env-sensor-b 1','env-sensor-b 1','',(#8));
#8 = PRODUCT_CONTEXT('',#2,'mechanical');
#9 = PRODUCT_DEFINITION_CONTEXT('part definition',#2,'design');
#10 = SHAPE_REPRESENTATION('',(#11,#15),#19);
#11 = AXIS2_PLACEMENT_3D('',#12,#13,#14);
#12 = CARTESIAN_POINT('',(0.,0.,0.));
#13 = DIRECTION('',(0.,0.,1.));
#14 = DIRECTION('',(1.,0.,-0.));
#15 = AXIS2_PLACEMENT_3D('',#16,#17,#18);
#16 = CARTESIAN_POINT('',(0.,0.,0.));
#17 = DIRECTION('',(0.,0.,1.));
#18 = DIRECTION('',(1.,0.,-0.));
#19 = ( GEOMETRIC_REPRESENTATION_CONTEXT(3) 
GLOBAL_UNCERTAINTY_ASSIGNED_CONTEXT((#23)) GLOBAL_UNIT_ASSIGNED_CONTEXT(
(#20,#21,#22)) REPRESENTATION_CONTEXT('Context #1',
  '3D Context with UNIT and UNCERTAINTY') );
#20 = ( LENGTH_UNIT() NAMED_UNIT(*) SI_UNIT(.MILLI.,.METRE.) );
#21 = ( NAMED_UNIT(*) PLANE_ANGLE_UNIT() SI_UNIT($,.RADIAN.) );
#22 = ( NAMED_UNIT(*) SI_UNIT($,.STERADIAN.) SOLID_ANGLE_UNIT() );
#23 = UNCERTAINTY_MEASURE_WITH_UNIT(LENGTH_MEASURE(1.E-07),#20,
  'distance_accuracy_value','confusion accuracy');
#24 = PRODUCT_RELATED_PRODUCT_CATEGORY('part',$,(#7));
#25 = SHAPE_DEFINITION_REPRESENTATION(#26,#32);
#26 = PRODUCT_DEFINITION_SHAPE('','',#27);
#27 = PRODUCT_DEFINITION('design','',#28,#31);
#28 = PRODUCT_DEFINITION_FORMATION('','',#29);
#29 = PRODUCT('env-sensor-b_PCB','env-sensor-b_PCB','',(#30));
#30 = PRODUCT_CONTEXT('',#2,'mechanical');
#31 = PRODUCT_DEFINITION_CONTEXT('part definition',#2,'design');
#32 = ADVANCED_BREP_SHAPE_REPRESENTATION('',(#11,#33),#1085);
#33 = MANIFOLD_SOLID_BREP('',#34);
#34 = CLOSED_SHELL('',(#35,#75,#106,#137,#384,#631,#648,#665,#682,#699,
    #716,#733,#750,#767,#779,#801,#818,#835,#847,#864,#886,#903,#920,
    #932,#949,#971,#988,#1005,#1017,#1039,#1056,#1073));
#35 = ADVANCED_FACE('',(#36),#70,.T.);
#36 = FACE_BOUND('',#37,.T.);
#37 = EDGE_LOOP('',(#38,#48,#56,#64));
#38 = ORIENTED_EDGE('',*,*,#39,.T.);
#39 = EDGE_CURVE('',#40,#42,#44,.T.);
#40 = VERTEX_POINT('',#41);
#41 = CARTESIAN_POINT('',(128.,-94.,0.));
#42 = VERTEX_POINT('',#43);
#43 = CARTESIAN_POINT('',(128.,-94.,1.535));
#44 = LINE('',#45,#46);
#45 = CARTESIAN_POINT('',(128.,-94.,0.));
#46 = VECTOR('',#47,1.);
#47 = DIRECTION('',(0.,0.,1.));
#48 = ORIENTED_EDGE('',*,*,#49,.T.);
#49 = EDGE_CURVE('',#42,#50,#52,.T.);
#50 = VERTEX_POINT('',#51);
#51 = CARTESIAN_POINT('',(115.75,-94.,1.535));
#52 = LINE('',#53,#54);
#53 = CARTESIAN_POINT('',(128.,-94.,1.535));
#54 = VECTOR('',#55,1.);
#55 = DIRECTION('',(-1.,0.,0.));
#56 = ORIENTED_EDGE('',*,*,#57,.F.);
#57 = EDGE_CURVE('',#58,#50,#60,.T.);
#58 = VERTEX_POINT('',#59);
#59 = CARTESIAN_POINT('',(115.75,-94.,0.));
#60 = LINE('',#61,#62);
#61 = CARTESIAN_POINT('',(115.75,-94.,0.));
#62 = VECTOR('',#63,1.);
#63 = DIRECTION('',(0.,0.,1.));
#64 = ORIENTED_EDGE('',*,*,#65,.F.);
#65 = EDGE_CURVE('',#40,#58,#66,.T.);
#66 = LINE('',#67,#68);
#67 = CARTESIAN_POINT('',(128.,-94.,0.));
#68 = VECTOR('',#69,1.);
#69 = DIRECTION('',(-1.,0.,0.));
#70 = PLANE('',#71);
#71 = AXIS2_PLACEMENT_3D('',#72,#73,#74);
#72 = CARTESIAN_POINT('',(128.,-94.,0.));
#73 = DIRECTION('',(0.,-1.,0.));
#74 = DIRECTION('',(-1.,0.,0.));
#75 = ADVANCED_FACE('',(#76),#101,.T.);
#76 = FACE_BOUND('',#77,.T.);
#77 = EDGE_LOOP('',(#78,#88,#94,#95));
#78 = ORIENTED_EDGE('',*,*,#79,.T.);
#79 = EDGE_CURVE('',#80,#82,#84,.T.);
#80 = VERTEX_POINT('',#81);
#81 = CARTESIAN_POINT('',(128.,-60.,0.));
#82 = VERTEX_POINT('',#83);
#83 = CARTESIAN_POINT('',(128.,-60.,1.535));
#84 = LINE('',#85,#86);
#85 = CARTESIAN_POINT('',(128.,-60.,0.));
#86 = VECTOR('',#87,1.);
#87 = DIRECTION('',(0.,0.,1.));
#88 = ORIENTED_EDGE('',*,*,#89,.T.);
#89 = EDGE_CURVE('',#82,#42,#90,.T.);
#90 = LINE('',#91,#92);
#91 = CARTESIAN_POINT('',(128.,-60.,1.535));
#92 = VECTOR('',#93,1.);
#93 = DIRECTION('',(0.,-1.,0.));
#94 = ORIENTED_EDGE('',*,*,#39,.F.);
#95 = ORIENTED_EDGE('',*,*,#96,.F.);
#96 = EDGE_CURVE('',#80,#40,#97,.T.);
#97 = LINE('',#98,#99);
#98 = CARTESIAN_POINT('',(128.,-60.,0.));
#99 = VECTOR('',#100,1.);
#100 = DIRECTION('',(0.,-1.,0.));
#101 = PLANE('',#102);
#102 = AXIS2_PLACEMENT_3D('',#103,#104,#105);
#103 = CARTESIAN_POINT('',(128.,-60.,0.));
#104 = DIRECTION('',(1.,0.,-0.));
#105 = DIRECTION('',(0.,-1.,0.));
#106 = ADVANCED_FACE('',(#107),#132,.T.);
#107 = FACE_BOUND('',#108,.T.);
#108 = EDGE_LOOP('',(#109,#110,#118,#126));
#109 = ORIENTED_EDGE('',*,*,#57,.T.);
#110 = ORIENTED_EDGE('',*,*,#111,.T.);
#111 = EDGE_CURVE('',#50,#112,#114,.T.);
#112 = VERTEX_POINT('',#113);
#113 = CARTESIAN_POINT('',(115.75,-102.,1.535));
#114 = LINE('',#115,#116);
#115 = CARTESIAN_POINT('',(115.75,-94.,1.535));
#116 = VECTOR('',#117,1.);
#117 = DIRECTION('',(0.,-1.,0.));
#118 = ORIENTED_EDGE('',*,*,#119,.F.);
#119 = EDGE_CURVE('',#120,#112,#122,.T.);
#120 = VERTEX_POINT('',#121);
#121 = CARTESIAN_POINT('',(115.75,-102.,0.));
#122 = LINE('',#123,#124);
#123 = CARTESIAN_POINT('',(115.75,-102.,0.));
#124 = VECTOR('',#125,1.);
#125 = DIRECTION('',(0.,0.,1.));
#126 = ORIENTED_EDGE('',*,*,#127,.F.);
#127 = EDGE_CURVE('',#58,#120,#128,.T.);
#128 = LINE('',#129,#130);
#129 = CARTESIAN_POINT('',(115.75,-94.,0.));
#130 = VECTOR('',#131,1.);
#131 = DIRECTION('',(0.,-1.,0.));
#132 = PLANE('',#133);
#133 = AXIS2_PLACEMENT_3D('',#134,#135,#136);
#134 = CARTESIAN_POINT('',(115.75,-94.,0.));
#135 = DIRECTION('',(1.,0.,-0.));
#136 = DIRECTION('',(0.,-1.,0.));
#137 = ADVANCED_FACE('',(#138,#213,#249,#260,#296,#307,#343),#379,.F.);
#138 = FACE_BOUND('',#139,.F.);
#139 = EDGE_LOOP('',(#140,#141,#142,#150,#158,#166,#174,#182,#190,#198,
    #206,#212));
#140 = ORIENTED_EDGE('',*,*,#65,.F.);
#141 = ORIENTED_EDGE('',*,*,#96,.F.);
#142 = ORIENTED_EDGE('',*,*,#143,.F.);
#143 = EDGE_CURVE('',#144,#80,#146,.T.);
#144 = VERTEX_POINT('',#145);
#145 = CARTESIAN_POINT('',(100.,-60.,0.));
#146 = LINE('',#147,#148);
#147 = CARTESIAN_POINT('',(100.,-60.,0.));
#148 = VECTOR('',#149,1.);
#149 = DIRECTION('',(1.,0.,0.));
#150 = ORIENTED_EDGE('',*,*,#151,.F.);
#151 = EDGE_CURVE('',#152,#144,#154,.T.);
#152 = VERTEX_POINT('',#153);
#153 = CARTESIAN_POINT('',(100.,-94.,0.));
#154 = LINE('',#155,#156);
#155 = CARTESIAN_POINT('',(100.,-94.,0.));
#156 = VECTOR('',#157,1.);
#157 = DIRECTION('',(0.,1.,0.));
#158 = ORIENTED_EDGE('',*,*,#159,.F.);
#159 = EDGE_CURVE('',#160,#152,#162,.T.);
#160 = VERTEX_POINT('',#161);
#161 = CARTESIAN_POINT('',(112.25,-94.,0.));
#162 = LINE('',#163,#164);
#163 = CARTESIAN_POINT('',(112.25,-94.,0.));
#164 = VECTOR('',#165,1.);
#165 = DIRECTION('',(-1.,0.,0.));
#166 = ORIENTED_EDGE('',*,*,#167,.F.);
#167 = EDGE_CURVE('',#168,#160,#170,.T.);
#168 = VERTEX_POINT('',#169);
#169 = CARTESIAN_POINT('',(112.25,-102.,0.));
#170 = LINE('',#171,#172);
#171 = CARTESIAN_POINT('',(112.25,-102.,0.));
#172 = VECTOR('',#173,1.);
#173 = DIRECTION('',(0.,1.,0.));
#174 = ORIENTED_EDGE('',*,*,#175,.F.);
#175 = EDGE_CURVE('',#176,#168,#178,.T.);
#176 = VERTEX_POINT('',#177);
#177 = CARTESIAN_POINT('',(105.,-102.,0.));
#178 = LINE('',#179,#180);
#179 = CARTESIAN_POINT('',(105.,-102.,0.));
#180 = VECTOR('',#181,1.);
#181 = DIRECTION('',(1.,0.,0.));
#182 = ORIENTED_EDGE('',*,*,#183,.F.);
#183 = EDGE_CURVE('',#184,#176,#186,.T.);
#184 = VERTEX_POINT('',#185);
#185 = CARTESIAN_POINT('',(105.,-111.,0.));
#186 = LINE('',#187,#188);
#187 = CARTESIAN_POINT('',(105.,-111.,0.));
#188 = VECTOR('',#189,1.);
#189 = DIRECTION('',(0.,1.,0.));
#190 = ORIENTED_EDGE('',*,*,#191,.F.);
#191 = EDGE_CURVE('',#192,#184,#194,.T.);
#192 = VERTEX_POINT('',#193);
#193 = CARTESIAN_POINT('',(123.,-111.,0.));
#194 = LINE('',#195,#196);
#195 = CARTESIAN_POINT('',(123.,-111.,0.));
#196 = VECTOR('',#197,1.);
#197 = DIRECTION('',(-1.,0.,0.));
#198 = ORIENTED_EDGE('',*,*,#199,.F.);
#199 = EDGE_CURVE('',#200,#192,#202,.T.);
#200 = VERTEX_POINT('',#201);
#201 = CARTESIAN_POINT('',(123.,-102.,0.));
#202 = LINE('',#203,#204);
#203 = CARTESIAN_POINT('',(123.,-102.,0.));
#204 = VECTOR('',#205,1.);
#205 = DIRECTION('',(0.,-1.,0.));
#206 = ORIENTED_EDGE('',*,*,#207,.F.);
#207 = EDGE_CURVE('',#120,#200,#208,.T.);
#208 = LINE('',#209,#210);
#209 = CARTESIAN_POINT('',(115.75,-102.,0.));
#210 = VECTOR('',#211,1.);
#211 = DIRECTION('',(1.,0.,0.));
#212 = ORIENTED_EDGE('',*,*,#127,.F.);
#213 = FACE_BOUND('',#214,.F.);
#214 = EDGE_LOOP('',(#215,#226,#234,#243));
#215 = ORIENTED_EDGE('',*,*,#216,.T.);
#216 = EDGE_CURVE('',#217,#219,#221,.T.);
#217 = VERTEX_POINT('',#218);
#218 = CARTESIAN_POINT('',(102.92,-88.52,0.));
#219 = VERTEX_POINT('',#220);
#220 = CARTESIAN_POINT('',(102.92,-89.12,0.));
#221 = CIRCLE('',#222,0.3);
#222 = AXIS2_PLACEMENT_3D('',#223,#224,#225);
#223 = CARTESIAN_POINT('',(102.92,-88.82,0.));
#224 = DIRECTION('',(-0.,0.,-1.));
#225 = DIRECTION('',(4.736951571734E-14,-1.,-0.));
#226 = ORIENTED_EDGE('',*,*,#227,.T.);
#227 = EDGE_CURVE('',#219,#228,#230,.T.);
#228 = VERTEX_POINT('',#229);
#229 = CARTESIAN_POINT('',(101.82,-89.12,0.));
#230 = LINE('',#231,#232);
#231 = CARTESIAN_POINT('',(50.91,-89.12,0.));
#232 = VECTOR('',#233,1.);
#233 = DIRECTION('',(-1.,0.,0.));
#234 = ORIENTED_EDGE('',*,*,#235,.T.);
#235 = EDGE_CURVE('',#228,#236,#238,.T.);
#236 = VERTEX_POINT('',#237);
#237 = CARTESIAN_POINT('',(101.82,-88.52,0.));
#238 = CIRCLE('',#239,0.3);
#239 = AXIS2_PLACEMENT_3D('',#240,#241,#242);
#240 = CARTESIAN_POINT('',(101.82,-88.82,0.));
#241 = DIRECTION('',(-0.,0.,-1.));
#242 = DIRECTION('',(0.,1.,0.));
#243 = ORIENTED_EDGE('',*,*,#244,.T.);
#244 = EDGE_CURVE('',#236,#217,#245,.T.);
#245 = LINE('',#246,#247);
#246 = CARTESIAN_POINT('',(51.46,-88.52,0.));
#247 = VECTOR('',#248,1.);
#248 = DIRECTION('',(1.,0.,-0.));
#249 = FACE_BOUND('',#250,.F.);
#250 = EDGE_LOOP('',(#251));
#251 = ORIENTED_EDGE('',*,*,#252,.T.);
#252 = EDGE_CURVE('',#253,#253,#255,.T.);
#253 = VERTEX_POINT('',#254);
#254 = CARTESIAN_POINT('',(102.9,-87.715,0.));
#255 = CIRCLE('',#256,0.325);
#256 = AXIS2_PLACEMENT_3D('',#257,#258,#259);
#257 = CARTESIAN_POINT('',(102.9,-87.39,0.));
#258 = DIRECTION('',(-0.,0.,-1.));
#259 = DIRECTION('',(-0.,-1.,0.));
#260 = FACE_BOUND('',#261,.F.);
#261 = EDGE_LOOP('',(#262,#273,#281,#290));
#262 = ORIENTED_EDGE('',*,*,#263,.T.);
#263 = EDGE_CURVE('',#264,#266,#268,.T.);
#264 = VERTEX_POINT('',#265);
#265 = CARTESIAN_POINT('',(106.85,-88.52,0.));
#266 = VERTEX_POINT('',#267);
#267 = CARTESIAN_POINT('',(106.85,-89.12,0.));
#268 = CIRCLE('',#269,0.3);
#269 = AXIS2_PLACEMENT_3D('',#270,#271,#272);
#270 = CARTESIAN_POINT('',(106.85,-88.82,0.));
#271 = DIRECTION('',(-0.,0.,-1.));
#272 = DIRECTION('',(-0.,-1.,0.));
#273 = ORIENTED_EDGE('',*,*,#274,.T.);
#274 = EDGE_CURVE('',#266,#275,#277,.T.);
#275 = VERTEX_POINT('',#276);
#276 = CARTESIAN_POINT('',(106.25,-89.12,0.));
#277 = LINE('',#278,#279);
#278 = CARTESIAN_POINT('',(53.125,-89.12,0.));
#279 = VECTOR('',#280,1.);
#280 = DIRECTION('',(-1.,0.,0.));
#281 = ORIENTED_EDGE('',*,*,#282,.T.);
#282 = EDGE_CURVE('',#275,#283,#285,.T.);
#283 = VERTEX_POINT('',#284);
#284 = CARTESIAN_POINT('',(106.25,-88.52,0.));
#285 = CIRCLE('',#286,0.3);
#286 = AXIS2_PLACEMENT_3D('',#287,#288,#289);
#287 = CARTESIAN_POINT('',(106.25,-88.82,0.));
#288 = DIRECTION('',(-0.,0.,-1.));
#289 = DIRECTION('',(0.,1.,0.));
#290 = ORIENTED_EDGE('',*,*,#291,.T.);
#291 = EDGE_CURVE('',#283,#264,#292,.T.);
#292 = LINE('',#293,#294);
#293 = CARTESIAN_POINT('',(53.425,-88.52,0.));
#294 = VECTOR('',#295,1.);
#295 = DIRECTION('',(1.,0.,-0.));
#296 = FACE_BOUND('',#297,.F.);
#297 = EDGE_LOOP('',(#298));
#298 = ORIENTED_EDGE('',*,*,#299,.T.);
#299 = EDGE_CURVE('',#300,#300,#302,.T.);
#300 = VERTEX_POINT('',#301);
#301 = CARTESIAN_POINT('',(102.9,-81.935,0.));
#302 = CIRCLE('',#303,0.325);
#303 = AXIS2_PLACEMENT_3D('',#304,#305,#306);
#304 = CARTESIAN_POINT('',(102.9,-81.61,0.));
#305 = DIRECTION('',(-0.,0.,-1.));
#306 = DIRECTION('',(-0.,-1.,0.));
#307 = FACE_BOUND('',#308,.F.);
#308 = EDGE_LOOP('',(#309,#320,#328,#337));
#309 = ORIENTED_EDGE('',*,*,#310,.T.);
#310 = EDGE_CURVE('',#311,#313,#315,.T.);
#311 = VERTEX_POINT('',#312);
#312 = CARTESIAN_POINT('',(102.92,-79.88,0.));
#313 = VERTEX_POINT('',#314);
#314 = CARTESIAN_POINT('',(102.92,-80.48,0.));
#315 = CIRCLE('',#316,0.3);
#316 = AXIS2_PLACEMENT_3D('',#317,#318,#319);
#317 = CARTESIAN_POINT('',(102.92,-80.18,0.));
#318 = DIRECTION('',(-0.,0.,-1.));
#319 = DIRECTION('',(4.736951571734E-14,-1.,-0.));
#320 = ORIENTED_EDGE('',*,*,#321,.T.);
#321 = EDGE_CURVE('',#313,#322,#324,.T.);
#322 = VERTEX_POINT('',#323);
#323 = CARTESIAN_POINT('',(101.82,-80.48,0.));
#324 = LINE('',#325,#326);
#325 = CARTESIAN_POINT('',(50.91,-80.48,0.));
#326 = VECTOR('',#327,1.);
#327 = DIRECTION('',(-1.,0.,0.));
#328 = ORIENTED_EDGE('',*,*,#329,.T.);
#329 = EDGE_CURVE('',#322,#330,#332,.T.);
#330 = VERTEX_POINT('',#331);
#331 = CARTESIAN_POINT('',(101.82,-79.88,0.));
#332 = CIRCLE('',#333,0.3);
#333 = AXIS2_PLACEMENT_3D('',#334,#335,#336);
#334 = CARTESIAN_POINT('',(101.82,-80.18,0.));
#335 = DIRECTION('',(-0.,0.,-1.));
#336 = DIRECTION('',(0.,1.,0.));
#337 = ORIENTED_EDGE('',*,*,#338,.T.);
#338 = EDGE_CURVE('',#330,#311,#339,.T.);
#339 = LINE('',#340,#341);
#340 = CARTESIAN_POINT('',(51.46,-79.88,0.));
#341 = VECTOR('',#342,1.);
#342 = DIRECTION('',(1.,0.,-0.));
#343 = FACE_BOUND('',#344,.F.);
#344 = EDGE_LOOP('',(#345,#356,#364,#373));
#345 = ORIENTED_EDGE('',*,*,#346,.T.);
#346 = EDGE_CURVE('',#347,#349,#351,.T.);
#347 = VERTEX_POINT('',#348);
#348 = CARTESIAN_POINT('',(106.85,-79.88,0.));
#349 = VERTEX_POINT('',#350);
#350 = CARTESIAN_POINT('',(106.85,-80.48,0.));
#351 = CIRCLE('',#352,0.3);
#352 = AXIS2_PLACEMENT_3D('',#353,#354,#355);
#353 = CARTESIAN_POINT('',(106.85,-80.18,0.));
#354 = DIRECTION('',(-0.,0.,-1.));
#355 = DIRECTION('',(-0.,-1.,0.));
#356 = ORIENTED_EDGE('',*,*,#357,.T.);
#357 = EDGE_CURVE('',#349,#358,#360,.T.);
#358 = VERTEX_POINT('',#359);
#359 = CARTESIAN_POINT('',(106.25,-80.48,0.));
#360 = LINE('',#361,#362);
#361 = CARTESIAN_POINT('',(53.125,-80.48,0.));
#362 = VECTOR('',#363,1.);
#363 = DIRECTION('',(-1.,0.,0.));
#364 = ORIENTED_EDGE('',*,*,#365,.T.);
#365 = EDGE_CURVE('',#358,#366,#368,.T.);
#366 = VERTEX_POINT('',#367);
#367 = CARTESIAN_POINT('',(106.25,-79.88,0.));
#368 = CIRCLE('',#369,0.3);
#369 = AXIS2_PLACEMENT_3D('',#370,#371,#372);
#370 = CARTESIAN_POINT('',(106.25,-80.18,0.));
#371 = DIRECTION('',(-0.,0.,-1.));
#372 = DIRECTION('',(0.,1.,0.));
#373 = ORIENTED_EDGE('',*,*,#374,.T.);
#374 = EDGE_CURVE('',#366,#347,#375,.T.);
#375 = LINE('',#376,#377);
#376 = CARTESIAN_POINT('',(53.425,-79.88,0.));
#377 = VECTOR('',#378,1.);
#378 = DIRECTION('',(1.,0.,-0.));
#379 = PLANE('',#380);
#380 = AXIS2_PLACEMENT_3D('',#381,#382,#383);
#381 = CARTESIAN_POINT('',(0.,0.,0.));
#382 = DIRECTION('',(0.,0.,1.));
#383 = DIRECTION('',(1.,0.,-0.));
#384 = ADVANCED_FACE('',(#385,#460,#496,#507,#543,#554,#590),#626,.T.);
#385 = FACE_BOUND('',#386,.T.);
#386 = EDGE_LOOP('',(#387,#388,#389,#397,#405,#413,#421,#429,#437,#445,
    #453,#459));
#387 = ORIENTED_EDGE('',*,*,#49,.F.);
#388 = ORIENTED_EDGE('',*,*,#89,.F.);
#389 = ORIENTED_EDGE('',*,*,#390,.F.);
#390 = EDGE_CURVE('',#391,#82,#393,.T.);
#391 = VERTEX_POINT('',#392);
#392 = CARTESIAN_POINT('',(100.,-60.,1.535));
#393 = LINE('',#394,#395);
#394 = CARTESIAN_POINT('',(100.,-60.,1.535));
#395 = VECTOR('',#396,1.);
#396 = DIRECTION('',(1.,0.,0.));
#397 = ORIENTED_EDGE('',*,*,#398,.F.);
#398 = EDGE_CURVE('',#399,#391,#401,.T.);
#399 = VERTEX_POINT('',#400);
#400 = CARTESIAN_POINT('',(100.,-94.,1.535));
#401 = LINE('',#402,#403);
#402 = CARTESIAN_POINT('',(100.,-94.,1.535));
#403 = VECTOR('',#404,1.);
#404 = DIRECTION('',(0.,1.,0.));
#405 = ORIENTED_EDGE('',*,*,#406,.F.);
#406 = EDGE_CURVE('',#407,#399,#409,.T.);
#407 = VERTEX_POINT('',#408);
#408 = CARTESIAN_POINT('',(112.25,-94.,1.535));
#409 = LINE('',#410,#411);
#410 = CARTESIAN_POINT('',(112.25,-94.,1.535));
#411 = VECTOR('',#412,1.);
#412 = DIRECTION('',(-1.,0.,0.));
#413 = ORIENTED_EDGE('',*,*,#414,.F.);
#414 = EDGE_CURVE('',#415,#407,#417,.T.);
#415 = VERTEX_POINT('',#416);
#416 = CARTESIAN_POINT('',(112.25,-102.,1.535));
#417 = LINE('',#418,#419);
#418 = CARTESIAN_POINT('',(112.25,-102.,1.535));
#419 = VECTOR('',#420,1.);
#420 = DIRECTION('',(0.,1.,0.));
#421 = ORIENTED_EDGE('',*,*,#422,.F.);
#422 = EDGE_CURVE('',#423,#415,#425,.T.);
#423 = VERTEX_POINT('',#424);
#424 = CARTESIAN_POINT('',(105.,-102.,1.535));
#425 = LINE('',#426,#427);
#426 = CARTESIAN_POINT('',(105.,-102.,1.535));
#427 = VECTOR('',#428,1.);
#428 = DIRECTION('',(1.,0.,0.));
#429 = ORIENTED_EDGE('',*,*,#430,.F.);
#430 = EDGE_CURVE('',#431,#423,#433,.T.);
#431 = VERTEX_POINT('',#432);
#432 = CARTESIAN_POINT('',(105.,-111.,1.535));
#433 = LINE('',#434,#435);
#434 = CARTESIAN_POINT('',(105.,-111.,1.535));
#435 = VECTOR('',#436,1.);
#436 = DIRECTION('',(0.,1.,0.));
#437 = ORIENTED_EDGE('',*,*,#438,.F.);
#438 = EDGE_CURVE('',#439,#431,#441,.T.);
#439 = VERTEX_POINT('',#440);
#440 = CARTESIAN_POINT('',(123.,-111.,1.535));
#441 = LINE('',#442,#443);
#442 = CARTESIAN_POINT('',(123.,-111.,1.535));
#443 = VECTOR('',#444,1.);
#444 = DIRECTION('',(-1.,0.,0.));
#445 = ORIENTED_EDGE('',*,*,#446,.F.);
#446 = EDGE_CURVE('',#447,#439,#449,.T.);
#447 = VERTEX_POINT('',#448);
#448 = CARTESIAN_POINT('',(123.,-102.,1.535));
#449 = LINE('',#450,#451);
#450 = CARTESIAN_POINT('',(123.,-102.,1.535));
#451 = VECTOR('',#452,1.);
#452 = DIRECTION('',(0.,-1.,0.));
#453 = ORIENTED_EDGE('',*,*,#454,.F.);
#454 = EDGE_CURVE('',#112,#447,#455,.T.);
#455 = LINE('',#456,#457);
#456 = CARTESIAN_POINT('',(115.75,-102.,1.535));
#457 = VECTOR('',#458,1.);
#458 = DIRECTION('',(1.,0.,0.));
#459 = ORIENTED_EDGE('',*,*,#111,.F.);
#460 = FACE_BOUND('',#461,.T.);
#461 = EDGE_LOOP('',(#462,#473,#481,#490));
#462 = ORIENTED_EDGE('',*,*,#463,.T.);
#463 = EDGE_CURVE('',#464,#466,#468,.T.);
#464 = VERTEX_POINT('',#465);
#465 = CARTESIAN_POINT('',(102.92,-88.52,1.535));
#466 = VERTEX_POINT('',#467);
#467 = CARTESIAN_POINT('',(102.92,-89.12,1.535));
#468 = CIRCLE('',#469,0.3);
#469 = AXIS2_PLACEMENT_3D('',#470,#471,#472);
#470 = CARTESIAN_POINT('',(102.92,-88.82,1.535));
#471 = DIRECTION('',(-0.,0.,-1.));
#472 = DIRECTION('',(4.736951571734E-14,-1.,-0.));
#473 = ORIENTED_EDGE('',*,*,#474,.T.);
#474 = EDGE_CURVE('',#466,#475,#477,.T.);
#475 = VERTEX_POINT('',#476);
#476 = CARTESIAN_POINT('',(101.82,-89.12,1.535));
#477 = LINE('',#478,#479);
#478 = CARTESIAN_POINT('',(50.91,-89.12,1.535));
#479 = VECTOR('',#480,1.);
#480 = DIRECTION('',(-1.,0.,0.));
#481 = ORIENTED_EDGE('',*,*,#482,.T.);
#482 = EDGE_CURVE('',#475,#483,#485,.T.);
#483 = VERTEX_POINT('',#484);
#484 = CARTESIAN_POINT('',(101.82,-88.52,1.535));
#485 = CIRCLE('',#486,0.3);
#486 = AXIS2_PLACEMENT_3D('',#487,#488,#489);
#487 = CARTESIAN_POINT('',(101.82,-88.82,1.535));
#488 = DIRECTION('',(-0.,0.,-1.));
#489 = DIRECTION('',(0.,1.,0.));
#490 = ORIENTED_EDGE('',*,*,#491,.T.);
#491 = EDGE_CURVE('',#483,#464,#492,.T.);
#492 = LINE('',#493,#494);
#493 = CARTESIAN_POINT('',(51.46,-88.52,1.535));
#494 = VECTOR('',#495,1.);
#495 = DIRECTION('',(1.,0.,-0.));
#496 = FACE_BOUND('',#497,.T.);
#497 = EDGE_LOOP('',(#498));
#498 = ORIENTED_EDGE('',*,*,#499,.T.);
#499 = EDGE_CURVE('',#500,#500,#502,.T.);
#500 = VERTEX_POINT('',#501);
#501 = CARTESIAN_POINT('',(102.9,-87.715,1.535));
#502 = CIRCLE('',#503,0.325);
#503 = AXIS2_PLACEMENT_3D('',#504,#505,#506);
#504 = CARTESIAN_POINT('',(102.9,-87.39,1.535));
#505 = DIRECTION('',(-0.,0.,-1.));
#506 = DIRECTION('',(-0.,-1.,0.));
#507 = FACE_BOUND('',#508,.T.);
#508 = EDGE_LOOP('',(#509,#520,#528,#537));
#509 = ORIENTED_EDGE('',*,*,#510,.T.);
#510 = EDGE_CURVE('',#511,#513,#515,.T.);
#511 = VERTEX_POINT('',#512);
#512 = CARTESIAN_POINT('',(106.85,-88.52,1.535));
#513 = VERTEX_POINT('',#514);
#514 = CARTESIAN_POINT('',(106.85,-89.12,1.535));
#515 = CIRCLE('',#516,0.3);
#516 = AXIS2_PLACEMENT_3D('',#517,#518,#519);
#517 = CARTESIAN_POINT('',(106.85,-88.82,1.535));
#518 = DIRECTION('',(-0.,0.,-1.));
#519 = DIRECTION('',(-0.,-1.,0.));
#520 = ORIENTED_EDGE('',*,*,#521,.T.);
#521 = EDGE_CURVE('',#513,#522,#524,.T.);
#522 = VERTEX_POINT('',#523);
#523 = CARTESIAN_POINT('',(106.25,-89.12,1.535));
#524 = LINE('',#525,#526);
#525 = CARTESIAN_POINT('',(53.125,-89.12,1.535));
#526 = VECTOR('',#527,1.);
#527 = DIRECTION('',(-1.,0.,0.));
#528 = ORIENTED_EDGE('',*,*,#529,.T.);
#529 = EDGE_CURVE('',#522,#530,#532,.T.);
#530 = VERTEX_POINT('',#531);
#531 = CARTESIAN_POINT('',(106.25,-88.52,1.535));
#532 = CIRCLE('',#533,0.3);
#533 = AXIS2_PLACEMENT_3D('',#534,#535,#536);
#534 = CARTESIAN_POINT('',(106.25,-88.82,1.535));
#535 = DIRECTION('',(-0.,0.,-1.));
#536 = DIRECTION('',(0.,1.,0.));
#537 = ORIENTED_EDGE('',*,*,#538,.T.);
#538 = EDGE_CURVE('',#530,#511,#539,.T.);
#539 = LINE('',#540,#541);
#540 = CARTESIAN_POINT('',(53.425,-88.52,1.535));
#541 = VECTOR('',#542,1.);
#542 = DIRECTION('',(1.,0.,-0.));
#543 = FACE_BOUND('',#544,.T.);
#544 = EDGE_LOOP('',(#545));
#545 = ORIENTED_EDGE('',*,*,#546,.T.);
#546 = EDGE_CURVE('',#547,#547,#549,.T.);
#547 = VERTEX_POINT('',#548);
#548 = CARTESIAN_POINT('',(102.9,-81.935,1.535));
#549 = CIRCLE('',#550,0.325);
#550 = AXIS2_PLACEMENT_3D('',#551,#552,#553);
#551 = CARTESIAN_POINT('',(102.9,-81.61,1.535));
#552 = DIRECTION('',(-0.,0.,-1.));
#553 = DIRECTION('',(-0.,-1.,0.));
#554 = FACE_BOUND('',#555,.T.);
#555 = EDGE_LOOP('',(#556,#567,#575,#584));
#556 = ORIENTED_EDGE('',*,*,#557,.T.);
#557 = EDGE_CURVE('',#558,#560,#562,.T.);
#558 = VERTEX_POINT('',#559);
#559 = CARTESIAN_POINT('',(102.92,-79.88,1.535));
#560 = VERTEX_POINT('',#561);
#561 = CARTESIAN_POINT('',(102.92,-80.48,1.535));
#562 = CIRCLE('',#563,0.3);
#563 = AXIS2_PLACEMENT_3D('',#564,#565,#566);
#564 = CARTESIAN_POINT('',(102.92,-80.18,1.535));
#565 = DIRECTION('',(-0.,0.,-1.));
#566 = DIRECTION('',(4.736951571734E-14,-1.,-0.));
#567 = ORIENTED_EDGE('',*,*,#568,.T.);
#568 = EDGE_CURVE('',#560,#569,#571,.T.);
#569 = VERTEX_POINT('',#570);
#570 = CARTESIAN_POINT('',(101.82,-80.48,1.535));
#571 = LINE('',#572,#573);
#572 = CARTESIAN_POINT('',(50.91,-80.48,1.535));
#573 = VECTOR('',#574,1.);
#574 = DIRECTION('',(-1.,0.,0.));
#575 = ORIENTED_EDGE('',*,*,#576,.T.);
#576 = EDGE_CURVE('',#569,#577,#579,.T.);
#577 = VERTEX_POINT('',#578);
#578 = CARTESIAN_POINT('',(101.82,-79.88,1.535));
#579 = CIRCLE('',#580,0.3);
#580 = AXIS2_PLACEMENT_3D('',#581,#582,#583);
#581 = CARTESIAN_POINT('',(101.82,-80.18,1.535));
#582 = DIRECTION('',(-0.,0.,-1.));
#583 = DIRECTION('',(0.,1.,0.));
#584 = ORIENTED_EDGE('',*,*,#585,.T.);
#585 = EDGE_CURVE('',#577,#558,#586,.T.);
#586 = LINE('',#587,#588);
#587 = CARTESIAN_POINT('',(51.46,-79.88,1.535));
#588 = VECTOR('',#589,1.);
#589 = DIRECTION('',(1.,0.,-0.));
#590 = FACE_BOUND('',#591,.T.);
#591 = EDGE_LOOP('',(#592,#603,#611,#620));
#592 = ORIENTED_EDGE('',*,*,#593,.T.);
#593 = EDGE_CURVE('',#594,#596,#598,.T.);
#594 = VERTEX_POINT('',#595);
#595 = CARTESIAN_POINT('',(106.85,-79.88,1.535));
#596 = VERTEX_POINT('',#597);
#597 = CARTESIAN_POINT('',(106.85,-80.48,1.535));
#598 = CIRCLE('',#599,0.3);
#599 = AXIS2_PLACEMENT_3D('',#600,#601,#602);
#600 = CARTESIAN_POINT('',(106.85,-80.18,1.535));
#601 = DIRECTION('',(-0.,0.,-1.));
#602 = DIRECTION('',(-0.,-1.,0.));
#603 = ORIENTED_EDGE('',*,*,#604,.T.);
#604 = EDGE_CURVE('',#596,#605,#607,.T.);
#605 = VERTEX_POINT('',#606);
#606 = CARTESIAN_POINT('',(106.25,-80.48,1.535));
#607 = LINE('',#608,#609);
#608 = CARTESIAN_POINT('',(53.125,-80.48,1.535));
#609 = VECTOR('',#610,1.);
#610 = DIRECTION('',(-1.,0.,0.));
#611 = ORIENTED_EDGE('',*,*,#612,.T.);
#612 = EDGE_CURVE('',#605,#613,#615,.T.);
#613 = VERTEX_POINT('',#614);
#614 = CARTESIAN_POINT('',(106.25,-79.88,1.535));
#615 = CIRCLE('',#616,0.3);
#616 = AXIS2_PLACEMENT_3D('',#617,#618,#619);
#617 = CARTESIAN_POINT('',(106.25,-80.18,1.535));
#618 = DIRECTION('',(-0.,0.,-1.));
#619 = DIRECTION('',(0.,1.,0.));
#620 = ORIENTED_EDGE('',*,*,#621,.T.);
#621 = EDGE_CURVE('',#613,#594,#622,.T.);
#622 = LINE('',#623,#624);
#623 = CARTESIAN_POINT('',(53.425,-79.88,1.535));
#624 = VECTOR('',#625,1.);
#625 = DIRECTION('',(1.,0.,-0.));
#626 = PLANE('',#627);
#627 = AXIS2_PLACEMENT_3D('',#628,#629,#630);
#628 = CARTESIAN_POINT('',(0.,0.,1.535));
#629 = DIRECTION('',(0.,0.,1.));
#630 = DIRECTION('',(1.,0.,-0.));
#631 = ADVANCED_FACE('',(#632),#643,.T.);
#632 = FACE_BOUND('',#633,.T.);
#633 = EDGE_LOOP('',(#634,#640,#641,#642));
#634 = ORIENTED_EDGE('',*,*,#635,.T.);
#635 = EDGE_CURVE('',#144,#391,#636,.T.);
#636 = LINE('',#637,#638);
#637 = CARTESIAN_POINT('',(100.,-60.,0.));
#638 = VECTOR('',#639,1.);
#639 = DIRECTION('',(0.,0.,1.));
#640 = ORIENTED_EDGE('',*,*,#390,.T.);
#641 = ORIENTED_EDGE('',*,*,#79,.F.);
#642 = ORIENTED_EDGE('',*,*,#143,.F.);
#643 = PLANE('',#644);
#644 = AXIS2_PLACEMENT_3D('',#645,#646,#647);
#645 = CARTESIAN_POINT('',(100.,-60.,0.));
#646 = DIRECTION('',(0.,1.,0.));
#647 = DIRECTION('',(1.,0.,0.));
#648 = ADVANCED_FACE('',(#649),#660,.T.);
#649 = FACE_BOUND('',#650,.T.);
#650 = EDGE_LOOP('',(#651,#652,#653,#659));
#651 = ORIENTED_EDGE('',*,*,#119,.T.);
#652 = ORIENTED_EDGE('',*,*,#454,.T.);
#653 = ORIENTED_EDGE('',*,*,#654,.F.);
#654 = EDGE_CURVE('',#200,#447,#655,.T.);
#655 = LINE('',#656,#657);
#656 = CARTESIAN_POINT('',(123.,-102.,0.));
#657 = VECTOR('',#658,1.);
#658 = DIRECTION('',(0.,0.,1.));
#659 = ORIENTED_EDGE('',*,*,#207,.F.);
#660 = PLANE('',#661);
#661 = AXIS2_PLACEMENT_3D('',#662,#663,#664);
#662 = CARTESIAN_POINT('',(115.75,-102.,0.));
#663 = DIRECTION('',(0.,1.,0.));
#664 = DIRECTION('',(1.,0.,0.));
#665 = ADVANCED_FACE('',(#666),#677,.T.);
#666 = FACE_BOUND('',#667,.T.);
#667 = EDGE_LOOP('',(#668,#674,#675,#676));
#668 = ORIENTED_EDGE('',*,*,#669,.T.);
#669 = EDGE_CURVE('',#152,#399,#670,.T.);
#670 = LINE('',#671,#672);
#671 = CARTESIAN_POINT('',(100.,-94.,0.));
#672 = VECTOR('',#673,1.);
#673 = DIRECTION('',(0.,0.,1.));
#674 = ORIENTED_EDGE('',*,*,#398,.T.);
#675 = ORIENTED_EDGE('',*,*,#635,.F.);
#676 = ORIENTED_EDGE('',*,*,#151,.F.);
#677 = PLANE('',#678);
#678 = AXIS2_PLACEMENT_3D('',#679,#680,#681);
#679 = CARTESIAN_POINT('',(100.,-94.,0.));
#680 = DIRECTION('',(-1.,0.,0.));
#681 = DIRECTION('',(0.,1.,0.));
#682 = ADVANCED_FACE('',(#683),#694,.T.);
#683 = FACE_BOUND('',#684,.T.);
#684 = EDGE_LOOP('',(#685,#686,#687,#693));
#685 = ORIENTED_EDGE('',*,*,#654,.T.);
#686 = ORIENTED_EDGE('',*,*,#446,.T.);
#687 = ORIENTED_EDGE('',*,*,#688,.F.);
#688 = EDGE_CURVE('',#192,#439,#689,.T.);
#689 = LINE('',#690,#691);
#690 = CARTESIAN_POINT('',(123.,-111.,0.));
#691 = VECTOR('',#692,1.);
#692 = DIRECTION('',(0.,0.,1.));
#693 = ORIENTED_EDGE('',*,*,#199,.F.);
#694 = PLANE('',#695);
#695 = AXIS2_PLACEMENT_3D('',#696,#697,#698);
#696 = CARTESIAN_POINT('',(123.,-102.,0.));
#697 = DIRECTION('',(1.,0.,-0.));
#698 = DIRECTION('',(0.,-1.,0.));
#699 = ADVANCED_FACE('',(#700),#711,.T.);
#700 = FACE_BOUND('',#701,.T.);
#701 = EDGE_LOOP('',(#702,#708,#709,#710));
#702 = ORIENTED_EDGE('',*,*,#703,.T.);
#703 = EDGE_CURVE('',#160,#407,#704,.T.);
#704 = LINE('',#705,#706);
#705 = CARTESIAN_POINT('',(112.25,-94.,0.));
#706 = VECTOR('',#707,1.);
#707 = DIRECTION('',(0.,0.,1.));
#708 = ORIENTED_EDGE('',*,*,#406,.T.);
#709 = ORIENTED_EDGE('',*,*,#669,.F.);
#710 = ORIENTED_EDGE('',*,*,#159,.F.);
#711 = PLANE('',#712);
#712 = AXIS2_PLACEMENT_3D('',#713,#714,#715);
#713 = CARTESIAN_POINT('',(112.25,-94.,0.));
#714 = DIRECTION('',(0.,-1.,0.));
#715 = DIRECTION('',(-1.,0.,0.));
#716 = ADVANCED_FACE('',(#717),#728,.T.);
#717 = FACE_BOUND('',#718,.T.);
#718 = EDGE_LOOP('',(#719,#720,#721,#727));
#719 = ORIENTED_EDGE('',*,*,#688,.T.);
#720 = ORIENTED_EDGE('',*,*,#438,.T.);
#721 = ORIENTED_EDGE('',*,*,#722,.F.);
#722 = EDGE_CURVE('',#184,#431,#723,.T.);
#723 = LINE('',#724,#725);
#724 = CARTESIAN_POINT('',(105.,-111.,0.));
#725 = VECTOR('',#726,1.);
#726 = DIRECTION('',(0.,0.,1.));
#727 = ORIENTED_EDGE('',*,*,#191,.F.);
#728 = PLANE('',#729);
#729 = AXIS2_PLACEMENT_3D('',#730,#731,#732);
#730 = CARTESIAN_POINT('',(123.,-111.,0.));
#731 = DIRECTION('',(0.,-1.,0.));
#732 = DIRECTION('',(-1.,0.,0.));
#733 = ADVANCED_FACE('',(#734),#745,.T.);
#734 = FACE_BOUND('',#735,.T.);
#735 = EDGE_LOOP('',(#736,#742,#743,#744));
#736 = ORIENTED_EDGE('',*,*,#737,.T.);
#737 = EDGE_CURVE('',#168,#415,#738,.T.);
#738 = LINE('',#739,#740);
#739 = CARTESIAN_POINT('',(112.25,-102.,0.));
#740 = VECTOR('',#741,1.);
#741 = DIRECTION('',(0.,0.,1.));
#742 = ORIENTED_EDGE('',*,*,#414,.T.);
#743 = ORIENTED_EDGE('',*,*,#703,.F.);
#744 = ORIENTED_EDGE('',*,*,#167,.F.);
#745 = PLANE('',#746);
#746 = AXIS2_PLACEMENT_3D('',#747,#748,#749);
#747 = CARTESIAN_POINT('',(112.25,-102.,0.));
#748 = DIRECTION('',(-1.,0.,0.));
#749 = DIRECTION('',(0.,1.,0.));
#750 = ADVANCED_FACE('',(#751),#762,.T.);
#751 = FACE_BOUND('',#752,.T.);
#752 = EDGE_LOOP('',(#753,#754,#755,#761));
#753 = ORIENTED_EDGE('',*,*,#722,.T.);
#754 = ORIENTED_EDGE('',*,*,#430,.T.);
#755 = ORIENTED_EDGE('',*,*,#756,.F.);
#756 = EDGE_CURVE('',#176,#423,#757,.T.);
#757 = LINE('',#758,#759);
#758 = CARTESIAN_POINT('',(105.,-102.,0.));
#759 = VECTOR('',#760,1.);
#760 = DIRECTION('',(0.,0.,1.));
#761 = ORIENTED_EDGE('',*,*,#183,.F.);
#762 = PLANE('',#763);
#763 = AXIS2_PLACEMENT_3D('',#764,#765,#766);
#764 = CARTESIAN_POINT('',(105.,-111.,0.));
#765 = DIRECTION('',(-1.,0.,0.));
#766 = DIRECTION('',(0.,1.,0.));
#767 = ADVANCED_FACE('',(#768),#774,.T.);
#768 = FACE_BOUND('',#769,.T.);
#769 = EDGE_LOOP('',(#770,#771,#772,#773));
#770 = ORIENTED_EDGE('',*,*,#756,.T.);
#771 = ORIENTED_EDGE('',*,*,#422,.T.);
#772 = ORIENTED_EDGE('',*,*,#737,.F.);
#773 = ORIENTED_EDGE('',*,*,#175,.F.);
#774 = PLANE('',#775);
#775 = AXIS2_PLACEMENT_3D('',#776,#777,#778);
#776 = CARTESIAN_POINT('',(105.,-102.,0.));
#777 = DIRECTION('',(0.,1.,0.));
#778 = DIRECTION('',(1.,0.,0.));
#779 = ADVANCED_FACE('',(#780),#796,.F.);
#780 = FACE_BOUND('',#781,.T.);
#781 = EDGE_LOOP('',(#782,#783,#789,#790));
#782 = ORIENTED_EDGE('',*,*,#216,.T.);
#783 = ORIENTED_EDGE('',*,*,#784,.T.);
#784 = EDGE_CURVE('',#219,#466,#785,.T.);
#785 = LINE('',#786,#787);
#786 = CARTESIAN_POINT('',(102.92,-89.12,-4.6E-02));
#787 = VECTOR('',#788,1.);
#788 = DIRECTION('',(0.,0.,1.));
#789 = ORIENTED_EDGE('',*,*,#463,.F.);
#790 = ORIENTED_EDGE('',*,*,#791,.F.);
#791 = EDGE_CURVE('',#217,#464,#792,.T.);
#792 = LINE('',#793,#794);
#793 = CARTESIAN_POINT('',(102.92,-88.52,-4.6E-02));
#794 = VECTOR('',#795,1.);
#795 = DIRECTION('',(0.,0.,1.));
#796 = CYLINDRICAL_SURFACE('',#797,0.3);
#797 = AXIS2_PLACEMENT_3D('',#798,#799,#800);
#798 = CARTESIAN_POINT('',(102.92,-88.82,-4.6E-02));
#799 = DIRECTION('',(-0.,0.,-1.));
#800 = DIRECTION('',(4.736951571734E-14,-1.,-0.));
#801 = ADVANCED_FACE('',(#802),#813,.T.);
#802 = FACE_BOUND('',#803,.T.);
#803 = EDGE_LOOP('',(#804,#805,#806,#807));
#804 = ORIENTED_EDGE('',*,*,#244,.T.);
#805 = ORIENTED_EDGE('',*,*,#791,.T.);
#806 = ORIENTED_EDGE('',*,*,#491,.F.);
#807 = ORIENTED_EDGE('',*,*,#808,.F.);
#808 = EDGE_CURVE('',#236,#483,#809,.T.);
#809 = LINE('',#810,#811);
#810 = CARTESIAN_POINT('',(101.82,-88.52,-4.6E-02));
#811 = VECTOR('',#812,1.);
#812 = DIRECTION('',(0.,0.,1.));
#813 = PLANE('',#814);
#814 = AXIS2_PLACEMENT_3D('',#815,#816,#817);
#815 = CARTESIAN_POINT('',(102.92,-88.52,-4.6E-02));
#816 = DIRECTION('',(0.,-1.,0.));
#817 = DIRECTION('',(-1.,0.,0.));
#818 = ADVANCED_FACE('',(#819),#830,.F.);
#819 = FACE_BOUND('',#820,.T.);
#820 = EDGE_LOOP('',(#821,#822,#823,#824));
#821 = ORIENTED_EDGE('',*,*,#235,.T.);
#822 = ORIENTED_EDGE('',*,*,#808,.T.);
#823 = ORIENTED_EDGE('',*,*,#482,.F.);
#824 = ORIENTED_EDGE('',*,*,#825,.F.);
#825 = EDGE_CURVE('',#228,#475,#826,.T.);
#826 = LINE('',#827,#828);
#827 = CARTESIAN_POINT('',(101.82,-89.12,-4.6E-02));
#828 = VECTOR('',#829,1.);
#829 = DIRECTION('',(0.,0.,1.));
#830 = CYLINDRICAL_SURFACE('',#831,0.3);
#831 = AXIS2_PLACEMENT_3D('',#832,#833,#834);
#832 = CARTESIAN_POINT('',(101.82,-88.82,-4.6E-02));
#833 = DIRECTION('',(-0.,0.,-1.));
#834 = DIRECTION('',(0.,1.,0.));
#835 = ADVANCED_FACE('',(#836),#842,.T.);
#836 = FACE_BOUND('',#837,.T.);
#837 = EDGE_LOOP('',(#838,#839,#840,#841));
#838 = ORIENTED_EDGE('',*,*,#227,.T.);
#839 = ORIENTED_EDGE('',*,*,#825,.T.);
#840 = ORIENTED_EDGE('',*,*,#474,.F.);
#841 = ORIENTED_EDGE('',*,*,#784,.F.);
#842 = PLANE('',#843);
#843 = AXIS2_PLACEMENT_3D('',#844,#845,#846);
#844 = CARTESIAN_POINT('',(101.82,-89.12,-4.6E-02));
#845 = DIRECTION('',(0.,1.,0.));
#846 = DIRECTION('',(1.,0.,0.));
#847 = ADVANCED_FACE('',(#848),#859,.F.);
#848 = FACE_BOUND('',#849,.T.);
#849 = EDGE_LOOP('',(#850,#851,#857,#858));
#850 = ORIENTED_EDGE('',*,*,#252,.T.);
#851 = ORIENTED_EDGE('',*,*,#852,.T.);
#852 = EDGE_CURVE('',#253,#500,#853,.T.);
#853 = LINE('',#854,#855);
#854 = CARTESIAN_POINT('',(102.9,-87.715,-4.6E-02));
#855 = VECTOR('',#856,1.);
#856 = DIRECTION('',(0.,0.,1.));
#857 = ORIENTED_EDGE('',*,*,#499,.F.);
#858 = ORIENTED_EDGE('',*,*,#852,.F.);
#859 = CYLINDRICAL_SURFACE('',#860,0.325);
#860 = AXIS2_PLACEMENT_3D('',#861,#862,#863);
#861 = CARTESIAN_POINT('',(102.9,-87.39,-4.6E-02));
#862 = DIRECTION('',(-0.,-0.,-1.));
#863 = DIRECTION('',(-0.,-1.,0.));
#864 = ADVANCED_FACE('',(#865),#881,.F.);
#865 = FACE_BOUND('',#866,.T.);
#866 = EDGE_LOOP('',(#867,#868,#874,#875));
#867 = ORIENTED_EDGE('',*,*,#263,.T.);
#868 = ORIENTED_EDGE('',*,*,#869,.T.);
#869 = EDGE_CURVE('',#266,#513,#870,.T.);
#870 = LINE('',#871,#872);
#871 = CARTESIAN_POINT('',(106.85,-89.12,-4.6E-02));
#872 = VECTOR('',#873,1.);
#873 = DIRECTION('',(0.,0.,1.));
#874 = ORIENTED_EDGE('',*,*,#510,.F.);
#875 = ORIENTED_EDGE('',*,*,#876,.F.);
#876 = EDGE_CURVE('',#264,#511,#877,.T.);
#877 = LINE('',#878,#879);
#878 = CARTESIAN_POINT('',(106.85,-88.52,-4.6E-02));
#879 = VECTOR('',#880,1.);
#880 = DIRECTION('',(0.,0.,1.));
#881 = CYLINDRICAL_SURFACE('',#882,0.3);
#882 = AXIS2_PLACEMENT_3D('',#883,#884,#885);
#883 = CARTESIAN_POINT('',(106.85,-88.82,-4.6E-02));
#884 = DIRECTION('',(-0.,-0.,-1.));
#885 = DIRECTION('',(-0.,-1.,0.));
#886 = ADVANCED_FACE('',(#887),#898,.T.);
#887 = FACE_BOUND('',#888,.T.);
#888 = EDGE_LOOP('',(#889,#890,#891,#892));
#889 = ORIENTED_EDGE('',*,*,#291,.T.);
#890 = ORIENTED_EDGE('',*,*,#876,.T.);
#891 = ORIENTED_EDGE('',*,*,#538,.F.);
#892 = ORIENTED_EDGE('',*,*,#893,.F.);
#893 = EDGE_CURVE('',#283,#530,#894,.T.);
#894 = LINE('',#895,#896);
#895 = CARTESIAN_POINT('',(106.25,-88.52,-4.6E-02));
#896 = VECTOR('',#897,1.);
#897 = DIRECTION('',(0.,0.,1.));
#898 = PLANE('',#899);
#899 = AXIS2_PLACEMENT_3D('',#900,#901,#902);
#900 = CARTESIAN_POINT('',(106.85,-88.52,-4.6E-02));
#901 = DIRECTION('',(0.,-1.,0.));
#902 = DIRECTION('',(-1.,0.,0.));
#903 = ADVANCED_FACE('',(#904),#915,.F.);
#904 = FACE_BOUND('',#905,.T.);
#905 = EDGE_LOOP('',(#906,#907,#908,#909));
#906 = ORIENTED_EDGE('',*,*,#282,.T.);
#907 = ORIENTED_EDGE('',*,*,#893,.T.);
#908 = ORIENTED_EDGE('',*,*,#529,.F.);
#909 = ORIENTED_EDGE('',*,*,#910,.F.);
#910 = EDGE_CURVE('',#275,#522,#911,.T.);
#911 = LINE('',#912,#913);
#912 = CARTESIAN_POINT('',(106.25,-89.12,-4.6E-02));
#913 = VECTOR('',#914,1.);
#914 = DIRECTION('',(0.,0.,1.));
#915 = CYLINDRICAL_SURFACE('',#916,0.3);
#916 = AXIS2_PLACEMENT_3D('',#917,#918,#919);
#917 = CARTESIAN_POINT('',(106.25,-88.82,-4.6E-02));
#918 = DIRECTION('',(-0.,0.,-1.));
#919 = DIRECTION('',(0.,1.,0.));
#920 = ADVANCED_FACE('',(#921),#927,.T.);
#921 = FACE_BOUND('',#922,.T.);
#922 = EDGE_LOOP('',(#923,#924,#925,#926));
#923 = ORIENTED_EDGE('',*,*,#274,.T.);
#924 = ORIENTED_EDGE('',*,*,#910,.T.);
#925 = ORIENTED_EDGE('',*,*,#521,.F.);
#926 = ORIENTED_EDGE('',*,*,#869,.F.);
#927 = PLANE('',#928);
#928 = AXIS2_PLACEMENT_3D('',#929,#930,#931);
#929 = CARTESIAN_POINT('',(106.25,-89.12,-4.6E-02));
#930 = DIRECTION('',(0.,1.,0.));
#931 = DIRECTION('',(1.,0.,0.));
#932 = ADVANCED_FACE('',(#933),#944,.F.);
#933 = FACE_BOUND('',#934,.T.);
#934 = EDGE_LOOP('',(#935,#936,#942,#943));
#935 = ORIENTED_EDGE('',*,*,#299,.T.);
#936 = ORIENTED_EDGE('',*,*,#937,.T.);
#937 = EDGE_CURVE('',#300,#547,#938,.T.);
#938 = LINE('',#939,#940);
#939 = CARTESIAN_POINT('',(102.9,-81.935,-4.6E-02));
#940 = VECTOR('',#941,1.);
#941 = DIRECTION('',(0.,0.,1.));
#942 = ORIENTED_EDGE('',*,*,#546,.F.);
#943 = ORIENTED_EDGE('',*,*,#937,.F.);
#944 = CYLINDRICAL_SURFACE('',#945,0.325);
#945 = AXIS2_PLACEMENT_3D('',#946,#947,#948);
#946 = CARTESIAN_POINT('',(102.9,-81.61,-4.6E-02));
#947 = DIRECTION('',(-0.,-0.,-1.));
#948 = DIRECTION('',(-0.,-1.,0.));
#949 = ADVANCED_FACE('',(#950),#966,.F.);
#950 = FACE_BOUND('',#951,.T.);
#951 = EDGE_LOOP('',(#952,#953,#959,#960));
#952 = ORIENTED_EDGE('',*,*,#310,.T.);
#953 = ORIENTED_EDGE('',*,*,#954,.T.);
#954 = EDGE_CURVE('',#313,#560,#955,.T.);
#955 = LINE('',#956,#957);
#956 = CARTESIAN_POINT('',(102.92,-80.48,-4.6E-02));
#957 = VECTOR('',#958,1.);
#958 = DIRECTION('',(0.,0.,1.));
#959 = ORIENTED_EDGE('',*,*,#557,.F.);
#960 = ORIENTED_EDGE('',*,*,#961,.F.);
#961 = EDGE_CURVE('',#311,#558,#962,.T.);
#962 = LINE('',#963,#964);
#963 = CARTESIAN_POINT('',(102.92,-79.88,-4.6E-02));
#964 = VECTOR('',#965,1.);
#965 = DIRECTION('',(0.,0.,1.));
#966 = CYLINDRICAL_SURFACE('',#967,0.3);
#967 = AXIS2_PLACEMENT_3D('',#968,#969,#970);
#968 = CARTESIAN_POINT('',(102.92,-80.18,-4.6E-02));
#969 = DIRECTION('',(-0.,0.,-1.));
#970 = DIRECTION('',(4.736951571734E-14,-1.,-0.));
#971 = ADVANCED_FACE('',(#972),#983,.T.);
#972 = FACE_BOUND('',#973,.T.);
#973 = EDGE_LOOP('',(#974,#975,#976,#977));
#974 = ORIENTED_EDGE('',*,*,#338,.T.);
#975 = ORIENTED_EDGE('',*,*,#961,.T.);
#976 = ORIENTED_EDGE('',*,*,#585,.F.);
#977 = ORIENTED_EDGE('',*,*,#978,.F.);
#978 = EDGE_CURVE('',#330,#577,#979,.T.);
#979 = LINE('',#980,#981);
#980 = CARTESIAN_POINT('',(101.82,-79.88,-4.6E-02));
#981 = VECTOR('',#982,1.);
#982 = DIRECTION('',(0.,0.,1.));
#983 = PLANE('',#984);
#984 = AXIS2_PLACEMENT_3D('',#985,#986,#987);
#985 = CARTESIAN_POINT('',(102.92,-79.88,-4.6E-02));
#986 = DIRECTION('',(0.,-1.,0.));
#987 = DIRECTION('',(-1.,0.,0.));
#988 = ADVANCED_FACE('',(#989),#1000,.F.);
#989 = FACE_BOUND('',#990,.T.);
#990 = EDGE_LOOP('',(#991,#992,#993,#994));
#991 = ORIENTED_EDGE('',*,*,#329,.T.);
#992 = ORIENTED_EDGE('',*,*,#978,.T.);
#993 = ORIENTED_EDGE('',*,*,#576,.F.);
#994 = ORIENTED_EDGE('',*,*,#995,.F.);
#995 = EDGE_CURVE('',#322,#569,#996,.T.);
#996 = LINE('',#997,#998);
#997 = CARTESIAN_POINT('',(101.82,-80.48,-4.6E-02));
#998 = VECTOR('',#999,1.);
#999 = DIRECTION('',(0.,0.,1.));
#1000 = CYLINDRICAL_SURFACE('',#1001,0.3);
#1001 = AXIS2_PLACEMENT_3D('',#1002,#1003,#1004);
#1002 = CARTESIAN_POINT('',(101.82,-80.18,-4.6E-02));
#1003 = DIRECTION('',(-0.,0.,-1.));
#1004 = DIRECTION('',(0.,1.,0.));
#1005 = ADVANCED_FACE('',(#1006),#1012,.T.);
#1006 = FACE_BOUND('',#1007,.T.);
#1007 = EDGE_LOOP('',(#1008,#1009,#1010,#1011));
#1008 = ORIENTED_EDGE('',*,*,#321,.T.);
#1009 = ORIENTED_EDGE('',*,*,#995,.T.);
#1010 = ORIENTED_EDGE('',*,*,#568,.F.);
#1011 = ORIENTED_EDGE('',*,*,#954,.F.);
#1012 = PLANE('',#1013);
#1013 = AXIS2_PLACEMENT_3D('',#1014,#1015,#1016);
#1014 = CARTESIAN_POINT('',(101.82,-80.48,-4.6E-02));
#1015 = DIRECTION('',(0.,1.,0.));
#1016 = DIRECTION('',(1.,0.,0.));
#1017 = ADVANCED_FACE('',(#1018),#1034,.F.);
#1018 = FACE_BOUND('',#1019,.T.);
#1019 = EDGE_LOOP('',(#1020,#1021,#1027,#1028));
#1020 = ORIENTED_EDGE('',*,*,#346,.T.);
#1021 = ORIENTED_EDGE('',*,*,#1022,.T.);
#1022 = EDGE_CURVE('',#349,#596,#1023,.T.);
#1023 = LINE('',#1024,#1025);
#1024 = CARTESIAN_POINT('',(106.85,-80.48,-4.6E-02));
#1025 = VECTOR('',#1026,1.);
#1026 = DIRECTION('',(0.,0.,1.));
#1027 = ORIENTED_EDGE('',*,*,#593,.F.);
#1028 = ORIENTED_EDGE('',*,*,#1029,.F.);
#1029 = EDGE_CURVE('',#347,#594,#1030,.T.);
#1030 = LINE('',#1031,#1032);
#1031 = CARTESIAN_POINT('',(106.85,-79.88,-4.6E-02));
#1032 = VECTOR('',#1033,1.);
#1033 = DIRECTION('',(0.,0.,1.));
#1034 = CYLINDRICAL_SURFACE('',#1035,0.3);
#1035 = AXIS2_PLACEMENT_3D('',#1036,#1037,#1038);
#1036 = CARTESIAN_POINT('',(106.85,-80.18,-4.6E-02));
#1037 = DIRECTION('',(-0.,-0.,-1.));
#1038 = DIRECTION('',(-0.,-1.,0.));
#1039 = ADVANCED_FACE('',(#1040),#1051,.T.);
#1040 = FACE_BOUND('',#1041,.T.);
#1041 = EDGE_LOOP('',(#1042,#1043,#1044,#1045));
#1042 = ORIENTED_EDGE('',*,*,#374,.T.);
#1043 = ORIENTED_EDGE('',*,*,#1029,.T.);
#1044 = ORIENTED_EDGE('',*,*,#621,.F.);
#1045 = ORIENTED_EDGE('',*,*,#1046,.F.);
#1046 = EDGE_CURVE('',#366,#613,#1047,.T.);
#1047 = LINE('',#1048,#1049);
#1048 = CARTESIAN_POINT('',(106.25,-79.88,-4.6E-02));
#1049 = VECTOR('',#1050,1.);
#1050 = DIRECTION('',(0.,0.,1.));
#1051 = PLANE('',#1052);
#1052 = AXIS2_PLACEMENT_3D('',#1053,#1054,#1055);
#1053 = CARTESIAN_POINT('',(106.85,-79.88,-4.6E-02));
#1054 = DIRECTION('',(0.,-1.,0.));
#1055 = DIRECTION('',(-1.,0.,0.));
#1056 = ADVANCED_FACE('',(#1057),#1068,.F.);
#1057 = FACE_BOUND('',#1058,.T.);
#1058 = EDGE_LOOP('',(#1059,#1060,#1061,#1062));
#1059 = ORIENTED_EDGE('',*,*,#365,.T.);
#1060 = ORIENTED_EDGE('',*,*,#1046,.T.);
#1061 = ORIENTED_EDGE('',*,*,#612,.F.);
#1062 = ORIENTED_EDGE('',*,*,#1063,.F.);
#1063 = EDGE_CURVE('',#358,#605,#1064,.T.);
#1064 = LINE('',#1065,#1066);
#1065 = CARTESIAN_POINT('',(106.25,-80.48,-4.6E-02));
#1066 = VECTOR('',#1067,1.);
#1067 = DIRECTION('',(0.,0.,1.));
#1068 = CYLINDRICAL_SURFACE('',#1069,0.3);
#1069 = AXIS2_PLACEMENT_3D('',#1070,#1071,#1072);
#1070 = CARTESIAN_POINT('',(106.25,-80.18,-4.6E-02));
#1071 = DIRECTION('',(-0.,0.,-1.));
#1072 = DIRECTION('',(0.,1.,0.));
#1073 = ADVANCED_FACE('',(#1074),#1080,.T.);
#1074 = FACE_BOUND('',#1075,.T.);
#1075 = EDGE_LOOP('',(#1076,#1077,#1078,#1079));
#1076 = ORIENTED_EDGE('',*,*,#357,.T.);
#1077 = ORIENTED_EDGE('',*,*,#1063,.T.);
#1078 = ORIENTED_EDGE('',*,*,#604,.F.);
#1079 = ORIENTED_EDGE('',*,*,#1022,.F.);
#1080 = PLANE('',#1081);
#1081 = AXIS2_PLACEMENT_3D('',#1082,#1083,#1084);
#1082 = CARTESIAN_POINT('',(106.25,-80.48,-4.6E-02));
#1083 = DIRECTION('',(0.,1.,0.));
#1084 = DIRECTION('',(1.,0.,0.));
#1085 = ( GEOMETRIC_REPRESENTATION_CONTEXT(3) 
GLOBAL_UNCERTAINTY_ASSIGNED_CONTEXT((#1089)) 
GLOBAL_UNIT_ASSIGNED_CONTEXT((#1086,#1087,#1088)) REPRESENTATION_CONTEXT
('Context #1','3D Context with UNIT and UNCERTAINTY') );
#1086 = ( LENGTH_UNIT() NAMED_UNIT(*) SI_UNIT(.MILLI.,.METRE.) );
#1087 = ( NAMED_UNIT(*) PLANE_ANGLE_UNIT() SI_UNIT($,.RADIAN.) );
#1088 = ( NAMED_UNIT(*) SI_UNIT($,.STERADIAN.) SOLID_ANGLE_UNIT() );
#1089 = UNCERTAINTY_MEASURE_WITH_UNIT(LENGTH_MEASURE(1.E-07),#1086,
  'distance_accuracy_value','confusion accuracy');
#1090 = CONTEXT_DEPENDENT_SHAPE_REPRESENTATION(#1091,#1093);
#1091 = ( REPRESENTATION_RELATIONSHIP('','',#32,#10) 
REPRESENTATION_RELATIONSHIP_WITH_TRANSFORMATION(#1092) 
SHAPE_REPRESENTATION_RELATIONSHIP() );
#1092 = ITEM_DEFINED_TRANSFORMATION('','',#11,#15);
#1093 = PRODUCT_DEFINITION_SHAPE('Placement','Placement of an item',
  #1094);
#1094 = NEXT_ASSEMBLY_USAGE_OCCURRENCE('1','=>[0:1:1:2]','',#5,#27,$);
#1095 = PRODUCT_RELATED_PRODUCT_CATEGORY('part',$,(#29));
#1096 = MECHANICAL_DESIGN_GEOMETRIC_PRESENTATION_REPRESENTATION('',(
    #1097),#1085);
#1097 = STYLED_ITEM('color',(#1098),#33);
#1098 = PRESENTATION_STYLE_ASSIGNMENT((#1099));
#1099 = SURFACE_STYLE_USAGE(.BOTH.,#1100);
#1100 = SURFACE_SIDE_STYLE('',(#1101));
#1101 = SURFACE_STYLE_FILL_AREA(#1102);
#1102 = FILL_AREA_STYLE('',(#1103));
#1103 = FILL_AREA_STYLE_COLOUR('',#1104);
#1104 = COLOUR_RGB('',0.313304153717,0.484529207832,0.410020903123);
ENDSEC;
END-ISO-10303-21;
