ISO-10303-21;
HEADER;
FILE_DESCRIPTION(('KiCad electronic assembly'),'2;1');
FILE_NAME('env-sensor-a.step','2026-08-25T17:32:43',('Pcbnew'),('Kicad')
  ,'Open CASCADE STEP processor 7.9','KiCad to STEP converter','Unknown'
  );
FILE_SCHEMA(('AUTOMOTIVE_DESIGN { 1 0 10303 214 1 1 1 1 }'));
ENDSEC;
DATA;
#1 = APPLICATION_PROTOCOL_DEFINITION('international standard',
  'automotive_design',2000,#2);
#2 = APPLICATION_CONTEXT(
  'core data for automotive mechanical design processes');
#3 = SHAPE_DEFINITION_REPRESENTATION(#4,#10);
#4 = PRODUCT_DEFINITION_SHAPE('','',#5);
#5 = PRODUCT_DEFINITION('design','',#6,#9);
#6 = PRODUCT_DEFINITION_FORMATION('','',#7);
#7 = PRODUCT('env-sensor-a 1','env-sensor-a 1','',(#8));
#8 = PRODUCT_CONTEXT('',#2,'mechanical');
#9 = PRODUCT_DEFINITION_CONTEXT('part definition',#2,'design');
#10 = SHAPE_REPRESENTATION('',(#11,#15),#19);
#11 = AXIS2_PLACEMENT_3D('',#12,#13,#14);
#12 = CARTESIAN_POINT('',(0.,0.,0.));
#13 = DIRECTION('',(0.,0.,1.));
#14 = DIRECTION('',(1.,0.,-0.));
#15 = AXIS2_PLACEMENT_3D('',#16,#17,#18);
#16 = CARTESIAN_POINT('',(0.,0.,0.));
#17 = DIRECTION('',(0.,0.,1.));
#18 = DIRECTION('',(1.,0.,-0.));
#19 = ( GEOMETRIC_REPRESENTATION_CONTEXT(3) 
GLOBAL_UNCERTAINTY_ASSIGNED_CONTEXT((#23)) GLOBAL_UNIT_ASSIGNED_CONTEXT(
(#20,#21,#22)) REPRESENTATION_CONTEXT('Context #1',
  '3D Context with UNIT and UNCERTAINTY') );
#20 = ( LENGTH_UNIT() NAMED_UNIT(*) SI_UNIT(.MILLI.,.METRE.) );
#21 = ( NAMED_UNIT(*) PLANE_ANGLE_UNIT() SI_UNIT($,.RADIAN.) );
#22 = ( NAMED_UNIT(*) SI_UNIT($,.STERADIAN.) SOLID_ANGLE_UNIT() );
#23 = UNCERTAINTY_MEASURE_WITH_UNIT(LENGTH_MEASURE(1.E-07),#20,
  'distance_accuracy_value','confusion accuracy');
#24 = PRODUCT_RELATED_PRODUCT_CATEGORY('part',$,(#7));
#25 = SHAPE_DEFINITION_REPRESENTATION(#26,#32);
#26 = PRODUCT_DEFINITION_SHAPE('','',#27);
#27 = PRODUCT_DEFINITION('design','',#28,#31);
#28 = PRODUCT_DEFINITION_FORMATION('','',#29);
#29 = PRODUCT('env-sensor-a_PCB','env-sensor-a_PCB','',(#30));
#30 = PRODUCT_CONTEXT('',#2,'mechanical');
#31 = PRODUCT_DEFINITION_CONTEXT('part definition',#2,'design');
#32 = ADVANCED_BREP_SHAPE_REPRESENTATION('',(#11,#33),#821);
#33 = MANIFOLD_SOLID_BREP('',#34);
#34 = CLOSED_SHELL('',(#35,#75,#106,#137,#320,#503,#515,#537,#554,#571,
    #583,#600,#622,#639,#656,#668,#685,#707,#724,#741,#753,#775,#792,
    #809));
#35 = ADVANCED_FACE('',(#36),#70,.T.);
#36 = FACE_BOUND('',#37,.T.);
#37 = EDGE_LOOP('',(#38,#48,#56,#64));
#38 = ORIENTED_EDGE('',*,*,#39,.T.);
#39 = EDGE_CURVE('',#40,#42,#44,.T.);
#40 = VERTEX_POINT('',#41);
#41 = CARTESIAN_POINT('',(130.,-94.,0.));
#42 = VERTEX_POINT('',#43);
#43 = CARTESIAN_POINT('',(130.,-94.,1.535));
#44 = LINE('',#45,#46);
#45 = CARTESIAN_POINT('',(130.,-94.,0.));
#46 = VECTOR('',#47,1.);
#47 = DIRECTION('',(0.,0.,1.));
#48 = ORIENTED_EDGE('',*,*,#49,.T.);
#49 = EDGE_CURVE('',#42,#50,#52,.T.);
#50 = VERTEX_POINT('',#51);
#51 = CARTESIAN_POINT('',(100.,-94.,1.535));
#52 = LINE('',#53,#54);
#53 = CARTESIAN_POINT('',(130.,-94.,1.535));
#54 = VECTOR('',#55,1.);
#55 = DIRECTION('',(-1.,0.,0.));
#56 = ORIENTED_EDGE('',*,*,#57,.F.);
#57 = EDGE_CURVE('',#58,#50,#60,.T.);
#58 = VERTEX_POINT('',#59);
#59 = CARTESIAN_POINT('',(100.,-94.,0.));
#60 = LINE('',#61,#62);
#61 = CARTESIAN_POINT('',(100.,-94.,0.));
#62 = VECTOR('',#63,1.);
#63 = DIRECTION('',(0.,0.,1.));
#64 = ORIENTED_EDGE('',*,*,#65,.F.);
#65 = EDGE_CURVE('',#40,#58,#66,.T.);
#66 = LINE('',#67,#68);
#67 = CARTESIAN_POINT('',(130.,-94.,0.));
#68 = VECTOR('',#69,1.);
#69 = DIRECTION('',(-1.,0.,0.));
#70 = PLANE('',#71);
#71 = AXIS2_PLACEMENT_3D('',#72,#73,#74);
#72 = CARTESIAN_POINT('',(130.,-94.,0.));
#73 = DIRECTION('',(0.,-1.,0.));
#74 = DIRECTION('',(-1.,0.,0.));
#75 = ADVANCED_FACE('',(#76),#101,.T.);
#76 = FACE_BOUND('',#77,.T.);
#77 = EDGE_LOOP('',(#78,#88,#94,#95));
#78 = ORIENTED_EDGE('',*,*,#79,.T.);
#79 = EDGE_CURVE('',#80,#82,#84,.T.);
#80 = VERTEX_POINT('',#81);
#81 = CARTESIAN_POINT('',(130.,-60.,0.));
#82 = VERTEX_POINT('',#83);
#83 = CARTESIAN_POINT('',(130.,-60.,1.535));
#84 = LINE('',#85,#86);
#85 = CARTESIAN_POINT('',(130.,-60.,0.));
#86 = VECTOR('',#87,1.);
#87 = DIRECTION('',(0.,0.,1.));
#88 = ORIENTED_EDGE('',*,*,#89,.T.);
#89 = EDGE_CURVE('',#82,#42,#90,.T.);
#90 = LINE('',#91,#92);
#91 = CARTESIAN_POINT('',(130.,-60.,1.535));
#92 = VECTOR('',#93,1.);
#93 = DIRECTION('',(0.,-1.,0.));
#94 = ORIENTED_EDGE('',*,*,#39,.F.);
#95 = ORIENTED_EDGE('',*,*,#96,.F.);
#96 = EDGE_CURVE('',#80,#40,#97,.T.);
#97 = LINE('',#98,#99);
#98 = CARTESIAN_POINT('',(130.,-60.,0.));
#99 = VECTOR('',#100,1.);
#100 = DIRECTION('',(0.,-1.,0.));
#101 = PLANE('',#102);
#102 = AXIS2_PLACEMENT_3D('',#103,#104,#105);
#103 = CARTESIAN_POINT('',(130.,-60.,0.));
#104 = DIRECTION('',(1.,0.,-0.));
#105 = DIRECTION('',(0.,-1.,0.));
#106 = ADVANCED_FACE('',(#107),#132,.T.);
#107 = FACE_BOUND('',#108,.T.);
#108 = EDGE_LOOP('',(#109,#110,#118,#126));
#109 = ORIENTED_EDGE('',*,*,#57,.T.);
#110 = ORIENTED_EDGE('',*,*,#111,.T.);
#111 = EDGE_CURVE('',#50,#112,#114,.T.);
#112 = VERTEX_POINT('',#113);
#113 = CARTESIAN_POINT('',(100.,-60.,1.535));
#114 = LINE('',#115,#116);
#115 = CARTESIAN_POINT('',(100.,-94.,1.535));
#116 = VECTOR('',#117,1.);
#117 = DIRECTION('',(0.,1.,0.));
#118 = ORIENTED_EDGE('',*,*,#119,.F.);
#119 = EDGE_CURVE('',#120,#112,#122,.T.);
#120 = VERTEX_POINT('',#121);
#121 = CARTESIAN_POINT('',(100.,-60.,0.));
#122 = LINE('',#123,#124);
#123 = CARTESIAN_POINT('',(100.,-60.,0.));
#124 = VECTOR('',#125,1.);
#125 = DIRECTION('',(0.,0.,1.));
#126 = ORIENTED_EDGE('',*,*,#127,.F.);
#127 = EDGE_CURVE('',#58,#120,#128,.T.);
#128 = LINE('',#129,#130);
#129 = CARTESIAN_POINT('',(100.,-94.,0.));
#130 = VECTOR('',#131,1.);
#131 = DIRECTION('',(0.,1.,0.));
#132 = PLANE('',#133);
#133 = AXIS2_PLACEMENT_3D('',#134,#135,#136);
#134 = CARTESIAN_POINT('',(100.,-94.,0.));
#135 = DIRECTION('',(-1.,0.,0.));
#136 = DIRECTION('',(0.,1.,0.));
#137 = ADVANCED_FACE('',(#138,#149,#185,#196,#232,#243,#279),#315,.F.);
#138 = FACE_BOUND('',#139,.F.);
#139 = EDGE_LOOP('',(#140,#141,#142,#148));
#140 = ORIENTED_EDGE('',*,*,#65,.F.);
#141 = ORIENTED_EDGE('',*,*,#96,.F.);
#142 = ORIENTED_EDGE('',*,*,#143,.F.);
#143 = EDGE_CURVE('',#120,#80,#144,.T.);
#144 = LINE('',#145,#146);
#145 = CARTESIAN_POINT('',(100.,-60.,0.));
#146 = VECTOR('',#147,1.);
#147 = DIRECTION('',(1.,0.,0.));
#148 = ORIENTED_EDGE('',*,*,#127,.F.);
#149 = FACE_BOUND('',#150,.F.);
#150 = EDGE_LOOP('',(#151,#162,#170,#179));
#151 = ORIENTED_EDGE('',*,*,#152,.T.);
#152 = EDGE_CURVE('',#153,#155,#157,.T.);
#153 = VERTEX_POINT('',#154);
#154 = CARTESIAN_POINT('',(102.92,-88.52,0.));
#155 = VERTEX_POINT('',#156);
#156 = CARTESIAN_POINT('',(102.92,-89.12,0.));
#157 = CIRCLE('',#158,0.3);
#158 = AXIS2_PLACEMENT_3D('',#159,#160,#161);
#159 = CARTESIAN_POINT('',(102.92,-88.82,0.));
#160 = DIRECTION('',(-0.,0.,-1.));
#161 = DIRECTION('',(4.736951571734E-14,-1.,-0.));
#162 = ORIENTED_EDGE('',*,*,#163,.T.);
#163 = EDGE_CURVE('',#155,#164,#166,.T.);
#164 = VERTEX_POINT('',#165);
#165 = CARTESIAN_POINT('',(101.82,-89.12,0.));
#166 = LINE('',#167,#168);
#167 = CARTESIAN_POINT('',(50.91,-89.12,0.));
#168 = VECTOR('',#169,1.);
#169 = DIRECTION('',(-1.,0.,0.));
#170 = ORIENTED_EDGE('',*,*,#171,.T.);
#171 = EDGE_CURVE('',#164,#172,#174,.T.);
#172 = VERTEX_POINT('',#173);
#173 = CARTESIAN_POINT('',(101.82,-88.52,0.));
#174 = CIRCLE('',#175,0.3);
#175 = AXIS2_PLACEMENT_3D('',#176,#177,#178);
#176 = CARTESIAN_POINT('',(101.82,-88.82,0.));
#177 = DIRECTION('',(-0.,0.,-1.));
#178 = DIRECTION('',(0.,1.,0.));
#179 = ORIENTED_EDGE('',*,*,#180,.T.);
#180 = EDGE_CURVE('',#172,#153,#181,.T.);
#181 = LINE('',#182,#183);
#182 = CARTESIAN_POINT('',(51.46,-88.52,0.));
#183 = VECTOR('',#184,1.);
#184 = DIRECTION('',(1.,0.,-0.));
#185 = FACE_BOUND('',#186,.F.);
#186 = EDGE_LOOP('',(#187));
#187 = ORIENTED_EDGE('',*,*,#188,.T.);
#188 = EDGE_CURVE('',#189,#189,#191,.T.);
#189 = VERTEX_POINT('',#190);
#190 = CARTESIAN_POINT('',(102.9,-87.715,0.));
#191 = CIRCLE('',#192,0.325);
#192 = AXIS2_PLACEMENT_3D('',#193,#194,#195);
#193 = CARTESIAN_POINT('',(102.9,-87.39,0.));
#194 = DIRECTION('',(-0.,0.,-1.));
#195 = DIRECTION('',(-0.,-1.,0.));
#196 = FACE_BOUND('',#197,.F.);
#197 = EDGE_LOOP('',(#198,#209,#217,#226));
#198 = ORIENTED_EDGE('',*,*,#199,.T.);
#199 = EDGE_CURVE('',#200,#202,#204,.T.);
#200 = VERTEX_POINT('',#201);
#201 = CARTESIAN_POINT('',(106.85,-88.52,0.));
#202 = VERTEX_POINT('',#203);
#203 = CARTESIAN_POINT('',(106.85,-89.12,0.));
#204 = CIRCLE('',#205,0.3);
#205 = AXIS2_PLACEMENT_3D('',#206,#207,#208);
#206 = CARTESIAN_POINT('',(106.85,-88.82,0.));
#207 = DIRECTION('',(-0.,0.,-1.));
#208 = DIRECTION('',(-0.,-1.,0.));
#209 = ORIENTED_EDGE('',*,*,#210,.T.);
#210 = EDGE_CURVE('',#202,#211,#213,.T.);
#211 = VERTEX_POINT('',#212);
#212 = CARTESIAN_POINT('',(106.25,-89.12,0.));
#213 = LINE('',#214,#215);
#214 = CARTESIAN_POINT('',(53.125,-89.12,0.));
#215 = VECTOR('',#216,1.);
#216 = DIRECTION('',(-1.,0.,0.));
#217 = ORIENTED_EDGE('',*,*,#218,.T.);
#218 = EDGE_CURVE('',#211,#219,#221,.T.);
#219 = VERTEX_POINT('',#220);
#220 = CARTESIAN_POINT('',(106.25,-88.52,0.));
#221 = CIRCLE('',#222,0.3);
#222 = AXIS2_PLACEMENT_3D('',#223,#224,#225);
#223 = CARTESIAN_POINT('',(106.25,-88.82,0.));
#224 = DIRECTION('',(-0.,0.,-1.));
#225 = DIRECTION('',(0.,1.,0.));
#226 = ORIENTED_EDGE('',*,*,#227,.T.);
#227 = EDGE_CURVE('',#219,#200,#228,.T.);
#228 = LINE('',#229,#230);
#229 = CARTESIAN_POINT('',(53.425,-88.52,0.));
#230 = VECTOR('',#231,1.);
#231 = DIRECTION('',(1.,0.,-0.));
#232 = FACE_BOUND('',#233,.F.);
#233 = EDGE_LOOP('',(#234));
#234 = ORIENTED_EDGE('',*,*,#235,.T.);
#235 = EDGE_CURVE('',#236,#236,#238,.T.);
#236 = VERTEX_POINT('',#237);
#237 = CARTESIAN_POINT('',(102.9,-81.935,0.));
#238 = CIRCLE('',#239,0.325);
#239 = AXIS2_PLACEMENT_3D('',#240,#241,#242);
#240 = CARTESIAN_POINT('',(102.9,-81.61,0.));
#241 = DIRECTION('',(-0.,0.,-1.));
#242 = DIRECTION('',(-0.,-1.,0.));
#243 = FACE_BOUND('',#244,.F.);
#244 = EDGE_LOOP('',(#245,#256,#264,#273));
#245 = ORIENTED_EDGE('',*,*,#246,.T.);
#246 = EDGE_CURVE('',#247,#249,#251,.T.);
#247 = VERTEX_POINT('',#248);
#248 = CARTESIAN_POINT('',(102.92,-79.88,0.));
#249 = VERTEX_POINT('',#250);
#250 = CARTESIAN_POINT('',(102.92,-80.48,0.));
#251 = CIRCLE('',#252,0.3);
#252 = AXIS2_PLACEMENT_3D('',#253,#254,#255);
#253 = CARTESIAN_POINT('',(102.92,-80.18,0.));
#254 = DIRECTION('',(-0.,0.,-1.));
#255 = DIRECTION('',(4.736951571734E-14,-1.,-0.));
#256 = ORIENTED_EDGE('',*,*,#257,.T.);
#257 = EDGE_CURVE('',#249,#258,#260,.T.);
#258 = VERTEX_POINT('',#259);
#259 = CARTESIAN_POINT('',(101.82,-80.48,0.));
#260 = LINE('',#261,#262);
#261 = CARTESIAN_POINT('',(50.91,-80.48,0.));
#262 = VECTOR('',#263,1.);
#263 = DIRECTION('',(-1.,0.,0.));
#264 = ORIENTED_EDGE('',*,*,#265,.T.);
#265 = EDGE_CURVE('',#258,#266,#268,.T.);
#266 = VERTEX_POINT('',#267);
#267 = CARTESIAN_POINT('',(101.82,-79.88,0.));
#268 = CIRCLE('',#269,0.3);
#269 = AXIS2_PLACEMENT_3D('',#270,#271,#272);
#270 = CARTESIAN_POINT('',(101.82,-80.18,0.));
#271 = DIRECTION('',(-0.,0.,-1.));
#272 = DIRECTION('',(0.,1.,0.));
#273 = ORIENTED_EDGE('',*,*,#274,.T.);
#274 = EDGE_CURVE('',#266,#247,#275,.T.);
#275 = LINE('',#276,#277);
#276 = CARTESIAN_POINT('',(51.46,-79.88,0.));
#277 = VECTOR('',#278,1.);
#278 = DIRECTION('',(1.,0.,-0.));
#279 = FACE_BOUND('',#280,.F.);
#280 = EDGE_LOOP('',(#281,#292,#300,#309));
#281 = ORIENTED_EDGE('',*,*,#282,.T.);
#282 = EDGE_CURVE('',#283,#285,#287,.T.);
#283 = VERTEX_POINT('',#284);
#284 = CARTESIAN_POINT('',(106.85,-79.88,0.));
#285 = VERTEX_POINT('',#286);
#286 = CARTESIAN_POINT('',(106.85,-80.48,0.));
#287 = CIRCLE('',#288,0.3);
#288 = AXIS2_PLACEMENT_3D('',#289,#290,#291);
#289 = CARTESIAN_POINT('',(106.85,-80.18,0.));
#290 = DIRECTION('',(-0.,0.,-1.));
#291 = DIRECTION('',(-0.,-1.,0.));
#292 = ORIENTED_EDGE('',*,*,#293,.T.);
#293 = EDGE_CURVE('',#285,#294,#296,.T.);
#294 = VERTEX_POINT('',#295);
#295 = CARTESIAN_POINT('',(106.25,-80.48,0.));
#296 = LINE('',#297,#298);
#297 = CARTESIAN_POINT('',(53.125,-80.48,0.));
#298 = VECTOR('',#299,1.);
#299 = DIRECTION('',(-1.,0.,0.));
#300 = ORIENTED_EDGE('',*,*,#301,.T.);
#301 = EDGE_CURVE('',#294,#302,#304,.T.);
#302 = VERTEX_POINT('',#303);
#303 = CARTESIAN_POINT('',(106.25,-79.88,0.));
#304 = CIRCLE('',#305,0.3);
#305 = AXIS2_PLACEMENT_3D('',#306,#307,#308);
#306 = CARTESIAN_POINT('',(106.25,-80.18,0.));
#307 = DIRECTION('',(-0.,0.,-1.));
#308 = DIRECTION('',(0.,1.,0.));
#309 = ORIENTED_EDGE('',*,*,#310,.T.);
#310 = EDGE_CURVE('',#302,#283,#311,.T.);
#311 = LINE('',#312,#313);
#312 = CARTESIAN_POINT('',(53.425,-79.88,0.));
#313 = VECTOR('',#314,1.);
#314 = DIRECTION('',(1.,0.,-0.));
#315 = PLANE('',#316);
#316 = AXIS2_PLACEMENT_3D('',#317,#318,#319);
#317 = CARTESIAN_POINT('',(0.,0.,0.));
#318 = DIRECTION('',(0.,0.,1.));
#319 = DIRECTION('',(1.,0.,-0.));
#320 = ADVANCED_FACE('',(#321,#332,#368,#379,#415,#426,#462),#498,.T.);
#321 = FACE_BOUND('',#322,.T.);
#322 = EDGE_LOOP('',(#323,#324,#325,#331));
#323 = ORIENTED_EDGE('',*,*,#49,.F.);
#324 = ORIENTED_EDGE('',*,*,#89,.F.);
#325 = ORIENTED_EDGE('',*,*,#326,.F.);
#326 = EDGE_CURVE('',#112,#82,#327,.T.);
#327 = LINE('',#328,#329);
#328 = CARTESIAN_POINT('',(100.,-60.,1.535));
#329 = VECTOR('',#330,1.);
#330 = DIRECTION('',(1.,0.,0.));
#331 = ORIENTED_EDGE('',*,*,#111,.F.);
#332 = FACE_BOUND('',#333,.T.);
#333 = EDGE_LOOP('',(#334,#345,#353,#362));
#334 = ORIENTED_EDGE('',*,*,#335,.T.);
#335 = EDGE_CURVE('',#336,#338,#340,.T.);
#336 = VERTEX_POINT('',#337);
#337 = CARTESIAN_POINT('',(102.92,-88.52,1.535));
#338 = VERTEX_POINT('',#339);
#339 = CARTESIAN_POINT('',(102.92,-89.12,1.535));
#340 = CIRCLE('',#341,0.3);
#341 = AXIS2_PLACEMENT_3D('',#342,#343,#344);
#342 = CARTESIAN_POINT('',(102.92,-88.82,1.535));
#343 = DIRECTION('',(-0.,0.,-1.));
#344 = DIRECTION('',(4.736951571734E-14,-1.,-0.));
#345 = ORIENTED_EDGE('',*,*,#346,.T.);
#346 = EDGE_CURVE('',#338,#347,#349,.T.);
#347 = VERTEX_POINT('',#348);
#348 = CARTESIAN_POINT('',(101.82,-89.12,1.535));
#349 = LINE('',#350,#351);
#350 = CARTESIAN_POINT('',(50.91,-89.12,1.535));
#351 = VECTOR('',#352,1.);
#352 = DIRECTION('',(-1.,0.,0.));
#353 = ORIENTED_EDGE('',*,*,#354,.T.);
#354 = EDGE_CURVE('',#347,#355,#357,.T.);
#355 = VERTEX_POINT('',#356);
#356 = CARTESIAN_POINT('',(101.82,-88.52,1.535));
#357 = CIRCLE('',#358,0.3);
#358 = AXIS2_PLACEMENT_3D('',#359,#360,#361);
#359 = CARTESIAN_POINT('',(101.82,-88.82,1.535));
#360 = DIRECTION('',(-0.,0.,-1.));
#361 = DIRECTION('',(0.,1.,0.));
#362 = ORIENTED_EDGE('',*,*,#363,.T.);
#363 = EDGE_CURVE('',#355,#336,#364,.T.);
#364 = LINE('',#365,#366);
#365 = CARTESIAN_POINT('',(51.46,-88.52,1.535));
#366 = VECTOR('',#367,1.);
#367 = DIRECTION('',(1.,0.,-0.));
#368 = FACE_BOUND('',#369,.T.);
#369 = EDGE_LOOP('',(#370));
#370 = ORIENTED_EDGE('',*,*,#371,.T.);
#371 = EDGE_CURVE('',#372,#372,#374,.T.);
#372 = VERTEX_POINT('',#373);
#373 = CARTESIAN_POINT('',(102.9,-87.715,1.535));
#374 = CIRCLE('',#375,0.325);
#375 = AXIS2_PLACEMENT_3D('',#376,#377,#378);
#376 = CARTESIAN_POINT('',(102.9,-87.39,1.535));
#377 = DIRECTION('',(-0.,0.,-1.));
#378 = DIRECTION('',(-0.,-1.,0.));
#379 = FACE_BOUND('',#380,.T.);
#380 = EDGE_LOOP('',(#381,#392,#400,#409));
#381 = ORIENTED_EDGE('',*,*,#382,.T.);
#382 = EDGE_CURVE('',#383,#385,#387,.T.);
#383 = VERTEX_POINT('',#384);
#384 = CARTESIAN_POINT('',(106.85,-88.52,1.535));
#385 = VERTEX_POINT('',#386);
#386 = CARTESIAN_POINT('',(106.85,-89.12,1.535));
#387 = CIRCLE('',#388,0.3);
#388 = AXIS2_PLACEMENT_3D('',#389,#390,#391);
#389 = CARTESIAN_POINT('',(106.85,-88.82,1.535));
#390 = DIRECTION('',(-0.,0.,-1.));
#391 = DIRECTION('',(-0.,-1.,0.));
#392 = ORIENTED_EDGE('',*,*,#393,.T.);
#393 = EDGE_CURVE('',#385,#394,#396,.T.);
#394 = VERTEX_POINT('',#395);
#395 = CARTESIAN_POINT('',(106.25,-89.12,1.535));
#396 = LINE('',#397,#398);
#397 = CARTESIAN_POINT('',(53.125,-89.12,1.535));
#398 = VECTOR('',#399,1.);
#399 = DIRECTION('',(-1.,0.,0.));
#400 = ORIENTED_EDGE('',*,*,#401,.T.);
#401 = EDGE_CURVE('',#394,#402,#404,.T.);
#402 = VERTEX_POINT('',#403);
#403 = CARTESIAN_POINT('',(106.25,-88.52,1.535));
#404 = CIRCLE('',#405,0.3);
#405 = AXIS2_PLACEMENT_3D('',#406,#407,#408);
#406 = CARTESIAN_POINT('',(106.25,-88.82,1.535));
#407 = DIRECTION('',(-0.,0.,-1.));
#408 = DIRECTION('',(0.,1.,0.));
#409 = ORIENTED_EDGE('',*,*,#410,.T.);
#410 = EDGE_CURVE('',#402,#383,#411,.T.);
#411 = LINE('',#412,#413);
#412 = CARTESIAN_POINT('',(53.425,-88.52,1.535));
#413 = VECTOR('',#414,1.);
#414 = DIRECTION('',(1.,0.,-0.));
#415 = FACE_BOUND('',#416,.T.);
#416 = EDGE_LOOP('',(#417));
#417 = ORIENTED_EDGE('',*,*,#418,.T.);
#418 = EDGE_CURVE('',#419,#419,#421,.T.);
#419 = VERTEX_POINT('',#420);
#420 = CARTESIAN_POINT('',(102.9,-81.935,1.535));
#421 = CIRCLE('',#422,0.325);
#422 = AXIS2_PLACEMENT_3D('',#423,#424,#425);
#423 = CARTESIAN_POINT('',(102.9,-81.61,1.535));
#424 = DIRECTION('',(-0.,0.,-1.));
#425 = DIRECTION('',(-0.,-1.,0.));
#426 = FACE_BOUND('',#427,.T.);
#427 = EDGE_LOOP('',(#428,#439,#447,#456));
#428 = ORIENTED_EDGE('',*,*,#429,.T.);
#429 = EDGE_CURVE('',#430,#432,#434,.T.);
#430 = VERTEX_POINT('',#431);
#431 = CARTESIAN_POINT('',(102.92,-79.88,1.535));
#432 = VERTEX_POINT('',#433);
#433 = CARTESIAN_POINT('',(102.92,-80.48,1.535));
#434 = CIRCLE('',#435,0.3);
#435 = AXIS2_PLACEMENT_3D('',#436,#437,#438);
#436 = CARTESIAN_POINT('',(102.92,-80.18,1.535));
#437 = DIRECTION('',(-0.,0.,-1.));
#438 = DIRECTION('',(4.736951571734E-14,-1.,-0.));
#439 = ORIENTED_EDGE('',*,*,#440,.T.);
#440 = EDGE_CURVE('',#432,#441,#443,.T.);
#441 = VERTEX_POINT('',#442);
#442 = CARTESIAN_POINT('',(101.82,-80.48,1.535));
#443 = LINE('',#444,#445);
#444 = CARTESIAN_POINT('',(50.91,-80.48,1.535));
#445 = VECTOR('',#446,1.);
#446 = DIRECTION('',(-1.,0.,0.));
#447 = ORIENTED_EDGE('',*,*,#448,.T.);
#448 = EDGE_CURVE('',#441,#449,#451,.T.);
#449 = VERTEX_POINT('',#450);
#450 = CARTESIAN_POINT('',(101.82,-79.88,1.535));
#451 = CIRCLE('',#452,0.3);
#452 = AXIS2_PLACEMENT_3D('',#453,#454,#455);
#453 = CARTESIAN_POINT('',(101.82,-80.18,1.535));
#454 = DIRECTION('',(-0.,0.,-1.));
#455 = DIRECTION('',(0.,1.,0.));
#456 = ORIENTED_EDGE('',*,*,#457,.T.);
#457 = EDGE_CURVE('',#449,#430,#458,.T.);
#458 = LINE('',#459,#460);
#459 = CARTESIAN_POINT('',(51.46,-79.88,1.535));
#460 = VECTOR('',#461,1.);
#461 = DIRECTION('',(1.,0.,-0.));
#462 = FACE_BOUND('',#463,.T.);
#463 = EDGE_LOOP('',(#464,#475,#483,#492));
#464 = ORIENTED_EDGE('',*,*,#465,.T.);
#465 = EDGE_CURVE('',#466,#468,#470,.T.);
#466 = VERTEX_POINT('',#467);
#467 = CARTESIAN_POINT('',(106.85,-79.88,1.535));
#468 = VERTEX_POINT('',#469);
#469 = CARTESIAN_POINT('',(106.85,-80.48,1.535));
#470 = CIRCLE('',#471,0.3);
#471 = AXIS2_PLACEMENT_3D('',#472,#473,#474);
#472 = CARTESIAN_POINT('',(106.85,-80.18,1.535));
#473 = DIRECTION('',(-0.,0.,-1.));
#474 = DIRECTION('',(-0.,-1.,0.));
#475 = ORIENTED_EDGE('',*,*,#476,.T.);
#476 = EDGE_CURVE('',#468,#477,#479,.T.);
#477 = VERTEX_POINT('',#478);
#478 = CARTESIAN_POINT('',(106.25,-80.48,1.535));
#479 = LINE('',#480,#481);
#480 = CARTESIAN_POINT('',(53.125,-80.48,1.535));
#481 = VECTOR('',#482,1.);
#482 = DIRECTION('',(-1.,0.,0.));
#483 = ORIENTED_EDGE('',*,*,#484,.T.);
#484 = EDGE_CURVE('',#477,#485,#487,.T.);
#485 = VERTEX_POINT('',#486);
#486 = CARTESIAN_POINT('',(106.25,-79.88,1.535));
#487 = CIRCLE('',#488,0.3);
#488 = AXIS2_PLACEMENT_3D('',#489,#490,#491);
#489 = CARTESIAN_POINT('',(106.25,-80.18,1.535));
#490 = DIRECTION('',(-0.,0.,-1.));
#491 = DIRECTION('',(0.,1.,0.));
#492 = ORIENTED_EDGE('',*,*,#493,.T.);
#493 = EDGE_CURVE('',#485,#466,#494,.T.);
#494 = LINE('',#495,#496);
#495 = CARTESIAN_POINT('',(53.425,-79.88,1.535));
#496 = VECTOR('',#497,1.);
#497 = DIRECTION('',(1.,0.,-0.));
#498 = PLANE('',#499);
#499 = AXIS2_PLACEMENT_3D('',#500,#501,#502);
#500 = CARTESIAN_POINT('',(0.,0.,1.535));
#501 = DIRECTION('',(0.,0.,1.));
#502 = DIRECTION('',(1.,0.,-0.));
#503 = ADVANCED_FACE('',(#504),#510,.T.);
#504 = FACE_BOUND('',#505,.T.);
#505 = EDGE_LOOP('',(#506,#507,#508,#509));
#506 = ORIENTED_EDGE('',*,*,#119,.T.);
#507 = ORIENTED_EDGE('',*,*,#326,.T.);
#508 = ORIENTED_EDGE('',*,*,#79,.F.);
#509 = ORIENTED_EDGE('',*,*,#143,.F.);
#510 = PLANE('',#511);
#511 = AXIS2_PLACEMENT_3D('',#512,#513,#514);
#512 = CARTESIAN_POINT('',(100.,-60.,0.));
#513 = DIRECTION('',(0.,1.,0.));
#514 = DIRECTION('',(1.,0.,0.));
#515 = ADVANCED_FACE('',(#516),#532,.F.);
#516 = FACE_BOUND('',#517,.T.);
#517 = EDGE_LOOP('',(#518,#519,#525,#526));
#518 = ORIENTED_EDGE('',*,*,#152,.T.);
#519 = ORIENTED_EDGE('',*,*,#520,.T.);
#520 = EDGE_CURVE('',#155,#338,#521,.T.);
#521 = LINE('',#522,#523);
#522 = CARTESIAN_POINT('',(102.92,-89.12,-4.6E-02));
#523 = VECTOR('',#524,1.);
#524 = DIRECTION('',(0.,0.,1.));
#525 = ORIENTED_EDGE('',*,*,#335,.F.);
#526 = ORIENTED_EDGE('',*,*,#527,.F.);
#527 = EDGE_CURVE('',#153,#336,#528,.T.);
#528 = LINE('',#529,#530);
#529 = CARTESIAN_POINT('',(102.92,-88.52,-4.6E-02));
#530 = VECTOR('',#531,1.);
#531 = DIRECTION('',(0.,0.,1.));
#532 = CYLINDRICAL_SURFACE('',#533,0.3);
#533 = AXIS2_PLACEMENT_3D('',#534,#535,#536);
#534 = CARTESIAN_POINT('',(102.92,-88.82,-4.6E-02));
#535 = DIRECTION('',(-0.,0.,-1.));
#536 = DIRECTION('',(4.736951571734E-14,-1.,-0.));
#537 = ADVANCED_FACE('',(#538),#549,.T.);
#538 = FACE_BOUND('',#539,.T.);
#539 = EDGE_LOOP('',(#540,#541,#542,#543));
#540 = ORIENTED_EDGE('',*,*,#180,.T.);
#541 = ORIENTED_EDGE('',*,*,#527,.T.);
#542 = ORIENTED_EDGE('',*,*,#363,.F.);
#543 = ORIENTED_EDGE('',*,*,#544,.F.);
#544 = EDGE_CURVE('',#172,#355,#545,.T.);
#545 = LINE('',#546,#547);
#546 = CARTESIAN_POINT('',(101.82,-88.52,-4.6E-02));
#547 = VECTOR('',#548,1.);
#548 = DIRECTION('',(0.,0.,1.));
#549 = PLANE('',#550);
#550 = AXIS2_PLACEMENT_3D('',#551,#552,#553);
#551 = CARTESIAN_POINT('',(102.92,-88.52,-4.6E-02));
#552 = DIRECTION('',(0.,-1.,0.));
#553 = DIRECTION('',(-1.,0.,0.));
#554 = ADVANCED_FACE('',(#555),#566,.F.);
#555 = FACE_BOUND('',#556,.T.);
#556 = EDGE_LOOP('',(#557,#558,#559,#560));
#557 = ORIENTED_EDGE('',*,*,#171,.T.);
#558 = ORIENTED_EDGE('',*,*,#544,.T.);
#559 = ORIENTED_EDGE('',*,*,#354,.F.);
#560 = ORIENTED_EDGE('',*,*,#561,.F.);
#561 = EDGE_CURVE('',#164,#347,#562,.T.);
#562 = LINE('',#563,#564);
#563 = CARTESIAN_POINT('',(101.82,-89.12,-4.6E-02));
#564 = VECTOR('',#565,1.);
#565 = DIRECTION('',(0.,0.,1.));
#566 = CYLINDRICAL_SURFACE('',#567,0.3);
#567 = AXIS2_PLACEMENT_3D('',#568,#569,#570);
#568 = CARTESIAN_POINT('',(101.82,-88.82,-4.6E-02));
#569 = DIRECTION('',(-0.,0.,-1.));
#570 = DIRECTION('',(0.,1.,0.));
#571 = ADVANCED_FACE('',(#572),#578,.T.);
#572 = FACE_BOUND('',#573,.T.);
#573 = EDGE_LOOP('',(#574,#575,#576,#577));
#574 = ORIENTED_EDGE('',*,*,#163,.T.);
#575 = ORIENTED_EDGE('',*,*,#561,.T.);
#576 = ORIENTED_EDGE('',*,*,#346,.F.);
#577 = ORIENTED_EDGE('',*,*,#520,.F.);
#578 = PLANE('',#579);
#579 = AXIS2_PLACEMENT_3D('',#580,#581,#582);
#580 = CARTESIAN_POINT('',(101.82,-89.12,-4.6E-02));
#581 = DIRECTION('',(0.,1.,0.));
#582 = DIRECTION('',(1.,0.,0.));
#583 = ADVANCED_FACE('',(#584),#595,.F.);
#584 = FACE_BOUND('',#585,.T.);
#585 = EDGE_LOOP('',(#586,#587,#593,#594));
#586 = ORIENTED_EDGE('',*,*,#188,.T.);
#587 = ORIENTED_EDGE('',*,*,#588,.T.);
#588 = EDGE_CURVE('',#189,#372,#589,.T.);
#589 = LINE('',#590,#591);
#590 = CARTESIAN_POINT('',(102.9,-87.715,-4.6E-02));
#591 = VECTOR('',#592,1.);
#592 = DIRECTION('',(0.,0.,1.));
#593 = ORIENTED_EDGE('',*,*,#371,.F.);
#594 = ORIENTED_EDGE('',*,*,#588,.F.);
#595 = CYLINDRICAL_SURFACE('',#596,0.325);
#596 = AXIS2_PLACEMENT_3D('',#597,#598,#599);
#597 = CARTESIAN_POINT('',(102.9,-87.39,-4.6E-02));
#598 = DIRECTION('',(-0.,-0.,-1.));
#599 = DIRECTION('',(-0.,-1.,0.));
#600 = ADVANCED_FACE('',(#601),#617,.F.);
#601 = FACE_BOUND('',#602,.T.);
#602 = EDGE_LOOP('',(#603,#604,#610,#611));
#603 = ORIENTED_EDGE('',*,*,#199,.T.);
#604 = ORIENTED_EDGE('',*,*,#605,.T.);
#605 = EDGE_CURVE('',#202,#385,#606,.T.);
#606 = LINE('',#607,#608);
#607 = CARTESIAN_POINT('',(106.85,-89.12,-4.6E-02));
#608 = VECTOR('',#609,1.);
#609 = DIRECTION('',(0.,0.,1.));
#610 = ORIENTED_EDGE('',*,*,#382,.F.);
#611 = ORIENTED_EDGE('',*,*,#612,.F.);
#612 = EDGE_CURVE('',#200,#383,#613,.T.);
#613 = LINE('',#614,#615);
#614 = CARTESIAN_POINT('',(106.85,-88.52,-4.6E-02));
#615 = VECTOR('',#616,1.);
#616 = DIRECTION('',(0.,0.,1.));
#617 = CYLINDRICAL_SURFACE('',#618,0.3);
#618 = AXIS2_PLACEMENT_3D('',#619,#620,#621);
#619 = CARTESIAN_POINT('',(106.85,-88.82,-4.6E-02));
#620 = DIRECTION('',(-0.,-0.,-1.));
#621 = DIRECTION('',(-0.,-1.,0.));
#622 = ADVANCED_FACE('',(#623),#634,.T.);
#623 = FACE_BOUND('',#624,.T.);
#624 = EDGE_LOOP('',(#625,#626,#627,#628));
#625 = ORIENTED_EDGE('',*,*,#227,.T.);
#626 = ORIENTED_EDGE('',*,*,#612,.T.);
#627 = ORIENTED_EDGE('',*,*,#410,.F.);
#628 = ORIENTED_EDGE('',*,*,#629,.F.);
#629 = EDGE_CURVE('',#219,#402,#630,.T.);
#630 = LINE('',#631,#632);
#631 = CARTESIAN_POINT('',(106.25,-88.52,-4.6E-02));
#632 = VECTOR('',#633,1.);
#633 = DIRECTION('',(0.,0.,1.));
#634 = PLANE('',#635);
#635 = AXIS2_PLACEMENT_3D('',#636,#637,#638);
#636 = CARTESIAN_POINT('',(106.85,-88.52,-4.6E-02));
#637 = DIRECTION('',(0.,-1.,0.));
#638 = DIRECTION('',(-1.,0.,0.));
#639 = ADVANCED_FACE('',(#640),#651,.F.);
#640 = FACE_BOUND('',#641,.T.);
#641 = EDGE_LOOP('',(#642,#643,#644,#645));
#642 = ORIENTED_EDGE('',*,*,#218,.T.);
#643 = ORIENTED_EDGE('',*,*,#629,.T.);
#644 = ORIENTED_EDGE('',*,*,#401,.F.);
#645 = ORIENTED_EDGE('',*,*,#646,.F.);
#646 = EDGE_CURVE('',#211,#394,#647,.T.);
#647 = LINE('',#648,#649);
#648 = CARTESIAN_POINT('',(106.25,-89.12,-4.6E-02));
#649 = VECTOR('',#650,1.);
#650 = DIRECTION('',(0.,0.,1.));
#651 = CYLINDRICAL_SURFACE('',#652,0.3);
#652 = AXIS2_PLACEMENT_3D('',#653,#654,#655);
#653 = CARTESIAN_POINT('',(106.25,-88.82,-4.6E-02));
#654 = DIRECTION('',(-0.,0.,-1.));
#655 = DIRECTION('',(0.,1.,0.));
#656 = ADVANCED_FACE('',(#657),#663,.T.);
#657 = FACE_BOUND('',#658,.T.);
#658 = EDGE_LOOP('',(#659,#660,#661,#662));
#659 = ORIENTED_EDGE('',*,*,#210,.T.);
#660 = ORIENTED_EDGE('',*,*,#646,.T.);
#661 = ORIENTED_EDGE('',*,*,#393,.F.);
#662 = ORIENTED_EDGE('',*,*,#605,.F.);
#663 = PLANE('',#664);
#664 = AXIS2_PLACEMENT_3D('',#665,#666,#667);
#665 = CARTESIAN_POINT('',(106.25,-89.12,-4.6E-02));
#666 = DIRECTION('',(0.,1.,0.));
#667 = DIRECTION('',(1.,0.,0.));
#668 = ADVANCED_FACE('',(#669),#680,.F.);
#669 = FACE_BOUND('',#670,.T.);
#670 = EDGE_LOOP('',(#671,#672,#678,#679));
#671 = ORIENTED_EDGE('',*,*,#235,.T.);
#672 = ORIENTED_EDGE('',*,*,#673,.T.);
#673 = EDGE_CURVE('',#236,#419,#674,.T.);
#674 = LINE('',#675,#676);
#675 = CARTESIAN_POINT('',(102.9,-81.935,-4.6E-02));
#676 = VECTOR('',#677,1.);
#677 = DIRECTION('',(0.,0.,1.));
#678 = ORIENTED_EDGE('',*,*,#418,.F.);
#679 = ORIENTED_EDGE('',*,*,#673,.F.);
#680 = CYLINDRICAL_SURFACE('',#681,0.325);
#681 = AXIS2_PLACEMENT_3D('',#682,#683,#684);
#682 = CARTESIAN_POINT('',(102.9,-81.61,-4.6E-02));
#683 = DIRECTION('',(-0.,-0.,-1.));
#684 = DIRECTION('',(-0.,-1.,0.));
#685 = ADVANCED_FACE('',(#686),#702,.F.);
#686 = FACE_BOUND('',#687,.T.);
#687 = EDGE_LOOP('',(#688,#689,#695,#696));
#688 = ORIENTED_EDGE('',*,*,#246,.T.);
#689 = ORIENTED_EDGE('',*,*,#690,.T.);
#690 = EDGE_CURVE('',#249,#432,#691,.T.);
#691 = LINE('',#692,#693);
#692 = CARTESIAN_POINT('',(102.92,-80.48,-4.6E-02));
#693 = VECTOR('',#694,1.);
#694 = DIRECTION('',(0.,0.,1.));
#695 = ORIENTED_EDGE('',*,*,#429,.F.);
#696 = ORIENTED_EDGE('',*,*,#697,.F.);
#697 = EDGE_CURVE('',#247,#430,#698,.T.);
#698 = LINE('',#699,#700);
#699 = CARTESIAN_POINT('',(102.92,-79.88,-4.6E-02));
#700 = VECTOR('',#701,1.);
#701 = DIRECTION('',(0.,0.,1.));
#702 = CYLINDRICAL_SURFACE('',#703,0.3);
#703 = AXIS2_PLACEMENT_3D('',#704,#705,#706);
#704 = CARTESIAN_POINT('',(102.92,-80.18,-4.6E-02));
#705 = DIRECTION('',(-0.,0.,-1.));
#706 = DIRECTION('',(4.736951571734E-14,-1.,-0.));
#707 = ADVANCED_FACE('',(#708),#719,.T.);
#708 = FACE_BOUND('',#709,.T.);
#709 = EDGE_LOOP('',(#710,#711,#712,#713));
#710 = ORIENTED_EDGE('',*,*,#274,.T.);
#711 = ORIENTED_EDGE('',*,*,#697,.T.);
#712 = ORIENTED_EDGE('',*,*,#457,.F.);
#713 = ORIENTED_EDGE('',*,*,#714,.F.);
#714 = EDGE_CURVE('',#266,#449,#715,.T.);
#715 = LINE('',#716,#717);
#716 = CARTESIAN_POINT('',(101.82,-79.88,-4.6E-02));
#717 = VECTOR('',#718,1.);
#718 = DIRECTION('',(0.,0.,1.));
#719 = PLANE('',#720);
#720 = AXIS2_PLACEMENT_3D('',#721,#722,#723);
#721 = CARTESIAN_POINT('',(102.92,-79.88,-4.6E-02));
#722 = DIRECTION('',(0.,-1.,0.));
#723 = DIRECTION('',(-1.,0.,0.));
#724 = ADVANCED_FACE('',(#725),#736,.F.);
#725 = FACE_BOUND('',#726,.T.);
#726 = EDGE_LOOP('',(#727,#728,#729,#730));
#727 = ORIENTED_EDGE('',*,*,#265,.T.);
#728 = ORIENTED_EDGE('',*,*,#714,.T.);
#729 = ORIENTED_EDGE('',*,*,#448,.F.);
#730 = ORIENTED_EDGE('',*,*,#731,.F.);
#731 = EDGE_CURVE('',#258,#441,#732,.T.);
#732 = LINE('',#733,#734);
#733 = CARTESIAN_POINT('',(101.82,-80.48,-4.6E-02));
#734 = VECTOR('',#735,1.);
#735 = DIRECTION('',(0.,0.,1.));
#736 = CYLINDRICAL_SURFACE('',#737,0.3);
#737 = AXIS2_PLACEMENT_3D('',#738,#739,#740);
#738 = CARTESIAN_POINT('',(101.82,-80.18,-4.6E-02));
#739 = DIRECTION('',(-0.,0.,-1.));
#740 = DIRECTION('',(0.,1.,0.));
#741 = ADVANCED_FACE('',(#742),#748,.T.);
#742 = FACE_BOUND('',#743,.T.);
#743 = EDGE_LOOP('',(#744,#745,#746,#747));
#744 = ORIENTED_EDGE('',*,*,#257,.T.);
#745 = ORIENTED_EDGE('',*,*,#731,.T.);
#746 = ORIENTED_EDGE('',*,*,#440,.F.);
#747 = ORIENTED_EDGE('',*,*,#690,.F.);
#748 = PLANE('',#749);
#749 = AXIS2_PLACEMENT_3D('',#750,#751,#752);
#750 = CARTESIAN_POINT('',(101.82,-80.48,-4.6E-02));
#751 = DIRECTION('',(0.,1.,0.));
#752 = DIRECTION('',(1.,0.,0.));
#753 = ADVANCED_FACE('',(#754),#770,.F.);
#754 = FACE_BOUND('',#755,.T.);
#755 = EDGE_LOOP('',(#756,#757,#763,#764));
#756 = ORIENTED_EDGE('',*,*,#282,.T.);
#757 = ORIENTED_EDGE('',*,*,#758,.T.);
#758 = EDGE_CURVE('',#285,#468,#759,.T.);
#759 = LINE('',#760,#761);
#760 = CARTESIAN_POINT('',(106.85,-80.48,-4.6E-02));
#761 = VECTOR('',#762,1.);
#762 = DIRECTION('',(0.,0.,1.));
#763 = ORIENTED_EDGE('',*,*,#465,.F.);
#764 = ORIENTED_EDGE('',*,*,#765,.F.);
#765 = EDGE_CURVE('',#283,#466,#766,.T.);
#766 = LINE('',#767,#768);
#767 = CARTESIAN_POINT('',(106.85,-79.88,-4.6E-02));
#768 = VECTOR('',#769,1.);
#769 = DIRECTION('',(0.,0.,1.));
#770 = CYLINDRICAL_SURFACE('',#771,0.3);
#771 = AXIS2_PLACEMENT_3D('',#772,#773,#774);
#772 = CARTESIAN_POINT('',(106.85,-80.18,-4.6E-02));
#773 = DIRECTION('',(-0.,-0.,-1.));
#774 = DIRECTION('',(-0.,-1.,0.));
#775 = ADVANCED_FACE('',(#776),#787,.T.);
#776 = FACE_BOUND('',#777,.T.);
#777 = EDGE_LOOP('',(#778,#779,#780,#781));
#778 = ORIENTED_EDGE('',*,*,#310,.T.);
#779 = ORIENTED_EDGE('',*,*,#765,.T.);
#780 = ORIENTED_EDGE('',*,*,#493,.F.);
#781 = ORIENTED_EDGE('',*,*,#782,.F.);
#782 = EDGE_CURVE('',#302,#485,#783,.T.);
#783 = LINE('',#784,#785);
#784 = CARTESIAN_POINT('',(106.25,-79.88,-4.6E-02));
#785 = VECTOR('',#786,1.);
#786 = DIRECTION('',(0.,0.,1.));
#787 = PLANE('',#788);
#788 = AXIS2_PLACEMENT_3D('',#789,#790,#791);
#789 = CARTESIAN_POINT('',(106.85,-79.88,-4.6E-02));
#790 = DIRECTION('',(0.,-1.,0.));
#791 = DIRECTION('',(-1.,0.,0.));
#792 = ADVANCED_FACE('',(#793),#804,.F.);
#793 = FACE_BOUND('',#794,.T.);
#794 = EDGE_LOOP('',(#795,#796,#797,#798));
#795 = ORIENTED_EDGE('',*,*,#301,.T.);
#796 = ORIENTED_EDGE('',*,*,#782,.T.);
#797 = ORIENTED_EDGE('',*,*,#484,.F.);
#798 = ORIENTED_EDGE('',*,*,#799,.F.);
#799 = EDGE_CURVE('',#294,#477,#800,.T.);
#800 = LINE('',#801,#802);
#801 = CARTESIAN_POINT('',(106.25,-80.48,-4.6E-02));
#802 = VECTOR('',#803,1.);
#803 = DIRECTION('',(0.,0.,1.));
#804 = CYLINDRICAL_SURFACE('',#805,0.3);
#805 = AXIS2_PLACEMENT_3D('',#806,#807,#808);
#806 = CARTESIAN_POINT('',(106.25,-80.18,-4.6E-02));
#807 = DIRECTION('',(-0.,0.,-1.));
#808 = DIRECTION('',(0.,1.,0.));
#809 = ADVANCED_FACE('',(#810),#816,.T.);
#810 = FACE_BOUND('',#811,.T.);
#811 = EDGE_LOOP('',(#812,#813,#814,#815));
#812 = ORIENTED_EDGE('',*,*,#293,.T.);
#813 = ORIENTED_EDGE('',*,*,#799,.T.);
#814 = ORIENTED_EDGE('',*,*,#476,.F.);
#815 = ORIENTED_EDGE('',*,*,#758,.F.);
#816 = PLANE('',#817);
#817 = AXIS2_PLACEMENT_3D('',#818,#819,#820);
#818 = CARTESIAN_POINT('',(106.25,-80.48,-4.6E-02));
#819 = DIRECTION('',(0.,1.,0.));
#820 = DIRECTION('',(1.,0.,0.));
#821 = ( GEOMETRIC_REPRESENTATION_CONTEXT(3) 
GLOBAL_UNCERTAINTY_ASSIGNED_CONTEXT((#825)) GLOBAL_UNIT_ASSIGNED_CONTEXT
((#822,#823,#824)) REPRESENTATION_CONTEXT('Context #1',
  '3D Context with UNIT and UNCERTAINTY') );
#822 = ( LENGTH_UNIT() NAMED_UNIT(*) SI_UNIT(.MILLI.,.METRE.) );
#823 = ( NAMED_UNIT(*) PLANE_ANGLE_UNIT() SI_UNIT($,.RADIAN.) );
#824 = ( NAMED_UNIT(*) SI_UNIT($,.STERADIAN.) SOLID_ANGLE_UNIT() );
#825 = UNCERTAINTY_MEASURE_WITH_UNIT(LENGTH_MEASURE(1.E-07),#822,
  'distance_accuracy_value','confusion accuracy');
#826 = CONTEXT_DEPENDENT_SHAPE_REPRESENTATION(#827,#829);
#827 = ( REPRESENTATION_RELATIONSHIP('','',#32,#10) 
REPRESENTATION_RELATIONSHIP_WITH_TRANSFORMATION(#828) 
SHAPE_REPRESENTATION_RELATIONSHIP() );
#828 = ITEM_DEFINED_TRANSFORMATION('','',#11,#15);
#829 = PRODUCT_DEFINITION_SHAPE('Placement','Placement of an item',#830
  );
#830 = NEXT_ASSEMBLY_USAGE_OCCURRENCE('1','=>[0:1:1:2]','',#5,#27,$);
#831 = PRODUCT_RELATED_PRODUCT_CATEGORY('part',$,(#29));
#832 = MECHANICAL_DESIGN_GEOMETRIC_PRESENTATION_REPRESENTATION('',(#833)
  ,#821);
#833 = STYLED_ITEM('color',(#834),#33);
#834 = PRESENTATION_STYLE_ASSIGNMENT((#835));
#835 = SURFACE_STYLE_USAGE(.BOTH.,#836);
#836 = SURFACE_SIDE_STYLE('',(#837));
#837 = SURFACE_STYLE_FILL_AREA(#838);
#838 = FILL_AREA_STYLE('',(#839));
#839 = FILL_AREA_STYLE_COLOUR('',#840);
#840 = COLOUR_RGB('',0.313304153717,0.484529207832,0.410020903123);
ENDSEC;
END-ISO-10303-21;
