%TF.GenerationSoftware,KiCad,Pcbnew,10.0.5*%
%TF.CreationDate,2026-08-25T17:32:42+02:00*%
%TF.ProjectId,env-sensor-a,656e762d-7365-46e7-936f-722d612e6b69,HW A1*%
%TF.SameCoordinates,Original*%
%TF.FileFunction,Drillmap*%
%TF.FilePolarity,Positive*%
%FSLAX45Y45*%
G04 Gerber Fmt 4.5, Leading zero omitted, Abs format (unit mm)*
G04 Created by KiCad (PCBNEW 10.0.5) date 2026-08-25 17:32:42*
%MOMM*%
%LPD*%
G01*
G04 APERTURE LIST*
%ADD10C,0.100000*%
%ADD11C,0.200000*%
G04 APERTURE END LIST*
D10*
X10000000Y-6000000D02*
X13000000Y-6000000D01*
X10000000Y-9400000D02*
X10000000Y-6000000D01*
X13000000Y-6000000D02*
X13000000Y-9400000D01*
X13000000Y-9400000D02*
X10000000Y-9400000D01*
D11*
D10*
X10235000Y-9235000D02*
X10265000Y-9265000D01*
X10265000Y-9235000D02*
X10235000Y-9265000D01*
X10485000Y-8235000D02*
X10515000Y-8265000D01*
X10515000Y-8235000D02*
X10485000Y-8265000D01*
X10485000Y-8485000D02*
X10515000Y-8515000D01*
X10515000Y-8485000D02*
X10485000Y-8515000D01*
X10485000Y-9235000D02*
X10515000Y-9265000D01*
X10515000Y-9235000D02*
X10485000Y-9265000D01*
X10985000Y-6985000D02*
X11015000Y-7015000D01*
X11015000Y-6985000D02*
X10985000Y-7015000D01*
X10985000Y-7235000D02*
X11015000Y-7265000D01*
X11015000Y-7235000D02*
X10985000Y-7265000D01*
X10985000Y-7485000D02*
X11015000Y-7515000D01*
X11015000Y-7485000D02*
X10985000Y-7515000D01*
X11985000Y-8735000D02*
X12015000Y-8765000D01*
X12015000Y-8735000D02*
X11985000Y-8765000D01*
X12235000Y-8735000D02*
X12265000Y-8765000D01*
X12265000Y-8735000D02*
X12235000Y-8765000D01*
X12325000Y-8995000D02*
X12355000Y-9025000D01*
X12355000Y-8995000D02*
X12325000Y-9025000D01*
X12475000Y-9075000D02*
X12505000Y-9105000D01*
X12505000Y-9075000D02*
X12475000Y-9105000D01*
X12485000Y-7735000D02*
X12515000Y-7765000D01*
X12515000Y-7735000D02*
X12485000Y-7765000D01*
X12485000Y-8485000D02*
X12515000Y-8515000D01*
X12515000Y-8485000D02*
X12485000Y-8515000D01*
X12735000Y-7735000D02*
X12765000Y-7765000D01*
X12765000Y-7735000D02*
X12735000Y-7765000D01*
X12735000Y-8485000D02*
X12765000Y-8515000D01*
X12765000Y-8485000D02*
X12735000Y-8515000D01*
X12735000Y-8985000D02*
X12765000Y-9015000D01*
X12765000Y-8985000D02*
X12735000Y-9015000D01*
X12735000Y-9235000D02*
X12765000Y-9265000D01*
X12765000Y-9235000D02*
X12735000Y-9265000D01*
X10267000Y-8018000D02*
G75*
G02*
X10207000Y-8018000I-30000J0D01*
G01*
X10207000Y-8018000D02*
G75*
G02*
X10267000Y-8018000I30000J0D01*
G01*
X10182000Y-8048000D02*
X10292000Y-8048000D01*
X10292000Y-7988000D02*
G75*
G02*
X10292000Y-8048000I0J-30000D01*
G01*
X10292000Y-7988000D02*
X10182000Y-7988000D01*
X10182000Y-7988000D02*
G75*
G03*
X10182000Y-8048000I0J-30000D01*
G01*
X10267000Y-8882000D02*
G75*
G02*
X10207000Y-8882000I-30000J0D01*
G01*
X10207000Y-8882000D02*
G75*
G02*
X10267000Y-8882000I30000J0D01*
G01*
X10182000Y-8912000D02*
X10292000Y-8912000D01*
X10292000Y-8852000D02*
G75*
G02*
X10292000Y-8912000I0J-30000D01*
G01*
X10292000Y-8852000D02*
X10182000Y-8852000D01*
X10182000Y-8852000D02*
G75*
G03*
X10182000Y-8912000I0J-30000D01*
G01*
X10685000Y-8018000D02*
G75*
G02*
X10625000Y-8018000I-30000J0D01*
G01*
X10625000Y-8018000D02*
G75*
G02*
X10685000Y-8018000I30000J0D01*
G01*
X10625000Y-8048000D02*
X10685000Y-8048000D01*
X10685000Y-7988000D02*
G75*
G02*
X10685000Y-8048000I0J-30000D01*
G01*
X10685000Y-7988000D02*
X10625000Y-7988000D01*
X10625000Y-7988000D02*
G75*
G03*
X10625000Y-8048000I0J-30000D01*
G01*
X10685000Y-8882000D02*
G75*
G02*
X10625000Y-8882000I-30000J0D01*
G01*
X10625000Y-8882000D02*
G75*
G02*
X10685000Y-8882000I30000J0D01*
G01*
X10625000Y-8912000D02*
X10685000Y-8912000D01*
X10685000Y-8852000D02*
G75*
G02*
X10685000Y-8912000I0J-30000D01*
G01*
X10685000Y-8852000D02*
X10625000Y-8852000D01*
X10625000Y-8852000D02*
G75*
G03*
X10625000Y-8912000I0J-30000D01*
G01*
X10290000Y-8128500D02*
X10290000Y-8193500D01*
X10257500Y-8161000D02*
X10322500Y-8161000D01*
X10290000Y-8706500D02*
X10290000Y-8771500D01*
X10257500Y-8739000D02*
X10322500Y-8739000D01*
D11*
X10255777Y-9716484D02*
X10255777Y-9516484D01*
X10255777Y-9516484D02*
X10303396Y-9516484D01*
X10303396Y-9516484D02*
X10331967Y-9526008D01*
X10331967Y-9526008D02*
X10351015Y-9545055D01*
X10351015Y-9545055D02*
X10360539Y-9564103D01*
X10360539Y-9564103D02*
X10370063Y-9602198D01*
X10370063Y-9602198D02*
X10370063Y-9630770D01*
X10370063Y-9630770D02*
X10360539Y-9668865D01*
X10360539Y-9668865D02*
X10351015Y-9687912D01*
X10351015Y-9687912D02*
X10331967Y-9706960D01*
X10331967Y-9706960D02*
X10303396Y-9716484D01*
X10303396Y-9716484D02*
X10255777Y-9716484D01*
X10455777Y-9716484D02*
X10455777Y-9583150D01*
X10455777Y-9621246D02*
X10465301Y-9602198D01*
X10465301Y-9602198D02*
X10474824Y-9592674D01*
X10474824Y-9592674D02*
X10493872Y-9583150D01*
X10493872Y-9583150D02*
X10512920Y-9583150D01*
X10579586Y-9716484D02*
X10579586Y-9583150D01*
X10579586Y-9516484D02*
X10570063Y-9526008D01*
X10570063Y-9526008D02*
X10579586Y-9535531D01*
X10579586Y-9535531D02*
X10589110Y-9526008D01*
X10589110Y-9526008D02*
X10579586Y-9516484D01*
X10579586Y-9516484D02*
X10579586Y-9535531D01*
X10703396Y-9716484D02*
X10684348Y-9706960D01*
X10684348Y-9706960D02*
X10674824Y-9687912D01*
X10674824Y-9687912D02*
X10674824Y-9516484D01*
X10808158Y-9716484D02*
X10789110Y-9706960D01*
X10789110Y-9706960D02*
X10779586Y-9687912D01*
X10779586Y-9687912D02*
X10779586Y-9516484D01*
X11036729Y-9716484D02*
X11036729Y-9516484D01*
X11036729Y-9516484D02*
X11103396Y-9659341D01*
X11103396Y-9659341D02*
X11170063Y-9516484D01*
X11170063Y-9516484D02*
X11170063Y-9716484D01*
X11351015Y-9716484D02*
X11351015Y-9611722D01*
X11351015Y-9611722D02*
X11341491Y-9592674D01*
X11341491Y-9592674D02*
X11322443Y-9583150D01*
X11322443Y-9583150D02*
X11284348Y-9583150D01*
X11284348Y-9583150D02*
X11265301Y-9592674D01*
X11351015Y-9706960D02*
X11331967Y-9716484D01*
X11331967Y-9716484D02*
X11284348Y-9716484D01*
X11284348Y-9716484D02*
X11265301Y-9706960D01*
X11265301Y-9706960D02*
X11255777Y-9687912D01*
X11255777Y-9687912D02*
X11255777Y-9668865D01*
X11255777Y-9668865D02*
X11265301Y-9649817D01*
X11265301Y-9649817D02*
X11284348Y-9640293D01*
X11284348Y-9640293D02*
X11331967Y-9640293D01*
X11331967Y-9640293D02*
X11351015Y-9630770D01*
X11446253Y-9583150D02*
X11446253Y-9783150D01*
X11446253Y-9592674D02*
X11465301Y-9583150D01*
X11465301Y-9583150D02*
X11503396Y-9583150D01*
X11503396Y-9583150D02*
X11522443Y-9592674D01*
X11522443Y-9592674D02*
X11531967Y-9602198D01*
X11531967Y-9602198D02*
X11541491Y-9621246D01*
X11541491Y-9621246D02*
X11541491Y-9678389D01*
X11541491Y-9678389D02*
X11531967Y-9697436D01*
X11531967Y-9697436D02*
X11522443Y-9706960D01*
X11522443Y-9706960D02*
X11503396Y-9716484D01*
X11503396Y-9716484D02*
X11465301Y-9716484D01*
X11465301Y-9716484D02*
X11446253Y-9706960D01*
X11627205Y-9697436D02*
X11636729Y-9706960D01*
X11636729Y-9706960D02*
X11627205Y-9716484D01*
X11627205Y-9716484D02*
X11617682Y-9706960D01*
X11617682Y-9706960D02*
X11627205Y-9697436D01*
X11627205Y-9697436D02*
X11627205Y-9716484D01*
X11627205Y-9592674D02*
X11636729Y-9602198D01*
X11636729Y-9602198D02*
X11627205Y-9611722D01*
X11627205Y-9611722D02*
X11617682Y-9602198D01*
X11617682Y-9602198D02*
X11627205Y-9592674D01*
X11627205Y-9592674D02*
X11627205Y-9611722D01*
D10*
X9965000Y-10030000D02*
X9995000Y-10060000D01*
X9995000Y-10030000D02*
X9965000Y-10060000D01*
D11*
X10293872Y-9936484D02*
X10312920Y-9936484D01*
X10312920Y-9936484D02*
X10331967Y-9946008D01*
X10331967Y-9946008D02*
X10341491Y-9955531D01*
X10341491Y-9955531D02*
X10351015Y-9974579D01*
X10351015Y-9974579D02*
X10360539Y-10012674D01*
X10360539Y-10012674D02*
X10360539Y-10060293D01*
X10360539Y-10060293D02*
X10351015Y-10098389D01*
X10351015Y-10098389D02*
X10341491Y-10117436D01*
X10341491Y-10117436D02*
X10331967Y-10126960D01*
X10331967Y-10126960D02*
X10312920Y-10136484D01*
X10312920Y-10136484D02*
X10293872Y-10136484D01*
X10293872Y-10136484D02*
X10274824Y-10126960D01*
X10274824Y-10126960D02*
X10265301Y-10117436D01*
X10265301Y-10117436D02*
X10255777Y-10098389D01*
X10255777Y-10098389D02*
X10246253Y-10060293D01*
X10246253Y-10060293D02*
X10246253Y-10012674D01*
X10246253Y-10012674D02*
X10255777Y-9974579D01*
X10255777Y-9974579D02*
X10265301Y-9955531D01*
X10265301Y-9955531D02*
X10274824Y-9946008D01*
X10274824Y-9946008D02*
X10293872Y-9936484D01*
X10446253Y-10117436D02*
X10455777Y-10126960D01*
X10455777Y-10126960D02*
X10446253Y-10136484D01*
X10446253Y-10136484D02*
X10436729Y-10126960D01*
X10436729Y-10126960D02*
X10446253Y-10117436D01*
X10446253Y-10117436D02*
X10446253Y-10136484D01*
X10522444Y-9936484D02*
X10646253Y-9936484D01*
X10646253Y-9936484D02*
X10579586Y-10012674D01*
X10579586Y-10012674D02*
X10608158Y-10012674D01*
X10608158Y-10012674D02*
X10627205Y-10022198D01*
X10627205Y-10022198D02*
X10636729Y-10031722D01*
X10636729Y-10031722D02*
X10646253Y-10050770D01*
X10646253Y-10050770D02*
X10646253Y-10098389D01*
X10646253Y-10098389D02*
X10636729Y-10117436D01*
X10636729Y-10117436D02*
X10627205Y-10126960D01*
X10627205Y-10126960D02*
X10608158Y-10136484D01*
X10608158Y-10136484D02*
X10551015Y-10136484D01*
X10551015Y-10136484D02*
X10531967Y-10126960D01*
X10531967Y-10126960D02*
X10522444Y-10117436D01*
X10770063Y-9936484D02*
X10789110Y-9936484D01*
X10789110Y-9936484D02*
X10808158Y-9946008D01*
X10808158Y-9946008D02*
X10817682Y-9955531D01*
X10817682Y-9955531D02*
X10827205Y-9974579D01*
X10827205Y-9974579D02*
X10836729Y-10012674D01*
X10836729Y-10012674D02*
X10836729Y-10060293D01*
X10836729Y-10060293D02*
X10827205Y-10098389D01*
X10827205Y-10098389D02*
X10817682Y-10117436D01*
X10817682Y-10117436D02*
X10808158Y-10126960D01*
X10808158Y-10126960D02*
X10789110Y-10136484D01*
X10789110Y-10136484D02*
X10770063Y-10136484D01*
X10770063Y-10136484D02*
X10751015Y-10126960D01*
X10751015Y-10126960D02*
X10741491Y-10117436D01*
X10741491Y-10117436D02*
X10731967Y-10098389D01*
X10731967Y-10098389D02*
X10722444Y-10060293D01*
X10722444Y-10060293D02*
X10722444Y-10012674D01*
X10722444Y-10012674D02*
X10731967Y-9974579D01*
X10731967Y-9974579D02*
X10741491Y-9955531D01*
X10741491Y-9955531D02*
X10751015Y-9946008D01*
X10751015Y-9946008D02*
X10770063Y-9936484D01*
X10960539Y-9936484D02*
X10979586Y-9936484D01*
X10979586Y-9936484D02*
X10998634Y-9946008D01*
X10998634Y-9946008D02*
X11008158Y-9955531D01*
X11008158Y-9955531D02*
X11017682Y-9974579D01*
X11017682Y-9974579D02*
X11027205Y-10012674D01*
X11027205Y-10012674D02*
X11027205Y-10060293D01*
X11027205Y-10060293D02*
X11017682Y-10098389D01*
X11017682Y-10098389D02*
X11008158Y-10117436D01*
X11008158Y-10117436D02*
X10998634Y-10126960D01*
X10998634Y-10126960D02*
X10979586Y-10136484D01*
X10979586Y-10136484D02*
X10960539Y-10136484D01*
X10960539Y-10136484D02*
X10941491Y-10126960D01*
X10941491Y-10126960D02*
X10931967Y-10117436D01*
X10931967Y-10117436D02*
X10922444Y-10098389D01*
X10922444Y-10098389D02*
X10912920Y-10060293D01*
X10912920Y-10060293D02*
X10912920Y-10012674D01*
X10912920Y-10012674D02*
X10922444Y-9974579D01*
X10922444Y-9974579D02*
X10931967Y-9955531D01*
X10931967Y-9955531D02*
X10941491Y-9946008D01*
X10941491Y-9946008D02*
X10960539Y-9936484D01*
X11112920Y-10136484D02*
X11112920Y-10003150D01*
X11112920Y-10022198D02*
X11122444Y-10012674D01*
X11122444Y-10012674D02*
X11141491Y-10003150D01*
X11141491Y-10003150D02*
X11170063Y-10003150D01*
X11170063Y-10003150D02*
X11189110Y-10012674D01*
X11189110Y-10012674D02*
X11198634Y-10031722D01*
X11198634Y-10031722D02*
X11198634Y-10136484D01*
X11198634Y-10031722D02*
X11208158Y-10012674D01*
X11208158Y-10012674D02*
X11227205Y-10003150D01*
X11227205Y-10003150D02*
X11255777Y-10003150D01*
X11255777Y-10003150D02*
X11274824Y-10012674D01*
X11274824Y-10012674D02*
X11284348Y-10031722D01*
X11284348Y-10031722D02*
X11284348Y-10136484D01*
X11379586Y-10136484D02*
X11379586Y-10003150D01*
X11379586Y-10022198D02*
X11389110Y-10012674D01*
X11389110Y-10012674D02*
X11408158Y-10003150D01*
X11408158Y-10003150D02*
X11436729Y-10003150D01*
X11436729Y-10003150D02*
X11455777Y-10012674D01*
X11455777Y-10012674D02*
X11465301Y-10031722D01*
X11465301Y-10031722D02*
X11465301Y-10136484D01*
X11465301Y-10031722D02*
X11474824Y-10012674D01*
X11474824Y-10012674D02*
X11493872Y-10003150D01*
X11493872Y-10003150D02*
X11522443Y-10003150D01*
X11522443Y-10003150D02*
X11541491Y-10012674D01*
X11541491Y-10012674D02*
X11551015Y-10031722D01*
X11551015Y-10031722D02*
X11551015Y-10136484D01*
X11941491Y-9926960D02*
X11770063Y-10184103D01*
X12198634Y-9936484D02*
X12217682Y-9936484D01*
X12217682Y-9936484D02*
X12236729Y-9946008D01*
X12236729Y-9946008D02*
X12246253Y-9955531D01*
X12246253Y-9955531D02*
X12255777Y-9974579D01*
X12255777Y-9974579D02*
X12265301Y-10012674D01*
X12265301Y-10012674D02*
X12265301Y-10060293D01*
X12265301Y-10060293D02*
X12255777Y-10098389D01*
X12255777Y-10098389D02*
X12246253Y-10117436D01*
X12246253Y-10117436D02*
X12236729Y-10126960D01*
X12236729Y-10126960D02*
X12217682Y-10136484D01*
X12217682Y-10136484D02*
X12198634Y-10136484D01*
X12198634Y-10136484D02*
X12179586Y-10126960D01*
X12179586Y-10126960D02*
X12170063Y-10117436D01*
X12170063Y-10117436D02*
X12160539Y-10098389D01*
X12160539Y-10098389D02*
X12151015Y-10060293D01*
X12151015Y-10060293D02*
X12151015Y-10012674D01*
X12151015Y-10012674D02*
X12160539Y-9974579D01*
X12160539Y-9974579D02*
X12170063Y-9955531D01*
X12170063Y-9955531D02*
X12179586Y-9946008D01*
X12179586Y-9946008D02*
X12198634Y-9936484D01*
X12351015Y-10117436D02*
X12360539Y-10126960D01*
X12360539Y-10126960D02*
X12351015Y-10136484D01*
X12351015Y-10136484D02*
X12341491Y-10126960D01*
X12341491Y-10126960D02*
X12351015Y-10117436D01*
X12351015Y-10117436D02*
X12351015Y-10136484D01*
X12484348Y-9936484D02*
X12503396Y-9936484D01*
X12503396Y-9936484D02*
X12522444Y-9946008D01*
X12522444Y-9946008D02*
X12531967Y-9955531D01*
X12531967Y-9955531D02*
X12541491Y-9974579D01*
X12541491Y-9974579D02*
X12551015Y-10012674D01*
X12551015Y-10012674D02*
X12551015Y-10060293D01*
X12551015Y-10060293D02*
X12541491Y-10098389D01*
X12541491Y-10098389D02*
X12531967Y-10117436D01*
X12531967Y-10117436D02*
X12522444Y-10126960D01*
X12522444Y-10126960D02*
X12503396Y-10136484D01*
X12503396Y-10136484D02*
X12484348Y-10136484D01*
X12484348Y-10136484D02*
X12465301Y-10126960D01*
X12465301Y-10126960D02*
X12455777Y-10117436D01*
X12455777Y-10117436D02*
X12446253Y-10098389D01*
X12446253Y-10098389D02*
X12436729Y-10060293D01*
X12436729Y-10060293D02*
X12436729Y-10012674D01*
X12436729Y-10012674D02*
X12446253Y-9974579D01*
X12446253Y-9974579D02*
X12455777Y-9955531D01*
X12455777Y-9955531D02*
X12465301Y-9946008D01*
X12465301Y-9946008D02*
X12484348Y-9936484D01*
X12741491Y-10136484D02*
X12627206Y-10136484D01*
X12684348Y-10136484D02*
X12684348Y-9936484D01*
X12684348Y-9936484D02*
X12665301Y-9965055D01*
X12665301Y-9965055D02*
X12646253Y-9984103D01*
X12646253Y-9984103D02*
X12627206Y-9993627D01*
X12931967Y-10136484D02*
X12817682Y-10136484D01*
X12874825Y-10136484D02*
X12874825Y-9936484D01*
X12874825Y-9936484D02*
X12855777Y-9965055D01*
X12855777Y-9965055D02*
X12836729Y-9984103D01*
X12836729Y-9984103D02*
X12817682Y-9993627D01*
X13046253Y-10022198D02*
X13027206Y-10012674D01*
X13027206Y-10012674D02*
X13017682Y-10003150D01*
X13017682Y-10003150D02*
X13008158Y-9984103D01*
X13008158Y-9984103D02*
X13008158Y-9974579D01*
X13008158Y-9974579D02*
X13017682Y-9955531D01*
X13017682Y-9955531D02*
X13027206Y-9946008D01*
X13027206Y-9946008D02*
X13046253Y-9936484D01*
X13046253Y-9936484D02*
X13084348Y-9936484D01*
X13084348Y-9936484D02*
X13103396Y-9946008D01*
X13103396Y-9946008D02*
X13112920Y-9955531D01*
X13112920Y-9955531D02*
X13122444Y-9974579D01*
X13122444Y-9974579D02*
X13122444Y-9984103D01*
X13122444Y-9984103D02*
X13112920Y-10003150D01*
X13112920Y-10003150D02*
X13103396Y-10012674D01*
X13103396Y-10012674D02*
X13084348Y-10022198D01*
X13084348Y-10022198D02*
X13046253Y-10022198D01*
X13046253Y-10022198D02*
X13027206Y-10031722D01*
X13027206Y-10031722D02*
X13017682Y-10041246D01*
X13017682Y-10041246D02*
X13008158Y-10060293D01*
X13008158Y-10060293D02*
X13008158Y-10098389D01*
X13008158Y-10098389D02*
X13017682Y-10117436D01*
X13017682Y-10117436D02*
X13027206Y-10126960D01*
X13027206Y-10126960D02*
X13046253Y-10136484D01*
X13046253Y-10136484D02*
X13084348Y-10136484D01*
X13084348Y-10136484D02*
X13103396Y-10126960D01*
X13103396Y-10126960D02*
X13112920Y-10117436D01*
X13112920Y-10117436D02*
X13122444Y-10098389D01*
X13122444Y-10098389D02*
X13122444Y-10060293D01*
X13122444Y-10060293D02*
X13112920Y-10041246D01*
X13112920Y-10041246D02*
X13103396Y-10031722D01*
X13103396Y-10031722D02*
X13084348Y-10022198D01*
X13198634Y-9936484D02*
X13198634Y-9974579D01*
X13274825Y-9936484D02*
X13274825Y-9974579D01*
X13570063Y-10212674D02*
X13560539Y-10203150D01*
X13560539Y-10203150D02*
X13541491Y-10174579D01*
X13541491Y-10174579D02*
X13531968Y-10155531D01*
X13531968Y-10155531D02*
X13522444Y-10126960D01*
X13522444Y-10126960D02*
X13512920Y-10079341D01*
X13512920Y-10079341D02*
X13512920Y-10041246D01*
X13512920Y-10041246D02*
X13522444Y-9993627D01*
X13522444Y-9993627D02*
X13531968Y-9965055D01*
X13531968Y-9965055D02*
X13541491Y-9946008D01*
X13541491Y-9946008D02*
X13560539Y-9917436D01*
X13560539Y-9917436D02*
X13570063Y-9907912D01*
X13751015Y-10136484D02*
X13636729Y-10136484D01*
X13693872Y-10136484D02*
X13693872Y-9936484D01*
X13693872Y-9936484D02*
X13674825Y-9965055D01*
X13674825Y-9965055D02*
X13655777Y-9984103D01*
X13655777Y-9984103D02*
X13636729Y-9993627D01*
X13817682Y-9936484D02*
X13951015Y-9936484D01*
X13951015Y-9936484D02*
X13865301Y-10136484D01*
X14179587Y-10136484D02*
X14179587Y-9936484D01*
X14265301Y-10136484D02*
X14265301Y-10031722D01*
X14265301Y-10031722D02*
X14255777Y-10012674D01*
X14255777Y-10012674D02*
X14236730Y-10003150D01*
X14236730Y-10003150D02*
X14208158Y-10003150D01*
X14208158Y-10003150D02*
X14189110Y-10012674D01*
X14189110Y-10012674D02*
X14179587Y-10022198D01*
X14389110Y-10136484D02*
X14370063Y-10126960D01*
X14370063Y-10126960D02*
X14360539Y-10117436D01*
X14360539Y-10117436D02*
X14351015Y-10098389D01*
X14351015Y-10098389D02*
X14351015Y-10041246D01*
X14351015Y-10041246D02*
X14360539Y-10022198D01*
X14360539Y-10022198D02*
X14370063Y-10012674D01*
X14370063Y-10012674D02*
X14389110Y-10003150D01*
X14389110Y-10003150D02*
X14417682Y-10003150D01*
X14417682Y-10003150D02*
X14436730Y-10012674D01*
X14436730Y-10012674D02*
X14446253Y-10022198D01*
X14446253Y-10022198D02*
X14455777Y-10041246D01*
X14455777Y-10041246D02*
X14455777Y-10098389D01*
X14455777Y-10098389D02*
X14446253Y-10117436D01*
X14446253Y-10117436D02*
X14436730Y-10126960D01*
X14436730Y-10126960D02*
X14417682Y-10136484D01*
X14417682Y-10136484D02*
X14389110Y-10136484D01*
X14570063Y-10136484D02*
X14551015Y-10126960D01*
X14551015Y-10126960D02*
X14541491Y-10107912D01*
X14541491Y-10107912D02*
X14541491Y-9936484D01*
X14722444Y-10126960D02*
X14703396Y-10136484D01*
X14703396Y-10136484D02*
X14665301Y-10136484D01*
X14665301Y-10136484D02*
X14646253Y-10126960D01*
X14646253Y-10126960D02*
X14636730Y-10107912D01*
X14636730Y-10107912D02*
X14636730Y-10031722D01*
X14636730Y-10031722D02*
X14646253Y-10012674D01*
X14646253Y-10012674D02*
X14665301Y-10003150D01*
X14665301Y-10003150D02*
X14703396Y-10003150D01*
X14703396Y-10003150D02*
X14722444Y-10012674D01*
X14722444Y-10012674D02*
X14731968Y-10031722D01*
X14731968Y-10031722D02*
X14731968Y-10050770D01*
X14731968Y-10050770D02*
X14636730Y-10069817D01*
X14808158Y-10126960D02*
X14827206Y-10136484D01*
X14827206Y-10136484D02*
X14865301Y-10136484D01*
X14865301Y-10136484D02*
X14884349Y-10126960D01*
X14884349Y-10126960D02*
X14893872Y-10107912D01*
X14893872Y-10107912D02*
X14893872Y-10098389D01*
X14893872Y-10098389D02*
X14884349Y-10079341D01*
X14884349Y-10079341D02*
X14865301Y-10069817D01*
X14865301Y-10069817D02*
X14836730Y-10069817D01*
X14836730Y-10069817D02*
X14817682Y-10060293D01*
X14817682Y-10060293D02*
X14808158Y-10041246D01*
X14808158Y-10041246D02*
X14808158Y-10031722D01*
X14808158Y-10031722D02*
X14817682Y-10012674D01*
X14817682Y-10012674D02*
X14836730Y-10003150D01*
X14836730Y-10003150D02*
X14865301Y-10003150D01*
X14865301Y-10003150D02*
X14884349Y-10012674D01*
X14960539Y-10212674D02*
X14970063Y-10203150D01*
X14970063Y-10203150D02*
X14989111Y-10174579D01*
X14989111Y-10174579D02*
X14998634Y-10155531D01*
X14998634Y-10155531D02*
X15008158Y-10126960D01*
X15008158Y-10126960D02*
X15017682Y-10079341D01*
X15017682Y-10079341D02*
X15017682Y-10041246D01*
X15017682Y-10041246D02*
X15008158Y-9993627D01*
X15008158Y-9993627D02*
X14998634Y-9965055D01*
X14998634Y-9965055D02*
X14989111Y-9946008D01*
X14989111Y-9946008D02*
X14970063Y-9917436D01*
X14970063Y-9917436D02*
X14960539Y-9907912D01*
D10*
X9995000Y-10309000D02*
G75*
G02*
X9935000Y-10309000I-30000J0D01*
G01*
X9935000Y-10309000D02*
G75*
G02*
X9995000Y-10309000I30000J0D01*
G01*
D11*
X10293872Y-10200484D02*
X10312920Y-10200484D01*
X10312920Y-10200484D02*
X10331967Y-10210008D01*
X10331967Y-10210008D02*
X10341491Y-10219531D01*
X10341491Y-10219531D02*
X10351015Y-10238579D01*
X10351015Y-10238579D02*
X10360539Y-10276674D01*
X10360539Y-10276674D02*
X10360539Y-10324293D01*
X10360539Y-10324293D02*
X10351015Y-10362389D01*
X10351015Y-10362389D02*
X10341491Y-10381436D01*
X10341491Y-10381436D02*
X10331967Y-10390960D01*
X10331967Y-10390960D02*
X10312920Y-10400484D01*
X10312920Y-10400484D02*
X10293872Y-10400484D01*
X10293872Y-10400484D02*
X10274824Y-10390960D01*
X10274824Y-10390960D02*
X10265301Y-10381436D01*
X10265301Y-10381436D02*
X10255777Y-10362389D01*
X10255777Y-10362389D02*
X10246253Y-10324293D01*
X10246253Y-10324293D02*
X10246253Y-10276674D01*
X10246253Y-10276674D02*
X10255777Y-10238579D01*
X10255777Y-10238579D02*
X10265301Y-10219531D01*
X10265301Y-10219531D02*
X10274824Y-10210008D01*
X10274824Y-10210008D02*
X10293872Y-10200484D01*
X10446253Y-10381436D02*
X10455777Y-10390960D01*
X10455777Y-10390960D02*
X10446253Y-10400484D01*
X10446253Y-10400484D02*
X10436729Y-10390960D01*
X10436729Y-10390960D02*
X10446253Y-10381436D01*
X10446253Y-10381436D02*
X10446253Y-10400484D01*
X10627205Y-10200484D02*
X10589110Y-10200484D01*
X10589110Y-10200484D02*
X10570063Y-10210008D01*
X10570063Y-10210008D02*
X10560539Y-10219531D01*
X10560539Y-10219531D02*
X10541491Y-10248103D01*
X10541491Y-10248103D02*
X10531967Y-10286198D01*
X10531967Y-10286198D02*
X10531967Y-10362389D01*
X10531967Y-10362389D02*
X10541491Y-10381436D01*
X10541491Y-10381436D02*
X10551015Y-10390960D01*
X10551015Y-10390960D02*
X10570063Y-10400484D01*
X10570063Y-10400484D02*
X10608158Y-10400484D01*
X10608158Y-10400484D02*
X10627205Y-10390960D01*
X10627205Y-10390960D02*
X10636729Y-10381436D01*
X10636729Y-10381436D02*
X10646253Y-10362389D01*
X10646253Y-10362389D02*
X10646253Y-10314770D01*
X10646253Y-10314770D02*
X10636729Y-10295722D01*
X10636729Y-10295722D02*
X10627205Y-10286198D01*
X10627205Y-10286198D02*
X10608158Y-10276674D01*
X10608158Y-10276674D02*
X10570063Y-10276674D01*
X10570063Y-10276674D02*
X10551015Y-10286198D01*
X10551015Y-10286198D02*
X10541491Y-10295722D01*
X10541491Y-10295722D02*
X10531967Y-10314770D01*
X10770063Y-10200484D02*
X10789110Y-10200484D01*
X10789110Y-10200484D02*
X10808158Y-10210008D01*
X10808158Y-10210008D02*
X10817682Y-10219531D01*
X10817682Y-10219531D02*
X10827205Y-10238579D01*
X10827205Y-10238579D02*
X10836729Y-10276674D01*
X10836729Y-10276674D02*
X10836729Y-10324293D01*
X10836729Y-10324293D02*
X10827205Y-10362389D01*
X10827205Y-10362389D02*
X10817682Y-10381436D01*
X10817682Y-10381436D02*
X10808158Y-10390960D01*
X10808158Y-10390960D02*
X10789110Y-10400484D01*
X10789110Y-10400484D02*
X10770063Y-10400484D01*
X10770063Y-10400484D02*
X10751015Y-10390960D01*
X10751015Y-10390960D02*
X10741491Y-10381436D01*
X10741491Y-10381436D02*
X10731967Y-10362389D01*
X10731967Y-10362389D02*
X10722444Y-10324293D01*
X10722444Y-10324293D02*
X10722444Y-10276674D01*
X10722444Y-10276674D02*
X10731967Y-10238579D01*
X10731967Y-10238579D02*
X10741491Y-10219531D01*
X10741491Y-10219531D02*
X10751015Y-10210008D01*
X10751015Y-10210008D02*
X10770063Y-10200484D01*
X10960539Y-10200484D02*
X10979586Y-10200484D01*
X10979586Y-10200484D02*
X10998634Y-10210008D01*
X10998634Y-10210008D02*
X11008158Y-10219531D01*
X11008158Y-10219531D02*
X11017682Y-10238579D01*
X11017682Y-10238579D02*
X11027205Y-10276674D01*
X11027205Y-10276674D02*
X11027205Y-10324293D01*
X11027205Y-10324293D02*
X11017682Y-10362389D01*
X11017682Y-10362389D02*
X11008158Y-10381436D01*
X11008158Y-10381436D02*
X10998634Y-10390960D01*
X10998634Y-10390960D02*
X10979586Y-10400484D01*
X10979586Y-10400484D02*
X10960539Y-10400484D01*
X10960539Y-10400484D02*
X10941491Y-10390960D01*
X10941491Y-10390960D02*
X10931967Y-10381436D01*
X10931967Y-10381436D02*
X10922444Y-10362389D01*
X10922444Y-10362389D02*
X10912920Y-10324293D01*
X10912920Y-10324293D02*
X10912920Y-10276674D01*
X10912920Y-10276674D02*
X10922444Y-10238579D01*
X10922444Y-10238579D02*
X10931967Y-10219531D01*
X10931967Y-10219531D02*
X10941491Y-10210008D01*
X10941491Y-10210008D02*
X10960539Y-10200484D01*
X11112920Y-10400484D02*
X11112920Y-10267150D01*
X11112920Y-10286198D02*
X11122444Y-10276674D01*
X11122444Y-10276674D02*
X11141491Y-10267150D01*
X11141491Y-10267150D02*
X11170063Y-10267150D01*
X11170063Y-10267150D02*
X11189110Y-10276674D01*
X11189110Y-10276674D02*
X11198634Y-10295722D01*
X11198634Y-10295722D02*
X11198634Y-10400484D01*
X11198634Y-10295722D02*
X11208158Y-10276674D01*
X11208158Y-10276674D02*
X11227205Y-10267150D01*
X11227205Y-10267150D02*
X11255777Y-10267150D01*
X11255777Y-10267150D02*
X11274824Y-10276674D01*
X11274824Y-10276674D02*
X11284348Y-10295722D01*
X11284348Y-10295722D02*
X11284348Y-10400484D01*
X11379586Y-10400484D02*
X11379586Y-10267150D01*
X11379586Y-10286198D02*
X11389110Y-10276674D01*
X11389110Y-10276674D02*
X11408158Y-10267150D01*
X11408158Y-10267150D02*
X11436729Y-10267150D01*
X11436729Y-10267150D02*
X11455777Y-10276674D01*
X11455777Y-10276674D02*
X11465301Y-10295722D01*
X11465301Y-10295722D02*
X11465301Y-10400484D01*
X11465301Y-10295722D02*
X11474824Y-10276674D01*
X11474824Y-10276674D02*
X11493872Y-10267150D01*
X11493872Y-10267150D02*
X11522443Y-10267150D01*
X11522443Y-10267150D02*
X11541491Y-10276674D01*
X11541491Y-10276674D02*
X11551015Y-10295722D01*
X11551015Y-10295722D02*
X11551015Y-10400484D01*
X11941491Y-10190960D02*
X11770063Y-10448103D01*
X12198634Y-10200484D02*
X12217682Y-10200484D01*
X12217682Y-10200484D02*
X12236729Y-10210008D01*
X12236729Y-10210008D02*
X12246253Y-10219531D01*
X12246253Y-10219531D02*
X12255777Y-10238579D01*
X12255777Y-10238579D02*
X12265301Y-10276674D01*
X12265301Y-10276674D02*
X12265301Y-10324293D01*
X12265301Y-10324293D02*
X12255777Y-10362389D01*
X12255777Y-10362389D02*
X12246253Y-10381436D01*
X12246253Y-10381436D02*
X12236729Y-10390960D01*
X12236729Y-10390960D02*
X12217682Y-10400484D01*
X12217682Y-10400484D02*
X12198634Y-10400484D01*
X12198634Y-10400484D02*
X12179586Y-10390960D01*
X12179586Y-10390960D02*
X12170063Y-10381436D01*
X12170063Y-10381436D02*
X12160539Y-10362389D01*
X12160539Y-10362389D02*
X12151015Y-10324293D01*
X12151015Y-10324293D02*
X12151015Y-10276674D01*
X12151015Y-10276674D02*
X12160539Y-10238579D01*
X12160539Y-10238579D02*
X12170063Y-10219531D01*
X12170063Y-10219531D02*
X12179586Y-10210008D01*
X12179586Y-10210008D02*
X12198634Y-10200484D01*
X12351015Y-10381436D02*
X12360539Y-10390960D01*
X12360539Y-10390960D02*
X12351015Y-10400484D01*
X12351015Y-10400484D02*
X12341491Y-10390960D01*
X12341491Y-10390960D02*
X12351015Y-10381436D01*
X12351015Y-10381436D02*
X12351015Y-10400484D01*
X12484348Y-10200484D02*
X12503396Y-10200484D01*
X12503396Y-10200484D02*
X12522444Y-10210008D01*
X12522444Y-10210008D02*
X12531967Y-10219531D01*
X12531967Y-10219531D02*
X12541491Y-10238579D01*
X12541491Y-10238579D02*
X12551015Y-10276674D01*
X12551015Y-10276674D02*
X12551015Y-10324293D01*
X12551015Y-10324293D02*
X12541491Y-10362389D01*
X12541491Y-10362389D02*
X12531967Y-10381436D01*
X12531967Y-10381436D02*
X12522444Y-10390960D01*
X12522444Y-10390960D02*
X12503396Y-10400484D01*
X12503396Y-10400484D02*
X12484348Y-10400484D01*
X12484348Y-10400484D02*
X12465301Y-10390960D01*
X12465301Y-10390960D02*
X12455777Y-10381436D01*
X12455777Y-10381436D02*
X12446253Y-10362389D01*
X12446253Y-10362389D02*
X12436729Y-10324293D01*
X12436729Y-10324293D02*
X12436729Y-10276674D01*
X12436729Y-10276674D02*
X12446253Y-10238579D01*
X12446253Y-10238579D02*
X12455777Y-10219531D01*
X12455777Y-10219531D02*
X12465301Y-10210008D01*
X12465301Y-10210008D02*
X12484348Y-10200484D01*
X12627206Y-10219531D02*
X12636729Y-10210008D01*
X12636729Y-10210008D02*
X12655777Y-10200484D01*
X12655777Y-10200484D02*
X12703396Y-10200484D01*
X12703396Y-10200484D02*
X12722444Y-10210008D01*
X12722444Y-10210008D02*
X12731967Y-10219531D01*
X12731967Y-10219531D02*
X12741491Y-10238579D01*
X12741491Y-10238579D02*
X12741491Y-10257627D01*
X12741491Y-10257627D02*
X12731967Y-10286198D01*
X12731967Y-10286198D02*
X12617682Y-10400484D01*
X12617682Y-10400484D02*
X12741491Y-10400484D01*
X12808158Y-10200484D02*
X12931967Y-10200484D01*
X12931967Y-10200484D02*
X12865301Y-10276674D01*
X12865301Y-10276674D02*
X12893872Y-10276674D01*
X12893872Y-10276674D02*
X12912920Y-10286198D01*
X12912920Y-10286198D02*
X12922444Y-10295722D01*
X12922444Y-10295722D02*
X12931967Y-10314770D01*
X12931967Y-10314770D02*
X12931967Y-10362389D01*
X12931967Y-10362389D02*
X12922444Y-10381436D01*
X12922444Y-10381436D02*
X12912920Y-10390960D01*
X12912920Y-10390960D02*
X12893872Y-10400484D01*
X12893872Y-10400484D02*
X12836729Y-10400484D01*
X12836729Y-10400484D02*
X12817682Y-10390960D01*
X12817682Y-10390960D02*
X12808158Y-10381436D01*
X13103396Y-10200484D02*
X13065301Y-10200484D01*
X13065301Y-10200484D02*
X13046253Y-10210008D01*
X13046253Y-10210008D02*
X13036729Y-10219531D01*
X13036729Y-10219531D02*
X13017682Y-10248103D01*
X13017682Y-10248103D02*
X13008158Y-10286198D01*
X13008158Y-10286198D02*
X13008158Y-10362389D01*
X13008158Y-10362389D02*
X13017682Y-10381436D01*
X13017682Y-10381436D02*
X13027206Y-10390960D01*
X13027206Y-10390960D02*
X13046253Y-10400484D01*
X13046253Y-10400484D02*
X13084348Y-10400484D01*
X13084348Y-10400484D02*
X13103396Y-10390960D01*
X13103396Y-10390960D02*
X13112920Y-10381436D01*
X13112920Y-10381436D02*
X13122444Y-10362389D01*
X13122444Y-10362389D02*
X13122444Y-10314770D01*
X13122444Y-10314770D02*
X13112920Y-10295722D01*
X13112920Y-10295722D02*
X13103396Y-10286198D01*
X13103396Y-10286198D02*
X13084348Y-10276674D01*
X13084348Y-10276674D02*
X13046253Y-10276674D01*
X13046253Y-10276674D02*
X13027206Y-10286198D01*
X13027206Y-10286198D02*
X13017682Y-10295722D01*
X13017682Y-10295722D02*
X13008158Y-10314770D01*
X13198634Y-10200484D02*
X13198634Y-10238579D01*
X13274825Y-10200484D02*
X13274825Y-10238579D01*
X13570063Y-10476674D02*
X13560539Y-10467150D01*
X13560539Y-10467150D02*
X13541491Y-10438579D01*
X13541491Y-10438579D02*
X13531968Y-10419531D01*
X13531968Y-10419531D02*
X13522444Y-10390960D01*
X13522444Y-10390960D02*
X13512920Y-10343341D01*
X13512920Y-10343341D02*
X13512920Y-10305246D01*
X13512920Y-10305246D02*
X13522444Y-10257627D01*
X13522444Y-10257627D02*
X13531968Y-10229055D01*
X13531968Y-10229055D02*
X13541491Y-10210008D01*
X13541491Y-10210008D02*
X13560539Y-10181436D01*
X13560539Y-10181436D02*
X13570063Y-10171912D01*
X13684348Y-10200484D02*
X13703396Y-10200484D01*
X13703396Y-10200484D02*
X13722444Y-10210008D01*
X13722444Y-10210008D02*
X13731968Y-10219531D01*
X13731968Y-10219531D02*
X13741491Y-10238579D01*
X13741491Y-10238579D02*
X13751015Y-10276674D01*
X13751015Y-10276674D02*
X13751015Y-10324293D01*
X13751015Y-10324293D02*
X13741491Y-10362389D01*
X13741491Y-10362389D02*
X13731968Y-10381436D01*
X13731968Y-10381436D02*
X13722444Y-10390960D01*
X13722444Y-10390960D02*
X13703396Y-10400484D01*
X13703396Y-10400484D02*
X13684348Y-10400484D01*
X13684348Y-10400484D02*
X13665301Y-10390960D01*
X13665301Y-10390960D02*
X13655777Y-10381436D01*
X13655777Y-10381436D02*
X13646253Y-10362389D01*
X13646253Y-10362389D02*
X13636729Y-10324293D01*
X13636729Y-10324293D02*
X13636729Y-10276674D01*
X13636729Y-10276674D02*
X13646253Y-10238579D01*
X13646253Y-10238579D02*
X13655777Y-10219531D01*
X13655777Y-10219531D02*
X13665301Y-10210008D01*
X13665301Y-10210008D02*
X13684348Y-10200484D01*
X13989110Y-10400484D02*
X13989110Y-10200484D01*
X14074825Y-10400484D02*
X14074825Y-10295722D01*
X14074825Y-10295722D02*
X14065301Y-10276674D01*
X14065301Y-10276674D02*
X14046253Y-10267150D01*
X14046253Y-10267150D02*
X14017682Y-10267150D01*
X14017682Y-10267150D02*
X13998634Y-10276674D01*
X13998634Y-10276674D02*
X13989110Y-10286198D01*
X14198634Y-10400484D02*
X14179587Y-10390960D01*
X14179587Y-10390960D02*
X14170063Y-10381436D01*
X14170063Y-10381436D02*
X14160539Y-10362389D01*
X14160539Y-10362389D02*
X14160539Y-10305246D01*
X14160539Y-10305246D02*
X14170063Y-10286198D01*
X14170063Y-10286198D02*
X14179587Y-10276674D01*
X14179587Y-10276674D02*
X14198634Y-10267150D01*
X14198634Y-10267150D02*
X14227206Y-10267150D01*
X14227206Y-10267150D02*
X14246253Y-10276674D01*
X14246253Y-10276674D02*
X14255777Y-10286198D01*
X14255777Y-10286198D02*
X14265301Y-10305246D01*
X14265301Y-10305246D02*
X14265301Y-10362389D01*
X14265301Y-10362389D02*
X14255777Y-10381436D01*
X14255777Y-10381436D02*
X14246253Y-10390960D01*
X14246253Y-10390960D02*
X14227206Y-10400484D01*
X14227206Y-10400484D02*
X14198634Y-10400484D01*
X14379587Y-10400484D02*
X14360539Y-10390960D01*
X14360539Y-10390960D02*
X14351015Y-10371912D01*
X14351015Y-10371912D02*
X14351015Y-10200484D01*
X14531968Y-10390960D02*
X14512920Y-10400484D01*
X14512920Y-10400484D02*
X14474825Y-10400484D01*
X14474825Y-10400484D02*
X14455777Y-10390960D01*
X14455777Y-10390960D02*
X14446253Y-10371912D01*
X14446253Y-10371912D02*
X14446253Y-10295722D01*
X14446253Y-10295722D02*
X14455777Y-10276674D01*
X14455777Y-10276674D02*
X14474825Y-10267150D01*
X14474825Y-10267150D02*
X14512920Y-10267150D01*
X14512920Y-10267150D02*
X14531968Y-10276674D01*
X14531968Y-10276674D02*
X14541491Y-10295722D01*
X14541491Y-10295722D02*
X14541491Y-10314770D01*
X14541491Y-10314770D02*
X14446253Y-10333817D01*
X14617682Y-10390960D02*
X14636730Y-10400484D01*
X14636730Y-10400484D02*
X14674825Y-10400484D01*
X14674825Y-10400484D02*
X14693872Y-10390960D01*
X14693872Y-10390960D02*
X14703396Y-10371912D01*
X14703396Y-10371912D02*
X14703396Y-10362389D01*
X14703396Y-10362389D02*
X14693872Y-10343341D01*
X14693872Y-10343341D02*
X14674825Y-10333817D01*
X14674825Y-10333817D02*
X14646253Y-10333817D01*
X14646253Y-10333817D02*
X14627206Y-10324293D01*
X14627206Y-10324293D02*
X14617682Y-10305246D01*
X14617682Y-10305246D02*
X14617682Y-10295722D01*
X14617682Y-10295722D02*
X14627206Y-10276674D01*
X14627206Y-10276674D02*
X14646253Y-10267150D01*
X14646253Y-10267150D02*
X14674825Y-10267150D01*
X14674825Y-10267150D02*
X14693872Y-10276674D01*
X14941492Y-10324293D02*
X15093873Y-10324293D01*
X15017682Y-10400484D02*
X15017682Y-10248103D01*
X15427206Y-10267150D02*
X15427206Y-10400484D01*
X15379587Y-10190960D02*
X15331968Y-10333817D01*
X15331968Y-10333817D02*
X15455777Y-10333817D01*
X15674825Y-10390960D02*
X15693873Y-10400484D01*
X15693873Y-10400484D02*
X15731968Y-10400484D01*
X15731968Y-10400484D02*
X15751015Y-10390960D01*
X15751015Y-10390960D02*
X15760539Y-10371912D01*
X15760539Y-10371912D02*
X15760539Y-10362389D01*
X15760539Y-10362389D02*
X15751015Y-10343341D01*
X15751015Y-10343341D02*
X15731968Y-10333817D01*
X15731968Y-10333817D02*
X15703396Y-10333817D01*
X15703396Y-10333817D02*
X15684349Y-10324293D01*
X15684349Y-10324293D02*
X15674825Y-10305246D01*
X15674825Y-10305246D02*
X15674825Y-10295722D01*
X15674825Y-10295722D02*
X15684349Y-10276674D01*
X15684349Y-10276674D02*
X15703396Y-10267150D01*
X15703396Y-10267150D02*
X15731968Y-10267150D01*
X15731968Y-10267150D02*
X15751015Y-10276674D01*
X15874825Y-10400484D02*
X15855777Y-10390960D01*
X15855777Y-10390960D02*
X15846254Y-10371912D01*
X15846254Y-10371912D02*
X15846254Y-10200484D01*
X15979587Y-10400484D02*
X15960539Y-10390960D01*
X15960539Y-10390960D02*
X15951015Y-10381436D01*
X15951015Y-10381436D02*
X15941492Y-10362389D01*
X15941492Y-10362389D02*
X15941492Y-10305246D01*
X15941492Y-10305246D02*
X15951015Y-10286198D01*
X15951015Y-10286198D02*
X15960539Y-10276674D01*
X15960539Y-10276674D02*
X15979587Y-10267150D01*
X15979587Y-10267150D02*
X16008158Y-10267150D01*
X16008158Y-10267150D02*
X16027206Y-10276674D01*
X16027206Y-10276674D02*
X16036730Y-10286198D01*
X16036730Y-10286198D02*
X16046254Y-10305246D01*
X16046254Y-10305246D02*
X16046254Y-10362389D01*
X16046254Y-10362389D02*
X16036730Y-10381436D01*
X16036730Y-10381436D02*
X16027206Y-10390960D01*
X16027206Y-10390960D02*
X16008158Y-10400484D01*
X16008158Y-10400484D02*
X15979587Y-10400484D01*
X16103396Y-10267150D02*
X16179587Y-10267150D01*
X16131968Y-10200484D02*
X16131968Y-10371912D01*
X16131968Y-10371912D02*
X16141492Y-10390960D01*
X16141492Y-10390960D02*
X16160539Y-10400484D01*
X16160539Y-10400484D02*
X16179587Y-10400484D01*
X16236730Y-10390960D02*
X16255777Y-10400484D01*
X16255777Y-10400484D02*
X16293873Y-10400484D01*
X16293873Y-10400484D02*
X16312920Y-10390960D01*
X16312920Y-10390960D02*
X16322444Y-10371912D01*
X16322444Y-10371912D02*
X16322444Y-10362389D01*
X16322444Y-10362389D02*
X16312920Y-10343341D01*
X16312920Y-10343341D02*
X16293873Y-10333817D01*
X16293873Y-10333817D02*
X16265301Y-10333817D01*
X16265301Y-10333817D02*
X16246254Y-10324293D01*
X16246254Y-10324293D02*
X16236730Y-10305246D01*
X16236730Y-10305246D02*
X16236730Y-10295722D01*
X16236730Y-10295722D02*
X16246254Y-10276674D01*
X16246254Y-10276674D02*
X16265301Y-10267150D01*
X16265301Y-10267150D02*
X16293873Y-10267150D01*
X16293873Y-10267150D02*
X16312920Y-10276674D01*
X16389111Y-10476674D02*
X16398635Y-10467150D01*
X16398635Y-10467150D02*
X16417682Y-10438579D01*
X16417682Y-10438579D02*
X16427206Y-10419531D01*
X16427206Y-10419531D02*
X16436730Y-10390960D01*
X16436730Y-10390960D02*
X16446254Y-10343341D01*
X16446254Y-10343341D02*
X16446254Y-10305246D01*
X16446254Y-10305246D02*
X16436730Y-10257627D01*
X16436730Y-10257627D02*
X16427206Y-10229055D01*
X16427206Y-10229055D02*
X16417682Y-10210008D01*
X16417682Y-10210008D02*
X16398635Y-10181436D01*
X16398635Y-10181436D02*
X16389111Y-10171912D01*
D10*
X9962500Y-10540500D02*
X9962500Y-10605500D01*
X9930000Y-10573000D02*
X9995000Y-10573000D01*
D11*
X10293872Y-10464484D02*
X10312920Y-10464484D01*
X10312920Y-10464484D02*
X10331967Y-10474008D01*
X10331967Y-10474008D02*
X10341491Y-10483531D01*
X10341491Y-10483531D02*
X10351015Y-10502579D01*
X10351015Y-10502579D02*
X10360539Y-10540674D01*
X10360539Y-10540674D02*
X10360539Y-10588293D01*
X10360539Y-10588293D02*
X10351015Y-10626389D01*
X10351015Y-10626389D02*
X10341491Y-10645436D01*
X10341491Y-10645436D02*
X10331967Y-10654960D01*
X10331967Y-10654960D02*
X10312920Y-10664484D01*
X10312920Y-10664484D02*
X10293872Y-10664484D01*
X10293872Y-10664484D02*
X10274824Y-10654960D01*
X10274824Y-10654960D02*
X10265301Y-10645436D01*
X10265301Y-10645436D02*
X10255777Y-10626389D01*
X10255777Y-10626389D02*
X10246253Y-10588293D01*
X10246253Y-10588293D02*
X10246253Y-10540674D01*
X10246253Y-10540674D02*
X10255777Y-10502579D01*
X10255777Y-10502579D02*
X10265301Y-10483531D01*
X10265301Y-10483531D02*
X10274824Y-10474008D01*
X10274824Y-10474008D02*
X10293872Y-10464484D01*
X10446253Y-10645436D02*
X10455777Y-10654960D01*
X10455777Y-10654960D02*
X10446253Y-10664484D01*
X10446253Y-10664484D02*
X10436729Y-10654960D01*
X10436729Y-10654960D02*
X10446253Y-10645436D01*
X10446253Y-10645436D02*
X10446253Y-10664484D01*
X10627205Y-10464484D02*
X10589110Y-10464484D01*
X10589110Y-10464484D02*
X10570063Y-10474008D01*
X10570063Y-10474008D02*
X10560539Y-10483531D01*
X10560539Y-10483531D02*
X10541491Y-10512103D01*
X10541491Y-10512103D02*
X10531967Y-10550198D01*
X10531967Y-10550198D02*
X10531967Y-10626389D01*
X10531967Y-10626389D02*
X10541491Y-10645436D01*
X10541491Y-10645436D02*
X10551015Y-10654960D01*
X10551015Y-10654960D02*
X10570063Y-10664484D01*
X10570063Y-10664484D02*
X10608158Y-10664484D01*
X10608158Y-10664484D02*
X10627205Y-10654960D01*
X10627205Y-10654960D02*
X10636729Y-10645436D01*
X10636729Y-10645436D02*
X10646253Y-10626389D01*
X10646253Y-10626389D02*
X10646253Y-10578770D01*
X10646253Y-10578770D02*
X10636729Y-10559722D01*
X10636729Y-10559722D02*
X10627205Y-10550198D01*
X10627205Y-10550198D02*
X10608158Y-10540674D01*
X10608158Y-10540674D02*
X10570063Y-10540674D01*
X10570063Y-10540674D02*
X10551015Y-10550198D01*
X10551015Y-10550198D02*
X10541491Y-10559722D01*
X10541491Y-10559722D02*
X10531967Y-10578770D01*
X10827205Y-10464484D02*
X10731967Y-10464484D01*
X10731967Y-10464484D02*
X10722444Y-10559722D01*
X10722444Y-10559722D02*
X10731967Y-10550198D01*
X10731967Y-10550198D02*
X10751015Y-10540674D01*
X10751015Y-10540674D02*
X10798634Y-10540674D01*
X10798634Y-10540674D02*
X10817682Y-10550198D01*
X10817682Y-10550198D02*
X10827205Y-10559722D01*
X10827205Y-10559722D02*
X10836729Y-10578770D01*
X10836729Y-10578770D02*
X10836729Y-10626389D01*
X10836729Y-10626389D02*
X10827205Y-10645436D01*
X10827205Y-10645436D02*
X10817682Y-10654960D01*
X10817682Y-10654960D02*
X10798634Y-10664484D01*
X10798634Y-10664484D02*
X10751015Y-10664484D01*
X10751015Y-10664484D02*
X10731967Y-10654960D01*
X10731967Y-10654960D02*
X10722444Y-10645436D01*
X10960539Y-10464484D02*
X10979586Y-10464484D01*
X10979586Y-10464484D02*
X10998634Y-10474008D01*
X10998634Y-10474008D02*
X11008158Y-10483531D01*
X11008158Y-10483531D02*
X11017682Y-10502579D01*
X11017682Y-10502579D02*
X11027205Y-10540674D01*
X11027205Y-10540674D02*
X11027205Y-10588293D01*
X11027205Y-10588293D02*
X11017682Y-10626389D01*
X11017682Y-10626389D02*
X11008158Y-10645436D01*
X11008158Y-10645436D02*
X10998634Y-10654960D01*
X10998634Y-10654960D02*
X10979586Y-10664484D01*
X10979586Y-10664484D02*
X10960539Y-10664484D01*
X10960539Y-10664484D02*
X10941491Y-10654960D01*
X10941491Y-10654960D02*
X10931967Y-10645436D01*
X10931967Y-10645436D02*
X10922444Y-10626389D01*
X10922444Y-10626389D02*
X10912920Y-10588293D01*
X10912920Y-10588293D02*
X10912920Y-10540674D01*
X10912920Y-10540674D02*
X10922444Y-10502579D01*
X10922444Y-10502579D02*
X10931967Y-10483531D01*
X10931967Y-10483531D02*
X10941491Y-10474008D01*
X10941491Y-10474008D02*
X10960539Y-10464484D01*
X11112920Y-10664484D02*
X11112920Y-10531150D01*
X11112920Y-10550198D02*
X11122444Y-10540674D01*
X11122444Y-10540674D02*
X11141491Y-10531150D01*
X11141491Y-10531150D02*
X11170063Y-10531150D01*
X11170063Y-10531150D02*
X11189110Y-10540674D01*
X11189110Y-10540674D02*
X11198634Y-10559722D01*
X11198634Y-10559722D02*
X11198634Y-10664484D01*
X11198634Y-10559722D02*
X11208158Y-10540674D01*
X11208158Y-10540674D02*
X11227205Y-10531150D01*
X11227205Y-10531150D02*
X11255777Y-10531150D01*
X11255777Y-10531150D02*
X11274824Y-10540674D01*
X11274824Y-10540674D02*
X11284348Y-10559722D01*
X11284348Y-10559722D02*
X11284348Y-10664484D01*
X11379586Y-10664484D02*
X11379586Y-10531150D01*
X11379586Y-10550198D02*
X11389110Y-10540674D01*
X11389110Y-10540674D02*
X11408158Y-10531150D01*
X11408158Y-10531150D02*
X11436729Y-10531150D01*
X11436729Y-10531150D02*
X11455777Y-10540674D01*
X11455777Y-10540674D02*
X11465301Y-10559722D01*
X11465301Y-10559722D02*
X11465301Y-10664484D01*
X11465301Y-10559722D02*
X11474824Y-10540674D01*
X11474824Y-10540674D02*
X11493872Y-10531150D01*
X11493872Y-10531150D02*
X11522443Y-10531150D01*
X11522443Y-10531150D02*
X11541491Y-10540674D01*
X11541491Y-10540674D02*
X11551015Y-10559722D01*
X11551015Y-10559722D02*
X11551015Y-10664484D01*
X11941491Y-10454960D02*
X11770063Y-10712103D01*
X12198634Y-10464484D02*
X12217682Y-10464484D01*
X12217682Y-10464484D02*
X12236729Y-10474008D01*
X12236729Y-10474008D02*
X12246253Y-10483531D01*
X12246253Y-10483531D02*
X12255777Y-10502579D01*
X12255777Y-10502579D02*
X12265301Y-10540674D01*
X12265301Y-10540674D02*
X12265301Y-10588293D01*
X12265301Y-10588293D02*
X12255777Y-10626389D01*
X12255777Y-10626389D02*
X12246253Y-10645436D01*
X12246253Y-10645436D02*
X12236729Y-10654960D01*
X12236729Y-10654960D02*
X12217682Y-10664484D01*
X12217682Y-10664484D02*
X12198634Y-10664484D01*
X12198634Y-10664484D02*
X12179586Y-10654960D01*
X12179586Y-10654960D02*
X12170063Y-10645436D01*
X12170063Y-10645436D02*
X12160539Y-10626389D01*
X12160539Y-10626389D02*
X12151015Y-10588293D01*
X12151015Y-10588293D02*
X12151015Y-10540674D01*
X12151015Y-10540674D02*
X12160539Y-10502579D01*
X12160539Y-10502579D02*
X12170063Y-10483531D01*
X12170063Y-10483531D02*
X12179586Y-10474008D01*
X12179586Y-10474008D02*
X12198634Y-10464484D01*
X12351015Y-10645436D02*
X12360539Y-10654960D01*
X12360539Y-10654960D02*
X12351015Y-10664484D01*
X12351015Y-10664484D02*
X12341491Y-10654960D01*
X12341491Y-10654960D02*
X12351015Y-10645436D01*
X12351015Y-10645436D02*
X12351015Y-10664484D01*
X12484348Y-10464484D02*
X12503396Y-10464484D01*
X12503396Y-10464484D02*
X12522444Y-10474008D01*
X12522444Y-10474008D02*
X12531967Y-10483531D01*
X12531967Y-10483531D02*
X12541491Y-10502579D01*
X12541491Y-10502579D02*
X12551015Y-10540674D01*
X12551015Y-10540674D02*
X12551015Y-10588293D01*
X12551015Y-10588293D02*
X12541491Y-10626389D01*
X12541491Y-10626389D02*
X12531967Y-10645436D01*
X12531967Y-10645436D02*
X12522444Y-10654960D01*
X12522444Y-10654960D02*
X12503396Y-10664484D01*
X12503396Y-10664484D02*
X12484348Y-10664484D01*
X12484348Y-10664484D02*
X12465301Y-10654960D01*
X12465301Y-10654960D02*
X12455777Y-10645436D01*
X12455777Y-10645436D02*
X12446253Y-10626389D01*
X12446253Y-10626389D02*
X12436729Y-10588293D01*
X12436729Y-10588293D02*
X12436729Y-10540674D01*
X12436729Y-10540674D02*
X12446253Y-10502579D01*
X12446253Y-10502579D02*
X12455777Y-10483531D01*
X12455777Y-10483531D02*
X12465301Y-10474008D01*
X12465301Y-10474008D02*
X12484348Y-10464484D01*
X12627206Y-10483531D02*
X12636729Y-10474008D01*
X12636729Y-10474008D02*
X12655777Y-10464484D01*
X12655777Y-10464484D02*
X12703396Y-10464484D01*
X12703396Y-10464484D02*
X12722444Y-10474008D01*
X12722444Y-10474008D02*
X12731967Y-10483531D01*
X12731967Y-10483531D02*
X12741491Y-10502579D01*
X12741491Y-10502579D02*
X12741491Y-10521627D01*
X12741491Y-10521627D02*
X12731967Y-10550198D01*
X12731967Y-10550198D02*
X12617682Y-10664484D01*
X12617682Y-10664484D02*
X12741491Y-10664484D01*
X12922444Y-10464484D02*
X12827206Y-10464484D01*
X12827206Y-10464484D02*
X12817682Y-10559722D01*
X12817682Y-10559722D02*
X12827206Y-10550198D01*
X12827206Y-10550198D02*
X12846253Y-10540674D01*
X12846253Y-10540674D02*
X12893872Y-10540674D01*
X12893872Y-10540674D02*
X12912920Y-10550198D01*
X12912920Y-10550198D02*
X12922444Y-10559722D01*
X12922444Y-10559722D02*
X12931967Y-10578770D01*
X12931967Y-10578770D02*
X12931967Y-10626389D01*
X12931967Y-10626389D02*
X12922444Y-10645436D01*
X12922444Y-10645436D02*
X12912920Y-10654960D01*
X12912920Y-10654960D02*
X12893872Y-10664484D01*
X12893872Y-10664484D02*
X12846253Y-10664484D01*
X12846253Y-10664484D02*
X12827206Y-10654960D01*
X12827206Y-10654960D02*
X12817682Y-10645436D01*
X13103396Y-10464484D02*
X13065301Y-10464484D01*
X13065301Y-10464484D02*
X13046253Y-10474008D01*
X13046253Y-10474008D02*
X13036729Y-10483531D01*
X13036729Y-10483531D02*
X13017682Y-10512103D01*
X13017682Y-10512103D02*
X13008158Y-10550198D01*
X13008158Y-10550198D02*
X13008158Y-10626389D01*
X13008158Y-10626389D02*
X13017682Y-10645436D01*
X13017682Y-10645436D02*
X13027206Y-10654960D01*
X13027206Y-10654960D02*
X13046253Y-10664484D01*
X13046253Y-10664484D02*
X13084348Y-10664484D01*
X13084348Y-10664484D02*
X13103396Y-10654960D01*
X13103396Y-10654960D02*
X13112920Y-10645436D01*
X13112920Y-10645436D02*
X13122444Y-10626389D01*
X13122444Y-10626389D02*
X13122444Y-10578770D01*
X13122444Y-10578770D02*
X13112920Y-10559722D01*
X13112920Y-10559722D02*
X13103396Y-10550198D01*
X13103396Y-10550198D02*
X13084348Y-10540674D01*
X13084348Y-10540674D02*
X13046253Y-10540674D01*
X13046253Y-10540674D02*
X13027206Y-10550198D01*
X13027206Y-10550198D02*
X13017682Y-10559722D01*
X13017682Y-10559722D02*
X13008158Y-10578770D01*
X13198634Y-10464484D02*
X13198634Y-10502579D01*
X13274825Y-10464484D02*
X13274825Y-10502579D01*
X13570063Y-10740674D02*
X13560539Y-10731150D01*
X13560539Y-10731150D02*
X13541491Y-10702579D01*
X13541491Y-10702579D02*
X13531968Y-10683531D01*
X13531968Y-10683531D02*
X13522444Y-10654960D01*
X13522444Y-10654960D02*
X13512920Y-10607341D01*
X13512920Y-10607341D02*
X13512920Y-10569246D01*
X13512920Y-10569246D02*
X13522444Y-10521627D01*
X13522444Y-10521627D02*
X13531968Y-10493055D01*
X13531968Y-10493055D02*
X13541491Y-10474008D01*
X13541491Y-10474008D02*
X13560539Y-10445436D01*
X13560539Y-10445436D02*
X13570063Y-10435912D01*
X13636729Y-10483531D02*
X13646253Y-10474008D01*
X13646253Y-10474008D02*
X13665301Y-10464484D01*
X13665301Y-10464484D02*
X13712920Y-10464484D01*
X13712920Y-10464484D02*
X13731968Y-10474008D01*
X13731968Y-10474008D02*
X13741491Y-10483531D01*
X13741491Y-10483531D02*
X13751015Y-10502579D01*
X13751015Y-10502579D02*
X13751015Y-10521627D01*
X13751015Y-10521627D02*
X13741491Y-10550198D01*
X13741491Y-10550198D02*
X13627206Y-10664484D01*
X13627206Y-10664484D02*
X13751015Y-10664484D01*
X13989110Y-10664484D02*
X13989110Y-10464484D01*
X14074825Y-10664484D02*
X14074825Y-10559722D01*
X14074825Y-10559722D02*
X14065301Y-10540674D01*
X14065301Y-10540674D02*
X14046253Y-10531150D01*
X14046253Y-10531150D02*
X14017682Y-10531150D01*
X14017682Y-10531150D02*
X13998634Y-10540674D01*
X13998634Y-10540674D02*
X13989110Y-10550198D01*
X14198634Y-10664484D02*
X14179587Y-10654960D01*
X14179587Y-10654960D02*
X14170063Y-10645436D01*
X14170063Y-10645436D02*
X14160539Y-10626389D01*
X14160539Y-10626389D02*
X14160539Y-10569246D01*
X14160539Y-10569246D02*
X14170063Y-10550198D01*
X14170063Y-10550198D02*
X14179587Y-10540674D01*
X14179587Y-10540674D02*
X14198634Y-10531150D01*
X14198634Y-10531150D02*
X14227206Y-10531150D01*
X14227206Y-10531150D02*
X14246253Y-10540674D01*
X14246253Y-10540674D02*
X14255777Y-10550198D01*
X14255777Y-10550198D02*
X14265301Y-10569246D01*
X14265301Y-10569246D02*
X14265301Y-10626389D01*
X14265301Y-10626389D02*
X14255777Y-10645436D01*
X14255777Y-10645436D02*
X14246253Y-10654960D01*
X14246253Y-10654960D02*
X14227206Y-10664484D01*
X14227206Y-10664484D02*
X14198634Y-10664484D01*
X14379587Y-10664484D02*
X14360539Y-10654960D01*
X14360539Y-10654960D02*
X14351015Y-10635912D01*
X14351015Y-10635912D02*
X14351015Y-10464484D01*
X14531968Y-10654960D02*
X14512920Y-10664484D01*
X14512920Y-10664484D02*
X14474825Y-10664484D01*
X14474825Y-10664484D02*
X14455777Y-10654960D01*
X14455777Y-10654960D02*
X14446253Y-10635912D01*
X14446253Y-10635912D02*
X14446253Y-10559722D01*
X14446253Y-10559722D02*
X14455777Y-10540674D01*
X14455777Y-10540674D02*
X14474825Y-10531150D01*
X14474825Y-10531150D02*
X14512920Y-10531150D01*
X14512920Y-10531150D02*
X14531968Y-10540674D01*
X14531968Y-10540674D02*
X14541491Y-10559722D01*
X14541491Y-10559722D02*
X14541491Y-10578770D01*
X14541491Y-10578770D02*
X14446253Y-10597817D01*
X14617682Y-10654960D02*
X14636730Y-10664484D01*
X14636730Y-10664484D02*
X14674825Y-10664484D01*
X14674825Y-10664484D02*
X14693872Y-10654960D01*
X14693872Y-10654960D02*
X14703396Y-10635912D01*
X14703396Y-10635912D02*
X14703396Y-10626389D01*
X14703396Y-10626389D02*
X14693872Y-10607341D01*
X14693872Y-10607341D02*
X14674825Y-10597817D01*
X14674825Y-10597817D02*
X14646253Y-10597817D01*
X14646253Y-10597817D02*
X14627206Y-10588293D01*
X14627206Y-10588293D02*
X14617682Y-10569246D01*
X14617682Y-10569246D02*
X14617682Y-10559722D01*
X14617682Y-10559722D02*
X14627206Y-10540674D01*
X14627206Y-10540674D02*
X14646253Y-10531150D01*
X14646253Y-10531150D02*
X14674825Y-10531150D01*
X14674825Y-10531150D02*
X14693872Y-10540674D01*
X14770063Y-10740674D02*
X14779587Y-10731150D01*
X14779587Y-10731150D02*
X14798634Y-10702579D01*
X14798634Y-10702579D02*
X14808158Y-10683531D01*
X14808158Y-10683531D02*
X14817682Y-10654960D01*
X14817682Y-10654960D02*
X14827206Y-10607341D01*
X14827206Y-10607341D02*
X14827206Y-10569246D01*
X14827206Y-10569246D02*
X14817682Y-10521627D01*
X14817682Y-10521627D02*
X14808158Y-10493055D01*
X14808158Y-10493055D02*
X14798634Y-10474008D01*
X14798634Y-10474008D02*
X14779587Y-10445436D01*
X14779587Y-10445436D02*
X14770063Y-10435912D01*
X15131968Y-10740674D02*
X15122444Y-10731150D01*
X15122444Y-10731150D02*
X15103396Y-10702579D01*
X15103396Y-10702579D02*
X15093872Y-10683531D01*
X15093872Y-10683531D02*
X15084349Y-10654960D01*
X15084349Y-10654960D02*
X15074825Y-10607341D01*
X15074825Y-10607341D02*
X15074825Y-10569246D01*
X15074825Y-10569246D02*
X15084349Y-10521627D01*
X15084349Y-10521627D02*
X15093872Y-10493055D01*
X15093872Y-10493055D02*
X15103396Y-10474008D01*
X15103396Y-10474008D02*
X15122444Y-10445436D01*
X15122444Y-10445436D02*
X15131968Y-10435912D01*
X15208158Y-10531150D02*
X15208158Y-10664484D01*
X15208158Y-10550198D02*
X15217682Y-10540674D01*
X15217682Y-10540674D02*
X15236730Y-10531150D01*
X15236730Y-10531150D02*
X15265301Y-10531150D01*
X15265301Y-10531150D02*
X15284349Y-10540674D01*
X15284349Y-10540674D02*
X15293872Y-10559722D01*
X15293872Y-10559722D02*
X15293872Y-10664484D01*
X15417682Y-10664484D02*
X15398634Y-10654960D01*
X15398634Y-10654960D02*
X15389111Y-10645436D01*
X15389111Y-10645436D02*
X15379587Y-10626389D01*
X15379587Y-10626389D02*
X15379587Y-10569246D01*
X15379587Y-10569246D02*
X15389111Y-10550198D01*
X15389111Y-10550198D02*
X15398634Y-10540674D01*
X15398634Y-10540674D02*
X15417682Y-10531150D01*
X15417682Y-10531150D02*
X15446253Y-10531150D01*
X15446253Y-10531150D02*
X15465301Y-10540674D01*
X15465301Y-10540674D02*
X15474825Y-10550198D01*
X15474825Y-10550198D02*
X15484349Y-10569246D01*
X15484349Y-10569246D02*
X15484349Y-10626389D01*
X15484349Y-10626389D02*
X15474825Y-10645436D01*
X15474825Y-10645436D02*
X15465301Y-10654960D01*
X15465301Y-10654960D02*
X15446253Y-10664484D01*
X15446253Y-10664484D02*
X15417682Y-10664484D01*
X15541492Y-10531150D02*
X15617682Y-10531150D01*
X15570063Y-10464484D02*
X15570063Y-10635912D01*
X15570063Y-10635912D02*
X15579587Y-10654960D01*
X15579587Y-10654960D02*
X15598634Y-10664484D01*
X15598634Y-10664484D02*
X15617682Y-10664484D01*
X15836730Y-10531150D02*
X15836730Y-10731150D01*
X15836730Y-10540674D02*
X15855777Y-10531150D01*
X15855777Y-10531150D02*
X15893873Y-10531150D01*
X15893873Y-10531150D02*
X15912920Y-10540674D01*
X15912920Y-10540674D02*
X15922444Y-10550198D01*
X15922444Y-10550198D02*
X15931968Y-10569246D01*
X15931968Y-10569246D02*
X15931968Y-10626389D01*
X15931968Y-10626389D02*
X15922444Y-10645436D01*
X15922444Y-10645436D02*
X15912920Y-10654960D01*
X15912920Y-10654960D02*
X15893873Y-10664484D01*
X15893873Y-10664484D02*
X15855777Y-10664484D01*
X15855777Y-10664484D02*
X15836730Y-10654960D01*
X16046253Y-10664484D02*
X16027206Y-10654960D01*
X16027206Y-10654960D02*
X16017682Y-10635912D01*
X16017682Y-10635912D02*
X16017682Y-10464484D01*
X16208158Y-10664484D02*
X16208158Y-10559722D01*
X16208158Y-10559722D02*
X16198634Y-10540674D01*
X16198634Y-10540674D02*
X16179587Y-10531150D01*
X16179587Y-10531150D02*
X16141492Y-10531150D01*
X16141492Y-10531150D02*
X16122444Y-10540674D01*
X16208158Y-10654960D02*
X16189111Y-10664484D01*
X16189111Y-10664484D02*
X16141492Y-10664484D01*
X16141492Y-10664484D02*
X16122444Y-10654960D01*
X16122444Y-10654960D02*
X16112920Y-10635912D01*
X16112920Y-10635912D02*
X16112920Y-10616865D01*
X16112920Y-10616865D02*
X16122444Y-10597817D01*
X16122444Y-10597817D02*
X16141492Y-10588293D01*
X16141492Y-10588293D02*
X16189111Y-10588293D01*
X16189111Y-10588293D02*
X16208158Y-10578770D01*
X16274825Y-10531150D02*
X16351015Y-10531150D01*
X16303396Y-10464484D02*
X16303396Y-10635912D01*
X16303396Y-10635912D02*
X16312920Y-10654960D01*
X16312920Y-10654960D02*
X16331968Y-10664484D01*
X16331968Y-10664484D02*
X16351015Y-10664484D01*
X16493873Y-10654960D02*
X16474825Y-10664484D01*
X16474825Y-10664484D02*
X16436730Y-10664484D01*
X16436730Y-10664484D02*
X16417682Y-10654960D01*
X16417682Y-10654960D02*
X16408158Y-10635912D01*
X16408158Y-10635912D02*
X16408158Y-10559722D01*
X16408158Y-10559722D02*
X16417682Y-10540674D01*
X16417682Y-10540674D02*
X16436730Y-10531150D01*
X16436730Y-10531150D02*
X16474825Y-10531150D01*
X16474825Y-10531150D02*
X16493873Y-10540674D01*
X16493873Y-10540674D02*
X16503396Y-10559722D01*
X16503396Y-10559722D02*
X16503396Y-10578770D01*
X16503396Y-10578770D02*
X16408158Y-10597817D01*
X16674825Y-10664484D02*
X16674825Y-10464484D01*
X16674825Y-10654960D02*
X16655777Y-10664484D01*
X16655777Y-10664484D02*
X16617682Y-10664484D01*
X16617682Y-10664484D02*
X16598634Y-10654960D01*
X16598634Y-10654960D02*
X16589111Y-10645436D01*
X16589111Y-10645436D02*
X16579587Y-10626389D01*
X16579587Y-10626389D02*
X16579587Y-10569246D01*
X16579587Y-10569246D02*
X16589111Y-10550198D01*
X16589111Y-10550198D02*
X16598634Y-10540674D01*
X16598634Y-10540674D02*
X16617682Y-10531150D01*
X16617682Y-10531150D02*
X16655777Y-10531150D01*
X16655777Y-10531150D02*
X16674825Y-10540674D01*
X16751015Y-10740674D02*
X16760539Y-10731150D01*
X16760539Y-10731150D02*
X16779587Y-10702579D01*
X16779587Y-10702579D02*
X16789111Y-10683531D01*
X16789111Y-10683531D02*
X16798635Y-10654960D01*
X16798635Y-10654960D02*
X16808158Y-10607341D01*
X16808158Y-10607341D02*
X16808158Y-10569246D01*
X16808158Y-10569246D02*
X16798635Y-10521627D01*
X16798635Y-10521627D02*
X16789111Y-10493055D01*
X16789111Y-10493055D02*
X16779587Y-10474008D01*
X16779587Y-10474008D02*
X16760539Y-10445436D01*
X16760539Y-10445436D02*
X16751015Y-10435912D01*
M02*
