%TF.GenerationSoftware,KiCad,Pcbnew,10.0.5*%
%TF.CreationDate,2026-08-25T17:32:44+02:00*%
%TF.ProjectId,env-sensor-b,656e762d-7365-46e7-936f-722d622e6b69,HW B1*%
%TF.SameCoordinates,Original*%
%TF.FileFunction,Drillmap*%
%TF.FilePolarity,Positive*%
%FSLAX45Y45*%
G04 Gerber Fmt 4.5, Leading zero omitted, Abs format (unit mm)*
G04 Created by KiCad (PCBNEW 10.0.5) date 2026-08-25 17:32:44*
%MOMM*%
%LPD*%
G01*
G04 APERTURE LIST*
%ADD10C,0.100000*%
%ADD11C,0.200000*%
G04 APERTURE END LIST*
D10*
X10000000Y-6000000D02*
X12800000Y-6000000D01*
X10000000Y-9400000D02*
X10000000Y-6000000D01*
X10500000Y-10200000D02*
X11225000Y-10200000D01*
X10500000Y-11100000D02*
X10500000Y-10200000D01*
X11225000Y-9400000D02*
X10000000Y-9400000D01*
X11225000Y-10200000D02*
X11225000Y-9400000D01*
X11575000Y-9400000D02*
X11575000Y-10200000D01*
X11575000Y-10200000D02*
X12300000Y-10200000D01*
X12300000Y-10200000D02*
X12300000Y-11100000D01*
X12300000Y-11100000D02*
X10500000Y-11100000D01*
X12800000Y-6000000D02*
X12800000Y-9400000D01*
X12800000Y-9400000D02*
X11575000Y-9400000D01*
D11*
D10*
X10235000Y-9235000D02*
X10265000Y-9265000D01*
X10265000Y-9235000D02*
X10235000Y-9265000D01*
X10485000Y-8235000D02*
X10515000Y-8265000D01*
X10515000Y-8235000D02*
X10485000Y-8265000D01*
X10485000Y-8485000D02*
X10515000Y-8515000D01*
X10515000Y-8485000D02*
X10485000Y-8515000D01*
X10485000Y-9235000D02*
X10515000Y-9265000D01*
X10515000Y-9235000D02*
X10485000Y-9265000D01*
X10985000Y-6985000D02*
X11015000Y-7015000D01*
X11015000Y-6985000D02*
X10985000Y-7015000D01*
X10985000Y-7235000D02*
X11015000Y-7265000D01*
X11015000Y-7235000D02*
X10985000Y-7265000D01*
X10985000Y-7485000D02*
X11015000Y-7515000D01*
X11015000Y-7485000D02*
X10985000Y-7515000D01*
X11985000Y-8735000D02*
X12015000Y-8765000D01*
X12015000Y-8735000D02*
X11985000Y-8765000D01*
X12235000Y-8735000D02*
X12265000Y-8765000D01*
X12265000Y-8735000D02*
X12235000Y-8765000D01*
X12335000Y-9075000D02*
X12365000Y-9105000D01*
X12365000Y-9075000D02*
X12335000Y-9105000D01*
X12475000Y-9075000D02*
X12505000Y-9105000D01*
X12505000Y-9075000D02*
X12475000Y-9105000D01*
X12485000Y-8485000D02*
X12515000Y-8515000D01*
X12515000Y-8485000D02*
X12485000Y-8515000D01*
X12485000Y-9235000D02*
X12515000Y-9265000D01*
X12515000Y-9235000D02*
X12485000Y-9265000D01*
X10267000Y-8018000D02*
G75*
G02*
X10207000Y-8018000I-30000J0D01*
G01*
X10207000Y-8018000D02*
G75*
G02*
X10267000Y-8018000I30000J0D01*
G01*
X10182000Y-8048000D02*
X10292000Y-8048000D01*
X10292000Y-7988000D02*
G75*
G02*
X10292000Y-8048000I0J-30000D01*
G01*
X10292000Y-7988000D02*
X10182000Y-7988000D01*
X10182000Y-7988000D02*
G75*
G03*
X10182000Y-8048000I0J-30000D01*
G01*
X10267000Y-8882000D02*
G75*
G02*
X10207000Y-8882000I-30000J0D01*
G01*
X10207000Y-8882000D02*
G75*
G02*
X10267000Y-8882000I30000J0D01*
G01*
X10182000Y-8912000D02*
X10292000Y-8912000D01*
X10292000Y-8852000D02*
G75*
G02*
X10292000Y-8912000I0J-30000D01*
G01*
X10292000Y-8852000D02*
X10182000Y-8852000D01*
X10182000Y-8852000D02*
G75*
G03*
X10182000Y-8912000I0J-30000D01*
G01*
X10685000Y-8018000D02*
G75*
G02*
X10625000Y-8018000I-30000J0D01*
G01*
X10625000Y-8018000D02*
G75*
G02*
X10685000Y-8018000I30000J0D01*
G01*
X10625000Y-8048000D02*
X10685000Y-8048000D01*
X10685000Y-7988000D02*
G75*
G02*
X10685000Y-8048000I0J-30000D01*
G01*
X10685000Y-7988000D02*
X10625000Y-7988000D01*
X10625000Y-7988000D02*
G75*
G03*
X10625000Y-8048000I0J-30000D01*
G01*
X10685000Y-8882000D02*
G75*
G02*
X10625000Y-8882000I-30000J0D01*
G01*
X10625000Y-8882000D02*
G75*
G02*
X10685000Y-8882000I30000J0D01*
G01*
X10625000Y-8912000D02*
X10685000Y-8912000D01*
X10685000Y-8852000D02*
G75*
G02*
X10685000Y-8912000I0J-30000D01*
G01*
X10685000Y-8852000D02*
X10625000Y-8852000D01*
X10625000Y-8852000D02*
G75*
G03*
X10625000Y-8912000I0J-30000D01*
G01*
X10290000Y-8128500D02*
X10290000Y-8193500D01*
X10257500Y-8161000D02*
X10322500Y-8161000D01*
X10290000Y-8706500D02*
X10290000Y-8771500D01*
X10257500Y-8739000D02*
X10322500Y-8739000D01*
D11*
X10255777Y-11416484D02*
X10255777Y-11216484D01*
X10255777Y-11216484D02*
X10303396Y-11216484D01*
X10303396Y-11216484D02*
X10331967Y-11226008D01*
X10331967Y-11226008D02*
X10351015Y-11245055D01*
X10351015Y-11245055D02*
X10360539Y-11264103D01*
X10360539Y-11264103D02*
X10370063Y-11302198D01*
X10370063Y-11302198D02*
X10370063Y-11330769D01*
X10370063Y-11330769D02*
X10360539Y-11368865D01*
X10360539Y-11368865D02*
X10351015Y-11387912D01*
X10351015Y-11387912D02*
X10331967Y-11406960D01*
X10331967Y-11406960D02*
X10303396Y-11416484D01*
X10303396Y-11416484D02*
X10255777Y-11416484D01*
X10455777Y-11416484D02*
X10455777Y-11283150D01*
X10455777Y-11321246D02*
X10465301Y-11302198D01*
X10465301Y-11302198D02*
X10474824Y-11292674D01*
X10474824Y-11292674D02*
X10493872Y-11283150D01*
X10493872Y-11283150D02*
X10512920Y-11283150D01*
X10579586Y-11416484D02*
X10579586Y-11283150D01*
X10579586Y-11216484D02*
X10570063Y-11226008D01*
X10570063Y-11226008D02*
X10579586Y-11235531D01*
X10579586Y-11235531D02*
X10589110Y-11226008D01*
X10589110Y-11226008D02*
X10579586Y-11216484D01*
X10579586Y-11216484D02*
X10579586Y-11235531D01*
X10703396Y-11416484D02*
X10684348Y-11406960D01*
X10684348Y-11406960D02*
X10674824Y-11387912D01*
X10674824Y-11387912D02*
X10674824Y-11216484D01*
X10808158Y-11416484D02*
X10789110Y-11406960D01*
X10789110Y-11406960D02*
X10779586Y-11387912D01*
X10779586Y-11387912D02*
X10779586Y-11216484D01*
X11036729Y-11416484D02*
X11036729Y-11216484D01*
X11036729Y-11216484D02*
X11103396Y-11359341D01*
X11103396Y-11359341D02*
X11170063Y-11216484D01*
X11170063Y-11216484D02*
X11170063Y-11416484D01*
X11351015Y-11416484D02*
X11351015Y-11311722D01*
X11351015Y-11311722D02*
X11341491Y-11292674D01*
X11341491Y-11292674D02*
X11322443Y-11283150D01*
X11322443Y-11283150D02*
X11284348Y-11283150D01*
X11284348Y-11283150D02*
X11265301Y-11292674D01*
X11351015Y-11406960D02*
X11331967Y-11416484D01*
X11331967Y-11416484D02*
X11284348Y-11416484D01*
X11284348Y-11416484D02*
X11265301Y-11406960D01*
X11265301Y-11406960D02*
X11255777Y-11387912D01*
X11255777Y-11387912D02*
X11255777Y-11368865D01*
X11255777Y-11368865D02*
X11265301Y-11349817D01*
X11265301Y-11349817D02*
X11284348Y-11340293D01*
X11284348Y-11340293D02*
X11331967Y-11340293D01*
X11331967Y-11340293D02*
X11351015Y-11330769D01*
X11446253Y-11283150D02*
X11446253Y-11483150D01*
X11446253Y-11292674D02*
X11465301Y-11283150D01*
X11465301Y-11283150D02*
X11503396Y-11283150D01*
X11503396Y-11283150D02*
X11522443Y-11292674D01*
X11522443Y-11292674D02*
X11531967Y-11302198D01*
X11531967Y-11302198D02*
X11541491Y-11321246D01*
X11541491Y-11321246D02*
X11541491Y-11378388D01*
X11541491Y-11378388D02*
X11531967Y-11397436D01*
X11531967Y-11397436D02*
X11522443Y-11406960D01*
X11522443Y-11406960D02*
X11503396Y-11416484D01*
X11503396Y-11416484D02*
X11465301Y-11416484D01*
X11465301Y-11416484D02*
X11446253Y-11406960D01*
X11627205Y-11397436D02*
X11636729Y-11406960D01*
X11636729Y-11406960D02*
X11627205Y-11416484D01*
X11627205Y-11416484D02*
X11617682Y-11406960D01*
X11617682Y-11406960D02*
X11627205Y-11397436D01*
X11627205Y-11397436D02*
X11627205Y-11416484D01*
X11627205Y-11292674D02*
X11636729Y-11302198D01*
X11636729Y-11302198D02*
X11627205Y-11311722D01*
X11627205Y-11311722D02*
X11617682Y-11302198D01*
X11617682Y-11302198D02*
X11627205Y-11292674D01*
X11627205Y-11292674D02*
X11627205Y-11311722D01*
D10*
X9965000Y-11730000D02*
X9995000Y-11760000D01*
X9995000Y-11730000D02*
X9965000Y-11760000D01*
D11*
X10293872Y-11636484D02*
X10312920Y-11636484D01*
X10312920Y-11636484D02*
X10331967Y-11646008D01*
X10331967Y-11646008D02*
X10341491Y-11655531D01*
X10341491Y-11655531D02*
X10351015Y-11674579D01*
X10351015Y-11674579D02*
X10360539Y-11712674D01*
X10360539Y-11712674D02*
X10360539Y-11760293D01*
X10360539Y-11760293D02*
X10351015Y-11798388D01*
X10351015Y-11798388D02*
X10341491Y-11817436D01*
X10341491Y-11817436D02*
X10331967Y-11826960D01*
X10331967Y-11826960D02*
X10312920Y-11836484D01*
X10312920Y-11836484D02*
X10293872Y-11836484D01*
X10293872Y-11836484D02*
X10274824Y-11826960D01*
X10274824Y-11826960D02*
X10265301Y-11817436D01*
X10265301Y-11817436D02*
X10255777Y-11798388D01*
X10255777Y-11798388D02*
X10246253Y-11760293D01*
X10246253Y-11760293D02*
X10246253Y-11712674D01*
X10246253Y-11712674D02*
X10255777Y-11674579D01*
X10255777Y-11674579D02*
X10265301Y-11655531D01*
X10265301Y-11655531D02*
X10274824Y-11646008D01*
X10274824Y-11646008D02*
X10293872Y-11636484D01*
X10446253Y-11817436D02*
X10455777Y-11826960D01*
X10455777Y-11826960D02*
X10446253Y-11836484D01*
X10446253Y-11836484D02*
X10436729Y-11826960D01*
X10436729Y-11826960D02*
X10446253Y-11817436D01*
X10446253Y-11817436D02*
X10446253Y-11836484D01*
X10522444Y-11636484D02*
X10646253Y-11636484D01*
X10646253Y-11636484D02*
X10579586Y-11712674D01*
X10579586Y-11712674D02*
X10608158Y-11712674D01*
X10608158Y-11712674D02*
X10627205Y-11722198D01*
X10627205Y-11722198D02*
X10636729Y-11731722D01*
X10636729Y-11731722D02*
X10646253Y-11750769D01*
X10646253Y-11750769D02*
X10646253Y-11798388D01*
X10646253Y-11798388D02*
X10636729Y-11817436D01*
X10636729Y-11817436D02*
X10627205Y-11826960D01*
X10627205Y-11826960D02*
X10608158Y-11836484D01*
X10608158Y-11836484D02*
X10551015Y-11836484D01*
X10551015Y-11836484D02*
X10531967Y-11826960D01*
X10531967Y-11826960D02*
X10522444Y-11817436D01*
X10770063Y-11636484D02*
X10789110Y-11636484D01*
X10789110Y-11636484D02*
X10808158Y-11646008D01*
X10808158Y-11646008D02*
X10817682Y-11655531D01*
X10817682Y-11655531D02*
X10827205Y-11674579D01*
X10827205Y-11674579D02*
X10836729Y-11712674D01*
X10836729Y-11712674D02*
X10836729Y-11760293D01*
X10836729Y-11760293D02*
X10827205Y-11798388D01*
X10827205Y-11798388D02*
X10817682Y-11817436D01*
X10817682Y-11817436D02*
X10808158Y-11826960D01*
X10808158Y-11826960D02*
X10789110Y-11836484D01*
X10789110Y-11836484D02*
X10770063Y-11836484D01*
X10770063Y-11836484D02*
X10751015Y-11826960D01*
X10751015Y-11826960D02*
X10741491Y-11817436D01*
X10741491Y-11817436D02*
X10731967Y-11798388D01*
X10731967Y-11798388D02*
X10722444Y-11760293D01*
X10722444Y-11760293D02*
X10722444Y-11712674D01*
X10722444Y-11712674D02*
X10731967Y-11674579D01*
X10731967Y-11674579D02*
X10741491Y-11655531D01*
X10741491Y-11655531D02*
X10751015Y-11646008D01*
X10751015Y-11646008D02*
X10770063Y-11636484D01*
X10960539Y-11636484D02*
X10979586Y-11636484D01*
X10979586Y-11636484D02*
X10998634Y-11646008D01*
X10998634Y-11646008D02*
X11008158Y-11655531D01*
X11008158Y-11655531D02*
X11017682Y-11674579D01*
X11017682Y-11674579D02*
X11027205Y-11712674D01*
X11027205Y-11712674D02*
X11027205Y-11760293D01*
X11027205Y-11760293D02*
X11017682Y-11798388D01*
X11017682Y-11798388D02*
X11008158Y-11817436D01*
X11008158Y-11817436D02*
X10998634Y-11826960D01*
X10998634Y-11826960D02*
X10979586Y-11836484D01*
X10979586Y-11836484D02*
X10960539Y-11836484D01*
X10960539Y-11836484D02*
X10941491Y-11826960D01*
X10941491Y-11826960D02*
X10931967Y-11817436D01*
X10931967Y-11817436D02*
X10922444Y-11798388D01*
X10922444Y-11798388D02*
X10912920Y-11760293D01*
X10912920Y-11760293D02*
X10912920Y-11712674D01*
X10912920Y-11712674D02*
X10922444Y-11674579D01*
X10922444Y-11674579D02*
X10931967Y-11655531D01*
X10931967Y-11655531D02*
X10941491Y-11646008D01*
X10941491Y-11646008D02*
X10960539Y-11636484D01*
X11112920Y-11836484D02*
X11112920Y-11703150D01*
X11112920Y-11722198D02*
X11122444Y-11712674D01*
X11122444Y-11712674D02*
X11141491Y-11703150D01*
X11141491Y-11703150D02*
X11170063Y-11703150D01*
X11170063Y-11703150D02*
X11189110Y-11712674D01*
X11189110Y-11712674D02*
X11198634Y-11731722D01*
X11198634Y-11731722D02*
X11198634Y-11836484D01*
X11198634Y-11731722D02*
X11208158Y-11712674D01*
X11208158Y-11712674D02*
X11227205Y-11703150D01*
X11227205Y-11703150D02*
X11255777Y-11703150D01*
X11255777Y-11703150D02*
X11274824Y-11712674D01*
X11274824Y-11712674D02*
X11284348Y-11731722D01*
X11284348Y-11731722D02*
X11284348Y-11836484D01*
X11379586Y-11836484D02*
X11379586Y-11703150D01*
X11379586Y-11722198D02*
X11389110Y-11712674D01*
X11389110Y-11712674D02*
X11408158Y-11703150D01*
X11408158Y-11703150D02*
X11436729Y-11703150D01*
X11436729Y-11703150D02*
X11455777Y-11712674D01*
X11455777Y-11712674D02*
X11465301Y-11731722D01*
X11465301Y-11731722D02*
X11465301Y-11836484D01*
X11465301Y-11731722D02*
X11474824Y-11712674D01*
X11474824Y-11712674D02*
X11493872Y-11703150D01*
X11493872Y-11703150D02*
X11522443Y-11703150D01*
X11522443Y-11703150D02*
X11541491Y-11712674D01*
X11541491Y-11712674D02*
X11551015Y-11731722D01*
X11551015Y-11731722D02*
X11551015Y-11836484D01*
X11941491Y-11626960D02*
X11770063Y-11884103D01*
X12198634Y-11636484D02*
X12217682Y-11636484D01*
X12217682Y-11636484D02*
X12236729Y-11646008D01*
X12236729Y-11646008D02*
X12246253Y-11655531D01*
X12246253Y-11655531D02*
X12255777Y-11674579D01*
X12255777Y-11674579D02*
X12265301Y-11712674D01*
X12265301Y-11712674D02*
X12265301Y-11760293D01*
X12265301Y-11760293D02*
X12255777Y-11798388D01*
X12255777Y-11798388D02*
X12246253Y-11817436D01*
X12246253Y-11817436D02*
X12236729Y-11826960D01*
X12236729Y-11826960D02*
X12217682Y-11836484D01*
X12217682Y-11836484D02*
X12198634Y-11836484D01*
X12198634Y-11836484D02*
X12179586Y-11826960D01*
X12179586Y-11826960D02*
X12170063Y-11817436D01*
X12170063Y-11817436D02*
X12160539Y-11798388D01*
X12160539Y-11798388D02*
X12151015Y-11760293D01*
X12151015Y-11760293D02*
X12151015Y-11712674D01*
X12151015Y-11712674D02*
X12160539Y-11674579D01*
X12160539Y-11674579D02*
X12170063Y-11655531D01*
X12170063Y-11655531D02*
X12179586Y-11646008D01*
X12179586Y-11646008D02*
X12198634Y-11636484D01*
X12351015Y-11817436D02*
X12360539Y-11826960D01*
X12360539Y-11826960D02*
X12351015Y-11836484D01*
X12351015Y-11836484D02*
X12341491Y-11826960D01*
X12341491Y-11826960D02*
X12351015Y-11817436D01*
X12351015Y-11817436D02*
X12351015Y-11836484D01*
X12484348Y-11636484D02*
X12503396Y-11636484D01*
X12503396Y-11636484D02*
X12522444Y-11646008D01*
X12522444Y-11646008D02*
X12531967Y-11655531D01*
X12531967Y-11655531D02*
X12541491Y-11674579D01*
X12541491Y-11674579D02*
X12551015Y-11712674D01*
X12551015Y-11712674D02*
X12551015Y-11760293D01*
X12551015Y-11760293D02*
X12541491Y-11798388D01*
X12541491Y-11798388D02*
X12531967Y-11817436D01*
X12531967Y-11817436D02*
X12522444Y-11826960D01*
X12522444Y-11826960D02*
X12503396Y-11836484D01*
X12503396Y-11836484D02*
X12484348Y-11836484D01*
X12484348Y-11836484D02*
X12465301Y-11826960D01*
X12465301Y-11826960D02*
X12455777Y-11817436D01*
X12455777Y-11817436D02*
X12446253Y-11798388D01*
X12446253Y-11798388D02*
X12436729Y-11760293D01*
X12436729Y-11760293D02*
X12436729Y-11712674D01*
X12436729Y-11712674D02*
X12446253Y-11674579D01*
X12446253Y-11674579D02*
X12455777Y-11655531D01*
X12455777Y-11655531D02*
X12465301Y-11646008D01*
X12465301Y-11646008D02*
X12484348Y-11636484D01*
X12741491Y-11836484D02*
X12627206Y-11836484D01*
X12684348Y-11836484D02*
X12684348Y-11636484D01*
X12684348Y-11636484D02*
X12665301Y-11665055D01*
X12665301Y-11665055D02*
X12646253Y-11684103D01*
X12646253Y-11684103D02*
X12627206Y-11693627D01*
X12931967Y-11836484D02*
X12817682Y-11836484D01*
X12874825Y-11836484D02*
X12874825Y-11636484D01*
X12874825Y-11636484D02*
X12855777Y-11665055D01*
X12855777Y-11665055D02*
X12836729Y-11684103D01*
X12836729Y-11684103D02*
X12817682Y-11693627D01*
X13046253Y-11722198D02*
X13027206Y-11712674D01*
X13027206Y-11712674D02*
X13017682Y-11703150D01*
X13017682Y-11703150D02*
X13008158Y-11684103D01*
X13008158Y-11684103D02*
X13008158Y-11674579D01*
X13008158Y-11674579D02*
X13017682Y-11655531D01*
X13017682Y-11655531D02*
X13027206Y-11646008D01*
X13027206Y-11646008D02*
X13046253Y-11636484D01*
X13046253Y-11636484D02*
X13084348Y-11636484D01*
X13084348Y-11636484D02*
X13103396Y-11646008D01*
X13103396Y-11646008D02*
X13112920Y-11655531D01*
X13112920Y-11655531D02*
X13122444Y-11674579D01*
X13122444Y-11674579D02*
X13122444Y-11684103D01*
X13122444Y-11684103D02*
X13112920Y-11703150D01*
X13112920Y-11703150D02*
X13103396Y-11712674D01*
X13103396Y-11712674D02*
X13084348Y-11722198D01*
X13084348Y-11722198D02*
X13046253Y-11722198D01*
X13046253Y-11722198D02*
X13027206Y-11731722D01*
X13027206Y-11731722D02*
X13017682Y-11741246D01*
X13017682Y-11741246D02*
X13008158Y-11760293D01*
X13008158Y-11760293D02*
X13008158Y-11798388D01*
X13008158Y-11798388D02*
X13017682Y-11817436D01*
X13017682Y-11817436D02*
X13027206Y-11826960D01*
X13027206Y-11826960D02*
X13046253Y-11836484D01*
X13046253Y-11836484D02*
X13084348Y-11836484D01*
X13084348Y-11836484D02*
X13103396Y-11826960D01*
X13103396Y-11826960D02*
X13112920Y-11817436D01*
X13112920Y-11817436D02*
X13122444Y-11798388D01*
X13122444Y-11798388D02*
X13122444Y-11760293D01*
X13122444Y-11760293D02*
X13112920Y-11741246D01*
X13112920Y-11741246D02*
X13103396Y-11731722D01*
X13103396Y-11731722D02*
X13084348Y-11722198D01*
X13198634Y-11636484D02*
X13198634Y-11674579D01*
X13274825Y-11636484D02*
X13274825Y-11674579D01*
X13570063Y-11912674D02*
X13560539Y-11903150D01*
X13560539Y-11903150D02*
X13541491Y-11874579D01*
X13541491Y-11874579D02*
X13531968Y-11855531D01*
X13531968Y-11855531D02*
X13522444Y-11826960D01*
X13522444Y-11826960D02*
X13512920Y-11779341D01*
X13512920Y-11779341D02*
X13512920Y-11741246D01*
X13512920Y-11741246D02*
X13522444Y-11693627D01*
X13522444Y-11693627D02*
X13531968Y-11665055D01*
X13531968Y-11665055D02*
X13541491Y-11646008D01*
X13541491Y-11646008D02*
X13560539Y-11617436D01*
X13560539Y-11617436D02*
X13570063Y-11607912D01*
X13751015Y-11836484D02*
X13636729Y-11836484D01*
X13693872Y-11836484D02*
X13693872Y-11636484D01*
X13693872Y-11636484D02*
X13674825Y-11665055D01*
X13674825Y-11665055D02*
X13655777Y-11684103D01*
X13655777Y-11684103D02*
X13636729Y-11693627D01*
X13817682Y-11636484D02*
X13941491Y-11636484D01*
X13941491Y-11636484D02*
X13874825Y-11712674D01*
X13874825Y-11712674D02*
X13903396Y-11712674D01*
X13903396Y-11712674D02*
X13922444Y-11722198D01*
X13922444Y-11722198D02*
X13931968Y-11731722D01*
X13931968Y-11731722D02*
X13941491Y-11750769D01*
X13941491Y-11750769D02*
X13941491Y-11798388D01*
X13941491Y-11798388D02*
X13931968Y-11817436D01*
X13931968Y-11817436D02*
X13922444Y-11826960D01*
X13922444Y-11826960D02*
X13903396Y-11836484D01*
X13903396Y-11836484D02*
X13846253Y-11836484D01*
X13846253Y-11836484D02*
X13827206Y-11826960D01*
X13827206Y-11826960D02*
X13817682Y-11817436D01*
X14179587Y-11836484D02*
X14179587Y-11636484D01*
X14265301Y-11836484D02*
X14265301Y-11731722D01*
X14265301Y-11731722D02*
X14255777Y-11712674D01*
X14255777Y-11712674D02*
X14236730Y-11703150D01*
X14236730Y-11703150D02*
X14208158Y-11703150D01*
X14208158Y-11703150D02*
X14189110Y-11712674D01*
X14189110Y-11712674D02*
X14179587Y-11722198D01*
X14389110Y-11836484D02*
X14370063Y-11826960D01*
X14370063Y-11826960D02*
X14360539Y-11817436D01*
X14360539Y-11817436D02*
X14351015Y-11798388D01*
X14351015Y-11798388D02*
X14351015Y-11741246D01*
X14351015Y-11741246D02*
X14360539Y-11722198D01*
X14360539Y-11722198D02*
X14370063Y-11712674D01*
X14370063Y-11712674D02*
X14389110Y-11703150D01*
X14389110Y-11703150D02*
X14417682Y-11703150D01*
X14417682Y-11703150D02*
X14436730Y-11712674D01*
X14436730Y-11712674D02*
X14446253Y-11722198D01*
X14446253Y-11722198D02*
X14455777Y-11741246D01*
X14455777Y-11741246D02*
X14455777Y-11798388D01*
X14455777Y-11798388D02*
X14446253Y-11817436D01*
X14446253Y-11817436D02*
X14436730Y-11826960D01*
X14436730Y-11826960D02*
X14417682Y-11836484D01*
X14417682Y-11836484D02*
X14389110Y-11836484D01*
X14570063Y-11836484D02*
X14551015Y-11826960D01*
X14551015Y-11826960D02*
X14541491Y-11807912D01*
X14541491Y-11807912D02*
X14541491Y-11636484D01*
X14722444Y-11826960D02*
X14703396Y-11836484D01*
X14703396Y-11836484D02*
X14665301Y-11836484D01*
X14665301Y-11836484D02*
X14646253Y-11826960D01*
X14646253Y-11826960D02*
X14636730Y-11807912D01*
X14636730Y-11807912D02*
X14636730Y-11731722D01*
X14636730Y-11731722D02*
X14646253Y-11712674D01*
X14646253Y-11712674D02*
X14665301Y-11703150D01*
X14665301Y-11703150D02*
X14703396Y-11703150D01*
X14703396Y-11703150D02*
X14722444Y-11712674D01*
X14722444Y-11712674D02*
X14731968Y-11731722D01*
X14731968Y-11731722D02*
X14731968Y-11750769D01*
X14731968Y-11750769D02*
X14636730Y-11769817D01*
X14808158Y-11826960D02*
X14827206Y-11836484D01*
X14827206Y-11836484D02*
X14865301Y-11836484D01*
X14865301Y-11836484D02*
X14884349Y-11826960D01*
X14884349Y-11826960D02*
X14893872Y-11807912D01*
X14893872Y-11807912D02*
X14893872Y-11798388D01*
X14893872Y-11798388D02*
X14884349Y-11779341D01*
X14884349Y-11779341D02*
X14865301Y-11769817D01*
X14865301Y-11769817D02*
X14836730Y-11769817D01*
X14836730Y-11769817D02*
X14817682Y-11760293D01*
X14817682Y-11760293D02*
X14808158Y-11741246D01*
X14808158Y-11741246D02*
X14808158Y-11731722D01*
X14808158Y-11731722D02*
X14817682Y-11712674D01*
X14817682Y-11712674D02*
X14836730Y-11703150D01*
X14836730Y-11703150D02*
X14865301Y-11703150D01*
X14865301Y-11703150D02*
X14884349Y-11712674D01*
X14960539Y-11912674D02*
X14970063Y-11903150D01*
X14970063Y-11903150D02*
X14989111Y-11874579D01*
X14989111Y-11874579D02*
X14998634Y-11855531D01*
X14998634Y-11855531D02*
X15008158Y-11826960D01*
X15008158Y-11826960D02*
X15017682Y-11779341D01*
X15017682Y-11779341D02*
X15017682Y-11741246D01*
X15017682Y-11741246D02*
X15008158Y-11693627D01*
X15008158Y-11693627D02*
X14998634Y-11665055D01*
X14998634Y-11665055D02*
X14989111Y-11646008D01*
X14989111Y-11646008D02*
X14970063Y-11617436D01*
X14970063Y-11617436D02*
X14960539Y-11607912D01*
D10*
X9995000Y-12009000D02*
G75*
G02*
X9935000Y-12009000I-30000J0D01*
G01*
X9935000Y-12009000D02*
G75*
G02*
X9995000Y-12009000I30000J0D01*
G01*
D11*
X10293872Y-11900484D02*
X10312920Y-11900484D01*
X10312920Y-11900484D02*
X10331967Y-11910008D01*
X10331967Y-11910008D02*
X10341491Y-11919531D01*
X10341491Y-11919531D02*
X10351015Y-11938579D01*
X10351015Y-11938579D02*
X10360539Y-11976674D01*
X10360539Y-11976674D02*
X10360539Y-12024293D01*
X10360539Y-12024293D02*
X10351015Y-12062388D01*
X10351015Y-12062388D02*
X10341491Y-12081436D01*
X10341491Y-12081436D02*
X10331967Y-12090960D01*
X10331967Y-12090960D02*
X10312920Y-12100484D01*
X10312920Y-12100484D02*
X10293872Y-12100484D01*
X10293872Y-12100484D02*
X10274824Y-12090960D01*
X10274824Y-12090960D02*
X10265301Y-12081436D01*
X10265301Y-12081436D02*
X10255777Y-12062388D01*
X10255777Y-12062388D02*
X10246253Y-12024293D01*
X10246253Y-12024293D02*
X10246253Y-11976674D01*
X10246253Y-11976674D02*
X10255777Y-11938579D01*
X10255777Y-11938579D02*
X10265301Y-11919531D01*
X10265301Y-11919531D02*
X10274824Y-11910008D01*
X10274824Y-11910008D02*
X10293872Y-11900484D01*
X10446253Y-12081436D02*
X10455777Y-12090960D01*
X10455777Y-12090960D02*
X10446253Y-12100484D01*
X10446253Y-12100484D02*
X10436729Y-12090960D01*
X10436729Y-12090960D02*
X10446253Y-12081436D01*
X10446253Y-12081436D02*
X10446253Y-12100484D01*
X10627205Y-11900484D02*
X10589110Y-11900484D01*
X10589110Y-11900484D02*
X10570063Y-11910008D01*
X10570063Y-11910008D02*
X10560539Y-11919531D01*
X10560539Y-11919531D02*
X10541491Y-11948103D01*
X10541491Y-11948103D02*
X10531967Y-11986198D01*
X10531967Y-11986198D02*
X10531967Y-12062388D01*
X10531967Y-12062388D02*
X10541491Y-12081436D01*
X10541491Y-12081436D02*
X10551015Y-12090960D01*
X10551015Y-12090960D02*
X10570063Y-12100484D01*
X10570063Y-12100484D02*
X10608158Y-12100484D01*
X10608158Y-12100484D02*
X10627205Y-12090960D01*
X10627205Y-12090960D02*
X10636729Y-12081436D01*
X10636729Y-12081436D02*
X10646253Y-12062388D01*
X10646253Y-12062388D02*
X10646253Y-12014769D01*
X10646253Y-12014769D02*
X10636729Y-11995722D01*
X10636729Y-11995722D02*
X10627205Y-11986198D01*
X10627205Y-11986198D02*
X10608158Y-11976674D01*
X10608158Y-11976674D02*
X10570063Y-11976674D01*
X10570063Y-11976674D02*
X10551015Y-11986198D01*
X10551015Y-11986198D02*
X10541491Y-11995722D01*
X10541491Y-11995722D02*
X10531967Y-12014769D01*
X10770063Y-11900484D02*
X10789110Y-11900484D01*
X10789110Y-11900484D02*
X10808158Y-11910008D01*
X10808158Y-11910008D02*
X10817682Y-11919531D01*
X10817682Y-11919531D02*
X10827205Y-11938579D01*
X10827205Y-11938579D02*
X10836729Y-11976674D01*
X10836729Y-11976674D02*
X10836729Y-12024293D01*
X10836729Y-12024293D02*
X10827205Y-12062388D01*
X10827205Y-12062388D02*
X10817682Y-12081436D01*
X10817682Y-12081436D02*
X10808158Y-12090960D01*
X10808158Y-12090960D02*
X10789110Y-12100484D01*
X10789110Y-12100484D02*
X10770063Y-12100484D01*
X10770063Y-12100484D02*
X10751015Y-12090960D01*
X10751015Y-12090960D02*
X10741491Y-12081436D01*
X10741491Y-12081436D02*
X10731967Y-12062388D01*
X10731967Y-12062388D02*
X10722444Y-12024293D01*
X10722444Y-12024293D02*
X10722444Y-11976674D01*
X10722444Y-11976674D02*
X10731967Y-11938579D01*
X10731967Y-11938579D02*
X10741491Y-11919531D01*
X10741491Y-11919531D02*
X10751015Y-11910008D01*
X10751015Y-11910008D02*
X10770063Y-11900484D01*
X10960539Y-11900484D02*
X10979586Y-11900484D01*
X10979586Y-11900484D02*
X10998634Y-11910008D01*
X10998634Y-11910008D02*
X11008158Y-11919531D01*
X11008158Y-11919531D02*
X11017682Y-11938579D01*
X11017682Y-11938579D02*
X11027205Y-11976674D01*
X11027205Y-11976674D02*
X11027205Y-12024293D01*
X11027205Y-12024293D02*
X11017682Y-12062388D01*
X11017682Y-12062388D02*
X11008158Y-12081436D01*
X11008158Y-12081436D02*
X10998634Y-12090960D01*
X10998634Y-12090960D02*
X10979586Y-12100484D01*
X10979586Y-12100484D02*
X10960539Y-12100484D01*
X10960539Y-12100484D02*
X10941491Y-12090960D01*
X10941491Y-12090960D02*
X10931967Y-12081436D01*
X10931967Y-12081436D02*
X10922444Y-12062388D01*
X10922444Y-12062388D02*
X10912920Y-12024293D01*
X10912920Y-12024293D02*
X10912920Y-11976674D01*
X10912920Y-11976674D02*
X10922444Y-11938579D01*
X10922444Y-11938579D02*
X10931967Y-11919531D01*
X10931967Y-11919531D02*
X10941491Y-11910008D01*
X10941491Y-11910008D02*
X10960539Y-11900484D01*
X11112920Y-12100484D02*
X11112920Y-11967150D01*
X11112920Y-11986198D02*
X11122444Y-11976674D01*
X11122444Y-11976674D02*
X11141491Y-11967150D01*
X11141491Y-11967150D02*
X11170063Y-11967150D01*
X11170063Y-11967150D02*
X11189110Y-11976674D01*
X11189110Y-11976674D02*
X11198634Y-11995722D01*
X11198634Y-11995722D02*
X11198634Y-12100484D01*
X11198634Y-11995722D02*
X11208158Y-11976674D01*
X11208158Y-11976674D02*
X11227205Y-11967150D01*
X11227205Y-11967150D02*
X11255777Y-11967150D01*
X11255777Y-11967150D02*
X11274824Y-11976674D01*
X11274824Y-11976674D02*
X11284348Y-11995722D01*
X11284348Y-11995722D02*
X11284348Y-12100484D01*
X11379586Y-12100484D02*
X11379586Y-11967150D01*
X11379586Y-11986198D02*
X11389110Y-11976674D01*
X11389110Y-11976674D02*
X11408158Y-11967150D01*
X11408158Y-11967150D02*
X11436729Y-11967150D01*
X11436729Y-11967150D02*
X11455777Y-11976674D01*
X11455777Y-11976674D02*
X11465301Y-11995722D01*
X11465301Y-11995722D02*
X11465301Y-12100484D01*
X11465301Y-11995722D02*
X11474824Y-11976674D01*
X11474824Y-11976674D02*
X11493872Y-11967150D01*
X11493872Y-11967150D02*
X11522443Y-11967150D01*
X11522443Y-11967150D02*
X11541491Y-11976674D01*
X11541491Y-11976674D02*
X11551015Y-11995722D01*
X11551015Y-11995722D02*
X11551015Y-12100484D01*
X11941491Y-11890960D02*
X11770063Y-12148103D01*
X12198634Y-11900484D02*
X12217682Y-11900484D01*
X12217682Y-11900484D02*
X12236729Y-11910008D01*
X12236729Y-11910008D02*
X12246253Y-11919531D01*
X12246253Y-11919531D02*
X12255777Y-11938579D01*
X12255777Y-11938579D02*
X12265301Y-11976674D01*
X12265301Y-11976674D02*
X12265301Y-12024293D01*
X12265301Y-12024293D02*
X12255777Y-12062388D01*
X12255777Y-12062388D02*
X12246253Y-12081436D01*
X12246253Y-12081436D02*
X12236729Y-12090960D01*
X12236729Y-12090960D02*
X12217682Y-12100484D01*
X12217682Y-12100484D02*
X12198634Y-12100484D01*
X12198634Y-12100484D02*
X12179586Y-12090960D01*
X12179586Y-12090960D02*
X12170063Y-12081436D01*
X12170063Y-12081436D02*
X12160539Y-12062388D01*
X12160539Y-12062388D02*
X12151015Y-12024293D01*
X12151015Y-12024293D02*
X12151015Y-11976674D01*
X12151015Y-11976674D02*
X12160539Y-11938579D01*
X12160539Y-11938579D02*
X12170063Y-11919531D01*
X12170063Y-11919531D02*
X12179586Y-11910008D01*
X12179586Y-11910008D02*
X12198634Y-11900484D01*
X12351015Y-12081436D02*
X12360539Y-12090960D01*
X12360539Y-12090960D02*
X12351015Y-12100484D01*
X12351015Y-12100484D02*
X12341491Y-12090960D01*
X12341491Y-12090960D02*
X12351015Y-12081436D01*
X12351015Y-12081436D02*
X12351015Y-12100484D01*
X12484348Y-11900484D02*
X12503396Y-11900484D01*
X12503396Y-11900484D02*
X12522444Y-11910008D01*
X12522444Y-11910008D02*
X12531967Y-11919531D01*
X12531967Y-11919531D02*
X12541491Y-11938579D01*
X12541491Y-11938579D02*
X12551015Y-11976674D01*
X12551015Y-11976674D02*
X12551015Y-12024293D01*
X12551015Y-12024293D02*
X12541491Y-12062388D01*
X12541491Y-12062388D02*
X12531967Y-12081436D01*
X12531967Y-12081436D02*
X12522444Y-12090960D01*
X12522444Y-12090960D02*
X12503396Y-12100484D01*
X12503396Y-12100484D02*
X12484348Y-12100484D01*
X12484348Y-12100484D02*
X12465301Y-12090960D01*
X12465301Y-12090960D02*
X12455777Y-12081436D01*
X12455777Y-12081436D02*
X12446253Y-12062388D01*
X12446253Y-12062388D02*
X12436729Y-12024293D01*
X12436729Y-12024293D02*
X12436729Y-11976674D01*
X12436729Y-11976674D02*
X12446253Y-11938579D01*
X12446253Y-11938579D02*
X12455777Y-11919531D01*
X12455777Y-11919531D02*
X12465301Y-11910008D01*
X12465301Y-11910008D02*
X12484348Y-11900484D01*
X12627206Y-11919531D02*
X12636729Y-11910008D01*
X12636729Y-11910008D02*
X12655777Y-11900484D01*
X12655777Y-11900484D02*
X12703396Y-11900484D01*
X12703396Y-11900484D02*
X12722444Y-11910008D01*
X12722444Y-11910008D02*
X12731967Y-11919531D01*
X12731967Y-11919531D02*
X12741491Y-11938579D01*
X12741491Y-11938579D02*
X12741491Y-11957627D01*
X12741491Y-11957627D02*
X12731967Y-11986198D01*
X12731967Y-11986198D02*
X12617682Y-12100484D01*
X12617682Y-12100484D02*
X12741491Y-12100484D01*
X12808158Y-11900484D02*
X12931967Y-11900484D01*
X12931967Y-11900484D02*
X12865301Y-11976674D01*
X12865301Y-11976674D02*
X12893872Y-11976674D01*
X12893872Y-11976674D02*
X12912920Y-11986198D01*
X12912920Y-11986198D02*
X12922444Y-11995722D01*
X12922444Y-11995722D02*
X12931967Y-12014769D01*
X12931967Y-12014769D02*
X12931967Y-12062388D01*
X12931967Y-12062388D02*
X12922444Y-12081436D01*
X12922444Y-12081436D02*
X12912920Y-12090960D01*
X12912920Y-12090960D02*
X12893872Y-12100484D01*
X12893872Y-12100484D02*
X12836729Y-12100484D01*
X12836729Y-12100484D02*
X12817682Y-12090960D01*
X12817682Y-12090960D02*
X12808158Y-12081436D01*
X13103396Y-11900484D02*
X13065301Y-11900484D01*
X13065301Y-11900484D02*
X13046253Y-11910008D01*
X13046253Y-11910008D02*
X13036729Y-11919531D01*
X13036729Y-11919531D02*
X13017682Y-11948103D01*
X13017682Y-11948103D02*
X13008158Y-11986198D01*
X13008158Y-11986198D02*
X13008158Y-12062388D01*
X13008158Y-12062388D02*
X13017682Y-12081436D01*
X13017682Y-12081436D02*
X13027206Y-12090960D01*
X13027206Y-12090960D02*
X13046253Y-12100484D01*
X13046253Y-12100484D02*
X13084348Y-12100484D01*
X13084348Y-12100484D02*
X13103396Y-12090960D01*
X13103396Y-12090960D02*
X13112920Y-12081436D01*
X13112920Y-12081436D02*
X13122444Y-12062388D01*
X13122444Y-12062388D02*
X13122444Y-12014769D01*
X13122444Y-12014769D02*
X13112920Y-11995722D01*
X13112920Y-11995722D02*
X13103396Y-11986198D01*
X13103396Y-11986198D02*
X13084348Y-11976674D01*
X13084348Y-11976674D02*
X13046253Y-11976674D01*
X13046253Y-11976674D02*
X13027206Y-11986198D01*
X13027206Y-11986198D02*
X13017682Y-11995722D01*
X13017682Y-11995722D02*
X13008158Y-12014769D01*
X13198634Y-11900484D02*
X13198634Y-11938579D01*
X13274825Y-11900484D02*
X13274825Y-11938579D01*
X13570063Y-12176674D02*
X13560539Y-12167150D01*
X13560539Y-12167150D02*
X13541491Y-12138579D01*
X13541491Y-12138579D02*
X13531968Y-12119531D01*
X13531968Y-12119531D02*
X13522444Y-12090960D01*
X13522444Y-12090960D02*
X13512920Y-12043341D01*
X13512920Y-12043341D02*
X13512920Y-12005246D01*
X13512920Y-12005246D02*
X13522444Y-11957627D01*
X13522444Y-11957627D02*
X13531968Y-11929055D01*
X13531968Y-11929055D02*
X13541491Y-11910008D01*
X13541491Y-11910008D02*
X13560539Y-11881436D01*
X13560539Y-11881436D02*
X13570063Y-11871912D01*
X13684348Y-11900484D02*
X13703396Y-11900484D01*
X13703396Y-11900484D02*
X13722444Y-11910008D01*
X13722444Y-11910008D02*
X13731968Y-11919531D01*
X13731968Y-11919531D02*
X13741491Y-11938579D01*
X13741491Y-11938579D02*
X13751015Y-11976674D01*
X13751015Y-11976674D02*
X13751015Y-12024293D01*
X13751015Y-12024293D02*
X13741491Y-12062388D01*
X13741491Y-12062388D02*
X13731968Y-12081436D01*
X13731968Y-12081436D02*
X13722444Y-12090960D01*
X13722444Y-12090960D02*
X13703396Y-12100484D01*
X13703396Y-12100484D02*
X13684348Y-12100484D01*
X13684348Y-12100484D02*
X13665301Y-12090960D01*
X13665301Y-12090960D02*
X13655777Y-12081436D01*
X13655777Y-12081436D02*
X13646253Y-12062388D01*
X13646253Y-12062388D02*
X13636729Y-12024293D01*
X13636729Y-12024293D02*
X13636729Y-11976674D01*
X13636729Y-11976674D02*
X13646253Y-11938579D01*
X13646253Y-11938579D02*
X13655777Y-11919531D01*
X13655777Y-11919531D02*
X13665301Y-11910008D01*
X13665301Y-11910008D02*
X13684348Y-11900484D01*
X13989110Y-12100484D02*
X13989110Y-11900484D01*
X14074825Y-12100484D02*
X14074825Y-11995722D01*
X14074825Y-11995722D02*
X14065301Y-11976674D01*
X14065301Y-11976674D02*
X14046253Y-11967150D01*
X14046253Y-11967150D02*
X14017682Y-11967150D01*
X14017682Y-11967150D02*
X13998634Y-11976674D01*
X13998634Y-11976674D02*
X13989110Y-11986198D01*
X14198634Y-12100484D02*
X14179587Y-12090960D01*
X14179587Y-12090960D02*
X14170063Y-12081436D01*
X14170063Y-12081436D02*
X14160539Y-12062388D01*
X14160539Y-12062388D02*
X14160539Y-12005246D01*
X14160539Y-12005246D02*
X14170063Y-11986198D01*
X14170063Y-11986198D02*
X14179587Y-11976674D01*
X14179587Y-11976674D02*
X14198634Y-11967150D01*
X14198634Y-11967150D02*
X14227206Y-11967150D01*
X14227206Y-11967150D02*
X14246253Y-11976674D01*
X14246253Y-11976674D02*
X14255777Y-11986198D01*
X14255777Y-11986198D02*
X14265301Y-12005246D01*
X14265301Y-12005246D02*
X14265301Y-12062388D01*
X14265301Y-12062388D02*
X14255777Y-12081436D01*
X14255777Y-12081436D02*
X14246253Y-12090960D01*
X14246253Y-12090960D02*
X14227206Y-12100484D01*
X14227206Y-12100484D02*
X14198634Y-12100484D01*
X14379587Y-12100484D02*
X14360539Y-12090960D01*
X14360539Y-12090960D02*
X14351015Y-12071912D01*
X14351015Y-12071912D02*
X14351015Y-11900484D01*
X14531968Y-12090960D02*
X14512920Y-12100484D01*
X14512920Y-12100484D02*
X14474825Y-12100484D01*
X14474825Y-12100484D02*
X14455777Y-12090960D01*
X14455777Y-12090960D02*
X14446253Y-12071912D01*
X14446253Y-12071912D02*
X14446253Y-11995722D01*
X14446253Y-11995722D02*
X14455777Y-11976674D01*
X14455777Y-11976674D02*
X14474825Y-11967150D01*
X14474825Y-11967150D02*
X14512920Y-11967150D01*
X14512920Y-11967150D02*
X14531968Y-11976674D01*
X14531968Y-11976674D02*
X14541491Y-11995722D01*
X14541491Y-11995722D02*
X14541491Y-12014769D01*
X14541491Y-12014769D02*
X14446253Y-12033817D01*
X14617682Y-12090960D02*
X14636730Y-12100484D01*
X14636730Y-12100484D02*
X14674825Y-12100484D01*
X14674825Y-12100484D02*
X14693872Y-12090960D01*
X14693872Y-12090960D02*
X14703396Y-12071912D01*
X14703396Y-12071912D02*
X14703396Y-12062388D01*
X14703396Y-12062388D02*
X14693872Y-12043341D01*
X14693872Y-12043341D02*
X14674825Y-12033817D01*
X14674825Y-12033817D02*
X14646253Y-12033817D01*
X14646253Y-12033817D02*
X14627206Y-12024293D01*
X14627206Y-12024293D02*
X14617682Y-12005246D01*
X14617682Y-12005246D02*
X14617682Y-11995722D01*
X14617682Y-11995722D02*
X14627206Y-11976674D01*
X14627206Y-11976674D02*
X14646253Y-11967150D01*
X14646253Y-11967150D02*
X14674825Y-11967150D01*
X14674825Y-11967150D02*
X14693872Y-11976674D01*
X14941492Y-12024293D02*
X15093873Y-12024293D01*
X15017682Y-12100484D02*
X15017682Y-11948103D01*
X15427206Y-11967150D02*
X15427206Y-12100484D01*
X15379587Y-11890960D02*
X15331968Y-12033817D01*
X15331968Y-12033817D02*
X15455777Y-12033817D01*
X15674825Y-12090960D02*
X15693873Y-12100484D01*
X15693873Y-12100484D02*
X15731968Y-12100484D01*
X15731968Y-12100484D02*
X15751015Y-12090960D01*
X15751015Y-12090960D02*
X15760539Y-12071912D01*
X15760539Y-12071912D02*
X15760539Y-12062388D01*
X15760539Y-12062388D02*
X15751015Y-12043341D01*
X15751015Y-12043341D02*
X15731968Y-12033817D01*
X15731968Y-12033817D02*
X15703396Y-12033817D01*
X15703396Y-12033817D02*
X15684349Y-12024293D01*
X15684349Y-12024293D02*
X15674825Y-12005246D01*
X15674825Y-12005246D02*
X15674825Y-11995722D01*
X15674825Y-11995722D02*
X15684349Y-11976674D01*
X15684349Y-11976674D02*
X15703396Y-11967150D01*
X15703396Y-11967150D02*
X15731968Y-11967150D01*
X15731968Y-11967150D02*
X15751015Y-11976674D01*
X15874825Y-12100484D02*
X15855777Y-12090960D01*
X15855777Y-12090960D02*
X15846254Y-12071912D01*
X15846254Y-12071912D02*
X15846254Y-11900484D01*
X15979587Y-12100484D02*
X15960539Y-12090960D01*
X15960539Y-12090960D02*
X15951015Y-12081436D01*
X15951015Y-12081436D02*
X15941492Y-12062388D01*
X15941492Y-12062388D02*
X15941492Y-12005246D01*
X15941492Y-12005246D02*
X15951015Y-11986198D01*
X15951015Y-11986198D02*
X15960539Y-11976674D01*
X15960539Y-11976674D02*
X15979587Y-11967150D01*
X15979587Y-11967150D02*
X16008158Y-11967150D01*
X16008158Y-11967150D02*
X16027206Y-11976674D01*
X16027206Y-11976674D02*
X16036730Y-11986198D01*
X16036730Y-11986198D02*
X16046254Y-12005246D01*
X16046254Y-12005246D02*
X16046254Y-12062388D01*
X16046254Y-12062388D02*
X16036730Y-12081436D01*
X16036730Y-12081436D02*
X16027206Y-12090960D01*
X16027206Y-12090960D02*
X16008158Y-12100484D01*
X16008158Y-12100484D02*
X15979587Y-12100484D01*
X16103396Y-11967150D02*
X16179587Y-11967150D01*
X16131968Y-11900484D02*
X16131968Y-12071912D01*
X16131968Y-12071912D02*
X16141492Y-12090960D01*
X16141492Y-12090960D02*
X16160539Y-12100484D01*
X16160539Y-12100484D02*
X16179587Y-12100484D01*
X16236730Y-12090960D02*
X16255777Y-12100484D01*
X16255777Y-12100484D02*
X16293873Y-12100484D01*
X16293873Y-12100484D02*
X16312920Y-12090960D01*
X16312920Y-12090960D02*
X16322444Y-12071912D01*
X16322444Y-12071912D02*
X16322444Y-12062388D01*
X16322444Y-12062388D02*
X16312920Y-12043341D01*
X16312920Y-12043341D02*
X16293873Y-12033817D01*
X16293873Y-12033817D02*
X16265301Y-12033817D01*
X16265301Y-12033817D02*
X16246254Y-12024293D01*
X16246254Y-12024293D02*
X16236730Y-12005246D01*
X16236730Y-12005246D02*
X16236730Y-11995722D01*
X16236730Y-11995722D02*
X16246254Y-11976674D01*
X16246254Y-11976674D02*
X16265301Y-11967150D01*
X16265301Y-11967150D02*
X16293873Y-11967150D01*
X16293873Y-11967150D02*
X16312920Y-11976674D01*
X16389111Y-12176674D02*
X16398635Y-12167150D01*
X16398635Y-12167150D02*
X16417682Y-12138579D01*
X16417682Y-12138579D02*
X16427206Y-12119531D01*
X16427206Y-12119531D02*
X16436730Y-12090960D01*
X16436730Y-12090960D02*
X16446254Y-12043341D01*
X16446254Y-12043341D02*
X16446254Y-12005246D01*
X16446254Y-12005246D02*
X16436730Y-11957627D01*
X16436730Y-11957627D02*
X16427206Y-11929055D01*
X16427206Y-11929055D02*
X16417682Y-11910008D01*
X16417682Y-11910008D02*
X16398635Y-11881436D01*
X16398635Y-11881436D02*
X16389111Y-11871912D01*
D10*
X9962500Y-12240500D02*
X9962500Y-12305500D01*
X9930000Y-12273000D02*
X9995000Y-12273000D01*
D11*
X10293872Y-12164484D02*
X10312920Y-12164484D01*
X10312920Y-12164484D02*
X10331967Y-12174008D01*
X10331967Y-12174008D02*
X10341491Y-12183531D01*
X10341491Y-12183531D02*
X10351015Y-12202579D01*
X10351015Y-12202579D02*
X10360539Y-12240674D01*
X10360539Y-12240674D02*
X10360539Y-12288293D01*
X10360539Y-12288293D02*
X10351015Y-12326388D01*
X10351015Y-12326388D02*
X10341491Y-12345436D01*
X10341491Y-12345436D02*
X10331967Y-12354960D01*
X10331967Y-12354960D02*
X10312920Y-12364484D01*
X10312920Y-12364484D02*
X10293872Y-12364484D01*
X10293872Y-12364484D02*
X10274824Y-12354960D01*
X10274824Y-12354960D02*
X10265301Y-12345436D01*
X10265301Y-12345436D02*
X10255777Y-12326388D01*
X10255777Y-12326388D02*
X10246253Y-12288293D01*
X10246253Y-12288293D02*
X10246253Y-12240674D01*
X10246253Y-12240674D02*
X10255777Y-12202579D01*
X10255777Y-12202579D02*
X10265301Y-12183531D01*
X10265301Y-12183531D02*
X10274824Y-12174008D01*
X10274824Y-12174008D02*
X10293872Y-12164484D01*
X10446253Y-12345436D02*
X10455777Y-12354960D01*
X10455777Y-12354960D02*
X10446253Y-12364484D01*
X10446253Y-12364484D02*
X10436729Y-12354960D01*
X10436729Y-12354960D02*
X10446253Y-12345436D01*
X10446253Y-12345436D02*
X10446253Y-12364484D01*
X10627205Y-12164484D02*
X10589110Y-12164484D01*
X10589110Y-12164484D02*
X10570063Y-12174008D01*
X10570063Y-12174008D02*
X10560539Y-12183531D01*
X10560539Y-12183531D02*
X10541491Y-12212103D01*
X10541491Y-12212103D02*
X10531967Y-12250198D01*
X10531967Y-12250198D02*
X10531967Y-12326388D01*
X10531967Y-12326388D02*
X10541491Y-12345436D01*
X10541491Y-12345436D02*
X10551015Y-12354960D01*
X10551015Y-12354960D02*
X10570063Y-12364484D01*
X10570063Y-12364484D02*
X10608158Y-12364484D01*
X10608158Y-12364484D02*
X10627205Y-12354960D01*
X10627205Y-12354960D02*
X10636729Y-12345436D01*
X10636729Y-12345436D02*
X10646253Y-12326388D01*
X10646253Y-12326388D02*
X10646253Y-12278769D01*
X10646253Y-12278769D02*
X10636729Y-12259722D01*
X10636729Y-12259722D02*
X10627205Y-12250198D01*
X10627205Y-12250198D02*
X10608158Y-12240674D01*
X10608158Y-12240674D02*
X10570063Y-12240674D01*
X10570063Y-12240674D02*
X10551015Y-12250198D01*
X10551015Y-12250198D02*
X10541491Y-12259722D01*
X10541491Y-12259722D02*
X10531967Y-12278769D01*
X10827205Y-12164484D02*
X10731967Y-12164484D01*
X10731967Y-12164484D02*
X10722444Y-12259722D01*
X10722444Y-12259722D02*
X10731967Y-12250198D01*
X10731967Y-12250198D02*
X10751015Y-12240674D01*
X10751015Y-12240674D02*
X10798634Y-12240674D01*
X10798634Y-12240674D02*
X10817682Y-12250198D01*
X10817682Y-12250198D02*
X10827205Y-12259722D01*
X10827205Y-12259722D02*
X10836729Y-12278769D01*
X10836729Y-12278769D02*
X10836729Y-12326388D01*
X10836729Y-12326388D02*
X10827205Y-12345436D01*
X10827205Y-12345436D02*
X10817682Y-12354960D01*
X10817682Y-12354960D02*
X10798634Y-12364484D01*
X10798634Y-12364484D02*
X10751015Y-12364484D01*
X10751015Y-12364484D02*
X10731967Y-12354960D01*
X10731967Y-12354960D02*
X10722444Y-12345436D01*
X10960539Y-12164484D02*
X10979586Y-12164484D01*
X10979586Y-12164484D02*
X10998634Y-12174008D01*
X10998634Y-12174008D02*
X11008158Y-12183531D01*
X11008158Y-12183531D02*
X11017682Y-12202579D01*
X11017682Y-12202579D02*
X11027205Y-12240674D01*
X11027205Y-12240674D02*
X11027205Y-12288293D01*
X11027205Y-12288293D02*
X11017682Y-12326388D01*
X11017682Y-12326388D02*
X11008158Y-12345436D01*
X11008158Y-12345436D02*
X10998634Y-12354960D01*
X10998634Y-12354960D02*
X10979586Y-12364484D01*
X10979586Y-12364484D02*
X10960539Y-12364484D01*
X10960539Y-12364484D02*
X10941491Y-12354960D01*
X10941491Y-12354960D02*
X10931967Y-12345436D01*
X10931967Y-12345436D02*
X10922444Y-12326388D01*
X10922444Y-12326388D02*
X10912920Y-12288293D01*
X10912920Y-12288293D02*
X10912920Y-12240674D01*
X10912920Y-12240674D02*
X10922444Y-12202579D01*
X10922444Y-12202579D02*
X10931967Y-12183531D01*
X10931967Y-12183531D02*
X10941491Y-12174008D01*
X10941491Y-12174008D02*
X10960539Y-12164484D01*
X11112920Y-12364484D02*
X11112920Y-12231150D01*
X11112920Y-12250198D02*
X11122444Y-12240674D01*
X11122444Y-12240674D02*
X11141491Y-12231150D01*
X11141491Y-12231150D02*
X11170063Y-12231150D01*
X11170063Y-12231150D02*
X11189110Y-12240674D01*
X11189110Y-12240674D02*
X11198634Y-12259722D01*
X11198634Y-12259722D02*
X11198634Y-12364484D01*
X11198634Y-12259722D02*
X11208158Y-12240674D01*
X11208158Y-12240674D02*
X11227205Y-12231150D01*
X11227205Y-12231150D02*
X11255777Y-12231150D01*
X11255777Y-12231150D02*
X11274824Y-12240674D01*
X11274824Y-12240674D02*
X11284348Y-12259722D01*
X11284348Y-12259722D02*
X11284348Y-12364484D01*
X11379586Y-12364484D02*
X11379586Y-12231150D01*
X11379586Y-12250198D02*
X11389110Y-12240674D01*
X11389110Y-12240674D02*
X11408158Y-12231150D01*
X11408158Y-12231150D02*
X11436729Y-12231150D01*
X11436729Y-12231150D02*
X11455777Y-12240674D01*
X11455777Y-12240674D02*
X11465301Y-12259722D01*
X11465301Y-12259722D02*
X11465301Y-12364484D01*
X11465301Y-12259722D02*
X11474824Y-12240674D01*
X11474824Y-12240674D02*
X11493872Y-12231150D01*
X11493872Y-12231150D02*
X11522443Y-12231150D01*
X11522443Y-12231150D02*
X11541491Y-12240674D01*
X11541491Y-12240674D02*
X11551015Y-12259722D01*
X11551015Y-12259722D02*
X11551015Y-12364484D01*
X11941491Y-12154960D02*
X11770063Y-12412103D01*
X12198634Y-12164484D02*
X12217682Y-12164484D01*
X12217682Y-12164484D02*
X12236729Y-12174008D01*
X12236729Y-12174008D02*
X12246253Y-12183531D01*
X12246253Y-12183531D02*
X12255777Y-12202579D01*
X12255777Y-12202579D02*
X12265301Y-12240674D01*
X12265301Y-12240674D02*
X12265301Y-12288293D01*
X12265301Y-12288293D02*
X12255777Y-12326388D01*
X12255777Y-12326388D02*
X12246253Y-12345436D01*
X12246253Y-12345436D02*
X12236729Y-12354960D01*
X12236729Y-12354960D02*
X12217682Y-12364484D01*
X12217682Y-12364484D02*
X12198634Y-12364484D01*
X12198634Y-12364484D02*
X12179586Y-12354960D01*
X12179586Y-12354960D02*
X12170063Y-12345436D01*
X12170063Y-12345436D02*
X12160539Y-12326388D01*
X12160539Y-12326388D02*
X12151015Y-12288293D01*
X12151015Y-12288293D02*
X12151015Y-12240674D01*
X12151015Y-12240674D02*
X12160539Y-12202579D01*
X12160539Y-12202579D02*
X12170063Y-12183531D01*
X12170063Y-12183531D02*
X12179586Y-12174008D01*
X12179586Y-12174008D02*
X12198634Y-12164484D01*
X12351015Y-12345436D02*
X12360539Y-12354960D01*
X12360539Y-12354960D02*
X12351015Y-12364484D01*
X12351015Y-12364484D02*
X12341491Y-12354960D01*
X12341491Y-12354960D02*
X12351015Y-12345436D01*
X12351015Y-12345436D02*
X12351015Y-12364484D01*
X12484348Y-12164484D02*
X12503396Y-12164484D01*
X12503396Y-12164484D02*
X12522444Y-12174008D01*
X12522444Y-12174008D02*
X12531967Y-12183531D01*
X12531967Y-12183531D02*
X12541491Y-12202579D01*
X12541491Y-12202579D02*
X12551015Y-12240674D01*
X12551015Y-12240674D02*
X12551015Y-12288293D01*
X12551015Y-12288293D02*
X12541491Y-12326388D01*
X12541491Y-12326388D02*
X12531967Y-12345436D01*
X12531967Y-12345436D02*
X12522444Y-12354960D01*
X12522444Y-12354960D02*
X12503396Y-12364484D01*
X12503396Y-12364484D02*
X12484348Y-12364484D01*
X12484348Y-12364484D02*
X12465301Y-12354960D01*
X12465301Y-12354960D02*
X12455777Y-12345436D01*
X12455777Y-12345436D02*
X12446253Y-12326388D01*
X12446253Y-12326388D02*
X12436729Y-12288293D01*
X12436729Y-12288293D02*
X12436729Y-12240674D01*
X12436729Y-12240674D02*
X12446253Y-12202579D01*
X12446253Y-12202579D02*
X12455777Y-12183531D01*
X12455777Y-12183531D02*
X12465301Y-12174008D01*
X12465301Y-12174008D02*
X12484348Y-12164484D01*
X12627206Y-12183531D02*
X12636729Y-12174008D01*
X12636729Y-12174008D02*
X12655777Y-12164484D01*
X12655777Y-12164484D02*
X12703396Y-12164484D01*
X12703396Y-12164484D02*
X12722444Y-12174008D01*
X12722444Y-12174008D02*
X12731967Y-12183531D01*
X12731967Y-12183531D02*
X12741491Y-12202579D01*
X12741491Y-12202579D02*
X12741491Y-12221627D01*
X12741491Y-12221627D02*
X12731967Y-12250198D01*
X12731967Y-12250198D02*
X12617682Y-12364484D01*
X12617682Y-12364484D02*
X12741491Y-12364484D01*
X12922444Y-12164484D02*
X12827206Y-12164484D01*
X12827206Y-12164484D02*
X12817682Y-12259722D01*
X12817682Y-12259722D02*
X12827206Y-12250198D01*
X12827206Y-12250198D02*
X12846253Y-12240674D01*
X12846253Y-12240674D02*
X12893872Y-12240674D01*
X12893872Y-12240674D02*
X12912920Y-12250198D01*
X12912920Y-12250198D02*
X12922444Y-12259722D01*
X12922444Y-12259722D02*
X12931967Y-12278769D01*
X12931967Y-12278769D02*
X12931967Y-12326388D01*
X12931967Y-12326388D02*
X12922444Y-12345436D01*
X12922444Y-12345436D02*
X12912920Y-12354960D01*
X12912920Y-12354960D02*
X12893872Y-12364484D01*
X12893872Y-12364484D02*
X12846253Y-12364484D01*
X12846253Y-12364484D02*
X12827206Y-12354960D01*
X12827206Y-12354960D02*
X12817682Y-12345436D01*
X13103396Y-12164484D02*
X13065301Y-12164484D01*
X13065301Y-12164484D02*
X13046253Y-12174008D01*
X13046253Y-12174008D02*
X13036729Y-12183531D01*
X13036729Y-12183531D02*
X13017682Y-12212103D01*
X13017682Y-12212103D02*
X13008158Y-12250198D01*
X13008158Y-12250198D02*
X13008158Y-12326388D01*
X13008158Y-12326388D02*
X13017682Y-12345436D01*
X13017682Y-12345436D02*
X13027206Y-12354960D01*
X13027206Y-12354960D02*
X13046253Y-12364484D01*
X13046253Y-12364484D02*
X13084348Y-12364484D01*
X13084348Y-12364484D02*
X13103396Y-12354960D01*
X13103396Y-12354960D02*
X13112920Y-12345436D01*
X13112920Y-12345436D02*
X13122444Y-12326388D01*
X13122444Y-12326388D02*
X13122444Y-12278769D01*
X13122444Y-12278769D02*
X13112920Y-12259722D01*
X13112920Y-12259722D02*
X13103396Y-12250198D01*
X13103396Y-12250198D02*
X13084348Y-12240674D01*
X13084348Y-12240674D02*
X13046253Y-12240674D01*
X13046253Y-12240674D02*
X13027206Y-12250198D01*
X13027206Y-12250198D02*
X13017682Y-12259722D01*
X13017682Y-12259722D02*
X13008158Y-12278769D01*
X13198634Y-12164484D02*
X13198634Y-12202579D01*
X13274825Y-12164484D02*
X13274825Y-12202579D01*
X13570063Y-12440674D02*
X13560539Y-12431150D01*
X13560539Y-12431150D02*
X13541491Y-12402579D01*
X13541491Y-12402579D02*
X13531968Y-12383531D01*
X13531968Y-12383531D02*
X13522444Y-12354960D01*
X13522444Y-12354960D02*
X13512920Y-12307341D01*
X13512920Y-12307341D02*
X13512920Y-12269246D01*
X13512920Y-12269246D02*
X13522444Y-12221627D01*
X13522444Y-12221627D02*
X13531968Y-12193055D01*
X13531968Y-12193055D02*
X13541491Y-12174008D01*
X13541491Y-12174008D02*
X13560539Y-12145436D01*
X13560539Y-12145436D02*
X13570063Y-12135912D01*
X13636729Y-12183531D02*
X13646253Y-12174008D01*
X13646253Y-12174008D02*
X13665301Y-12164484D01*
X13665301Y-12164484D02*
X13712920Y-12164484D01*
X13712920Y-12164484D02*
X13731968Y-12174008D01*
X13731968Y-12174008D02*
X13741491Y-12183531D01*
X13741491Y-12183531D02*
X13751015Y-12202579D01*
X13751015Y-12202579D02*
X13751015Y-12221627D01*
X13751015Y-12221627D02*
X13741491Y-12250198D01*
X13741491Y-12250198D02*
X13627206Y-12364484D01*
X13627206Y-12364484D02*
X13751015Y-12364484D01*
X13989110Y-12364484D02*
X13989110Y-12164484D01*
X14074825Y-12364484D02*
X14074825Y-12259722D01*
X14074825Y-12259722D02*
X14065301Y-12240674D01*
X14065301Y-12240674D02*
X14046253Y-12231150D01*
X14046253Y-12231150D02*
X14017682Y-12231150D01*
X14017682Y-12231150D02*
X13998634Y-12240674D01*
X13998634Y-12240674D02*
X13989110Y-12250198D01*
X14198634Y-12364484D02*
X14179587Y-12354960D01*
X14179587Y-12354960D02*
X14170063Y-12345436D01*
X14170063Y-12345436D02*
X14160539Y-12326388D01*
X14160539Y-12326388D02*
X14160539Y-12269246D01*
X14160539Y-12269246D02*
X14170063Y-12250198D01*
X14170063Y-12250198D02*
X14179587Y-12240674D01*
X14179587Y-12240674D02*
X14198634Y-12231150D01*
X14198634Y-12231150D02*
X14227206Y-12231150D01*
X14227206Y-12231150D02*
X14246253Y-12240674D01*
X14246253Y-12240674D02*
X14255777Y-12250198D01*
X14255777Y-12250198D02*
X14265301Y-12269246D01*
X14265301Y-12269246D02*
X14265301Y-12326388D01*
X14265301Y-12326388D02*
X14255777Y-12345436D01*
X14255777Y-12345436D02*
X14246253Y-12354960D01*
X14246253Y-12354960D02*
X14227206Y-12364484D01*
X14227206Y-12364484D02*
X14198634Y-12364484D01*
X14379587Y-12364484D02*
X14360539Y-12354960D01*
X14360539Y-12354960D02*
X14351015Y-12335912D01*
X14351015Y-12335912D02*
X14351015Y-12164484D01*
X14531968Y-12354960D02*
X14512920Y-12364484D01*
X14512920Y-12364484D02*
X14474825Y-12364484D01*
X14474825Y-12364484D02*
X14455777Y-12354960D01*
X14455777Y-12354960D02*
X14446253Y-12335912D01*
X14446253Y-12335912D02*
X14446253Y-12259722D01*
X14446253Y-12259722D02*
X14455777Y-12240674D01*
X14455777Y-12240674D02*
X14474825Y-12231150D01*
X14474825Y-12231150D02*
X14512920Y-12231150D01*
X14512920Y-12231150D02*
X14531968Y-12240674D01*
X14531968Y-12240674D02*
X14541491Y-12259722D01*
X14541491Y-12259722D02*
X14541491Y-12278769D01*
X14541491Y-12278769D02*
X14446253Y-12297817D01*
X14617682Y-12354960D02*
X14636730Y-12364484D01*
X14636730Y-12364484D02*
X14674825Y-12364484D01*
X14674825Y-12364484D02*
X14693872Y-12354960D01*
X14693872Y-12354960D02*
X14703396Y-12335912D01*
X14703396Y-12335912D02*
X14703396Y-12326388D01*
X14703396Y-12326388D02*
X14693872Y-12307341D01*
X14693872Y-12307341D02*
X14674825Y-12297817D01*
X14674825Y-12297817D02*
X14646253Y-12297817D01*
X14646253Y-12297817D02*
X14627206Y-12288293D01*
X14627206Y-12288293D02*
X14617682Y-12269246D01*
X14617682Y-12269246D02*
X14617682Y-12259722D01*
X14617682Y-12259722D02*
X14627206Y-12240674D01*
X14627206Y-12240674D02*
X14646253Y-12231150D01*
X14646253Y-12231150D02*
X14674825Y-12231150D01*
X14674825Y-12231150D02*
X14693872Y-12240674D01*
X14770063Y-12440674D02*
X14779587Y-12431150D01*
X14779587Y-12431150D02*
X14798634Y-12402579D01*
X14798634Y-12402579D02*
X14808158Y-12383531D01*
X14808158Y-12383531D02*
X14817682Y-12354960D01*
X14817682Y-12354960D02*
X14827206Y-12307341D01*
X14827206Y-12307341D02*
X14827206Y-12269246D01*
X14827206Y-12269246D02*
X14817682Y-12221627D01*
X14817682Y-12221627D02*
X14808158Y-12193055D01*
X14808158Y-12193055D02*
X14798634Y-12174008D01*
X14798634Y-12174008D02*
X14779587Y-12145436D01*
X14779587Y-12145436D02*
X14770063Y-12135912D01*
X15131968Y-12440674D02*
X15122444Y-12431150D01*
X15122444Y-12431150D02*
X15103396Y-12402579D01*
X15103396Y-12402579D02*
X15093872Y-12383531D01*
X15093872Y-12383531D02*
X15084349Y-12354960D01*
X15084349Y-12354960D02*
X15074825Y-12307341D01*
X15074825Y-12307341D02*
X15074825Y-12269246D01*
X15074825Y-12269246D02*
X15084349Y-12221627D01*
X15084349Y-12221627D02*
X15093872Y-12193055D01*
X15093872Y-12193055D02*
X15103396Y-12174008D01*
X15103396Y-12174008D02*
X15122444Y-12145436D01*
X15122444Y-12145436D02*
X15131968Y-12135912D01*
X15208158Y-12231150D02*
X15208158Y-12364484D01*
X15208158Y-12250198D02*
X15217682Y-12240674D01*
X15217682Y-12240674D02*
X15236730Y-12231150D01*
X15236730Y-12231150D02*
X15265301Y-12231150D01*
X15265301Y-12231150D02*
X15284349Y-12240674D01*
X15284349Y-12240674D02*
X15293872Y-12259722D01*
X15293872Y-12259722D02*
X15293872Y-12364484D01*
X15417682Y-12364484D02*
X15398634Y-12354960D01*
X15398634Y-12354960D02*
X15389111Y-12345436D01*
X15389111Y-12345436D02*
X15379587Y-12326388D01*
X15379587Y-12326388D02*
X15379587Y-12269246D01*
X15379587Y-12269246D02*
X15389111Y-12250198D01*
X15389111Y-12250198D02*
X15398634Y-12240674D01*
X15398634Y-12240674D02*
X15417682Y-12231150D01*
X15417682Y-12231150D02*
X15446253Y-12231150D01*
X15446253Y-12231150D02*
X15465301Y-12240674D01*
X15465301Y-12240674D02*
X15474825Y-12250198D01*
X15474825Y-12250198D02*
X15484349Y-12269246D01*
X15484349Y-12269246D02*
X15484349Y-12326388D01*
X15484349Y-12326388D02*
X15474825Y-12345436D01*
X15474825Y-12345436D02*
X15465301Y-12354960D01*
X15465301Y-12354960D02*
X15446253Y-12364484D01*
X15446253Y-12364484D02*
X15417682Y-12364484D01*
X15541492Y-12231150D02*
X15617682Y-12231150D01*
X15570063Y-12164484D02*
X15570063Y-12335912D01*
X15570063Y-12335912D02*
X15579587Y-12354960D01*
X15579587Y-12354960D02*
X15598634Y-12364484D01*
X15598634Y-12364484D02*
X15617682Y-12364484D01*
X15836730Y-12231150D02*
X15836730Y-12431150D01*
X15836730Y-12240674D02*
X15855777Y-12231150D01*
X15855777Y-12231150D02*
X15893873Y-12231150D01*
X15893873Y-12231150D02*
X15912920Y-12240674D01*
X15912920Y-12240674D02*
X15922444Y-12250198D01*
X15922444Y-12250198D02*
X15931968Y-12269246D01*
X15931968Y-12269246D02*
X15931968Y-12326388D01*
X15931968Y-12326388D02*
X15922444Y-12345436D01*
X15922444Y-12345436D02*
X15912920Y-12354960D01*
X15912920Y-12354960D02*
X15893873Y-12364484D01*
X15893873Y-12364484D02*
X15855777Y-12364484D01*
X15855777Y-12364484D02*
X15836730Y-12354960D01*
X16046253Y-12364484D02*
X16027206Y-12354960D01*
X16027206Y-12354960D02*
X16017682Y-12335912D01*
X16017682Y-12335912D02*
X16017682Y-12164484D01*
X16208158Y-12364484D02*
X16208158Y-12259722D01*
X16208158Y-12259722D02*
X16198634Y-12240674D01*
X16198634Y-12240674D02*
X16179587Y-12231150D01*
X16179587Y-12231150D02*
X16141492Y-12231150D01*
X16141492Y-12231150D02*
X16122444Y-12240674D01*
X16208158Y-12354960D02*
X16189111Y-12364484D01*
X16189111Y-12364484D02*
X16141492Y-12364484D01*
X16141492Y-12364484D02*
X16122444Y-12354960D01*
X16122444Y-12354960D02*
X16112920Y-12335912D01*
X16112920Y-12335912D02*
X16112920Y-12316865D01*
X16112920Y-12316865D02*
X16122444Y-12297817D01*
X16122444Y-12297817D02*
X16141492Y-12288293D01*
X16141492Y-12288293D02*
X16189111Y-12288293D01*
X16189111Y-12288293D02*
X16208158Y-12278769D01*
X16274825Y-12231150D02*
X16351015Y-12231150D01*
X16303396Y-12164484D02*
X16303396Y-12335912D01*
X16303396Y-12335912D02*
X16312920Y-12354960D01*
X16312920Y-12354960D02*
X16331968Y-12364484D01*
X16331968Y-12364484D02*
X16351015Y-12364484D01*
X16493873Y-12354960D02*
X16474825Y-12364484D01*
X16474825Y-12364484D02*
X16436730Y-12364484D01*
X16436730Y-12364484D02*
X16417682Y-12354960D01*
X16417682Y-12354960D02*
X16408158Y-12335912D01*
X16408158Y-12335912D02*
X16408158Y-12259722D01*
X16408158Y-12259722D02*
X16417682Y-12240674D01*
X16417682Y-12240674D02*
X16436730Y-12231150D01*
X16436730Y-12231150D02*
X16474825Y-12231150D01*
X16474825Y-12231150D02*
X16493873Y-12240674D01*
X16493873Y-12240674D02*
X16503396Y-12259722D01*
X16503396Y-12259722D02*
X16503396Y-12278769D01*
X16503396Y-12278769D02*
X16408158Y-12297817D01*
X16674825Y-12364484D02*
X16674825Y-12164484D01*
X16674825Y-12354960D02*
X16655777Y-12364484D01*
X16655777Y-12364484D02*
X16617682Y-12364484D01*
X16617682Y-12364484D02*
X16598634Y-12354960D01*
X16598634Y-12354960D02*
X16589111Y-12345436D01*
X16589111Y-12345436D02*
X16579587Y-12326388D01*
X16579587Y-12326388D02*
X16579587Y-12269246D01*
X16579587Y-12269246D02*
X16589111Y-12250198D01*
X16589111Y-12250198D02*
X16598634Y-12240674D01*
X16598634Y-12240674D02*
X16617682Y-12231150D01*
X16617682Y-12231150D02*
X16655777Y-12231150D01*
X16655777Y-12231150D02*
X16674825Y-12240674D01*
X16751015Y-12440674D02*
X16760539Y-12431150D01*
X16760539Y-12431150D02*
X16779587Y-12402579D01*
X16779587Y-12402579D02*
X16789111Y-12383531D01*
X16789111Y-12383531D02*
X16798635Y-12354960D01*
X16798635Y-12354960D02*
X16808158Y-12307341D01*
X16808158Y-12307341D02*
X16808158Y-12269246D01*
X16808158Y-12269246D02*
X16798635Y-12221627D01*
X16798635Y-12221627D02*
X16789111Y-12193055D01*
X16789111Y-12193055D02*
X16779587Y-12174008D01*
X16779587Y-12174008D02*
X16760539Y-12145436D01*
X16760539Y-12145436D02*
X16751015Y-12135912D01*
M02*
