%TF.GenerationSoftware,KiCad,Pcbnew,10.0.5*%
%TF.CreationDate,2026-08-25T17:32:42+02:00*%
%TF.ProjectId,env-sensor-a,656e762d-7365-46e7-936f-722d612e6b69,HW A1*%
%TF.SameCoordinates,Original*%
%TF.FileFunction,Soldermask,Top*%
%TF.FilePolarity,Negative*%
%FSLAX46Y46*%
G04 Gerber Fmt 4.6, Leading zero omitted, Abs format (unit mm)*
G04 Created by KiCad (PCBNEW 10.0.5) date 2026-08-25 17:32:42*
%MOMM*%
%LPD*%
G01*
G04 APERTURE LIST*
G04 Aperture macros list*
%AMRoundRect*
0 Rectangle with rounded corners*
0 $1 Rounding radius*
0 $2 $3 $4 $5 $6 $7 $8 $9 X,Y pos of 4 corners*
0 Add a 4 corners polygon primitive as box body*
4,1,4,$2,$3,$4,$5,$6,$7,$8,$9,$2,$3,0*
0 Add four circle primitives for the rounded corners*
1,1,$1+$1,$2,$3*
1,1,$1+$1,$4,$5*
1,1,$1+$1,$6,$7*
1,1,$1+$1,$8,$9*
0 Add four rect primitives between the rounded corners*
20,1,$1+$1,$2,$3,$4,$5,0*
20,1,$1+$1,$4,$5,$6,$7,0*
20,1,$1+$1,$6,$7,$8,$9,0*
20,1,$1+$1,$8,$9,$2,$3,0*%
%AMOutline5P*
0 Free polygon, 5 corners , with rotation*
0 The origin of the aperture is its center*
0 number of corners: always 5*
0 $1 to $10 corner X, Y*
0 $11 Rotation angle, in degrees counterclockwise*
0 create outline with 5 corners*
4,1,5,$1,$2,$3,$4,$5,$6,$7,$8,$9,$10,$1,$2,$11*%
%AMOutline6P*
0 Free polygon, 6 corners , with rotation*
0 The origin of the aperture is its center*
0 number of corners: always 6*
0 $1 to $12 corner X, Y*
0 $13 Rotation angle, in degrees counterclockwise*
0 create outline with 6 corners*
4,1,6,$1,$2,$3,$4,$5,$6,$7,$8,$9,$10,$11,$12,$1,$2,$13*%
%AMOutline7P*
0 Free polygon, 7 corners , with rotation*
0 The origin of the aperture is its center*
0 number of corners: always 7*
0 $1 to $14 corner X, Y*
0 $15 Rotation angle, in degrees counterclockwise*
0 create outline with 7 corners*
4,1,7,$1,$2,$3,$4,$5,$6,$7,$8,$9,$10,$11,$12,$13,$14,$1,$2,$15*%
%AMOutline8P*
0 Free polygon, 8 corners , with rotation*
0 The origin of the aperture is its center*
0 number of corners: always 8*
0 $1 to $16 corner X, Y*
0 $17 Rotation angle, in degrees counterclockwise*
0 create outline with 8 corners*
4,1,8,$1,$2,$3,$4,$5,$6,$7,$8,$9,$10,$11,$12,$13,$14,$15,$16,$1,$2,$17*%
G04 Aperture macros list end*
%ADD10RoundRect,0.250000X0.475000X-0.250000X0.475000X0.250000X-0.475000X0.250000X-0.475000X-0.250000X0*%
%ADD11RoundRect,0.250000X-0.250000X-0.475000X0.250000X-0.475000X0.250000X0.475000X-0.250000X0.475000X0*%
%ADD12RoundRect,0.135000X0.185000X-0.135000X0.185000X0.135000X-0.185000X0.135000X-0.185000X-0.135000X0*%
%ADD13RoundRect,0.135000X-0.135000X-0.185000X0.135000X-0.185000X0.135000X0.185000X-0.135000X0.185000X0*%
%ADD14RoundRect,0.140000X0.170000X-0.140000X0.170000X0.140000X-0.170000X0.140000X-0.170000X-0.140000X0*%
%ADD15RoundRect,0.140000X-0.140000X-0.170000X0.140000X-0.170000X0.140000X0.170000X-0.140000X0.170000X0*%
%ADD16RoundRect,0.225000X-0.225000X-0.250000X0.225000X-0.250000X0.225000X0.250000X-0.225000X0.250000X0*%
%ADD17R,0.500000X0.300000*%
%ADD18R,0.800000X0.400000*%
%ADD19R,0.400000X0.800000*%
%ADD20Outline5P,-0.725000X0.130500X-0.130500X0.725000X0.725000X0.725000X0.725000X-0.725000X-0.725000X-0.725000X0.000000*%
%ADD21R,1.450000X1.450000*%
%ADD22R,0.700000X0.700000*%
%ADD23RoundRect,0.062500X-0.375000X-0.062500X0.375000X-0.062500X0.375000X0.062500X-0.375000X0.062500X0*%
%ADD24RoundRect,0.062500X-0.062500X-0.375000X0.062500X-0.375000X0.062500X0.375000X-0.062500X0.375000X0*%
%ADD25R,1.600000X1.600000*%
%ADD26RoundRect,0.250000X1.500000X-0.250000X1.500000X0.250000X-1.500000X0.250000X-1.500000X-0.250000X0*%
%ADD27RoundRect,0.250001X1.449999X-0.499999X1.449999X0.499999X-1.449999X0.499999X-1.449999X-0.499999X0*%
%ADD28RoundRect,0.137500X-0.137500X-0.662500X0.137500X-0.662500X0.137500X0.662500X-0.137500X0.662500X0*%
%ADD29RoundRect,0.050000X-0.250000X-0.075000X0.250000X-0.075000X0.250000X0.075000X-0.250000X0.075000X0*%
%ADD30R,1.550000X1.000000*%
%ADD31RoundRect,0.225000X0.250000X-0.225000X0.250000X0.225000X-0.250000X0.225000X-0.250000X-0.225000X0*%
%ADD32C,0.650000*%
%ADD33RoundRect,0.150000X0.575000X-0.150000X0.575000X0.150000X-0.575000X0.150000X-0.575000X-0.150000X0*%
%ADD34RoundRect,0.075000X0.650000X-0.075000X0.650000X0.075000X-0.650000X0.075000X-0.650000X-0.075000X0*%
%ADD35O,2.100000X1.000000*%
%ADD36O,1.600000X1.000000*%
%ADD37RoundRect,0.218750X-0.218750X-0.256250X0.218750X-0.256250X0.218750X0.256250X-0.218750X0.256250X0*%
%ADD38RoundRect,0.150000X-0.512500X-0.150000X0.512500X-0.150000X0.512500X0.150000X-0.512500X0.150000X0*%
G04 APERTURE END LIST*
D10*
%TO.C,C1*%
X106000000Y-76950000D03*
X106000000Y-75050000D03*
%TD*%
D11*
%TO.C,C11*%
X126700000Y-75500000D03*
X128600000Y-75500000D03*
%TD*%
D12*
%TO.C,R13*%
X127150000Y-73760000D03*
X127150000Y-72740000D03*
%TD*%
D13*
%TO.C,R8*%
X121390000Y-67750000D03*
X122410000Y-67750000D03*
%TD*%
D14*
%TO.C,C6*%
X119500000Y-92780000D03*
X119500000Y-91820000D03*
%TD*%
D15*
%TO.C,C5*%
X108720000Y-92500000D03*
X109680000Y-92500000D03*
%TD*%
D16*
%TO.C,C7*%
X101375000Y-67750000D03*
X102925000Y-67750000D03*
%TD*%
D17*
%TO.C,U2*%
X115300000Y-91900000D03*
X115300000Y-92700000D03*
X116700000Y-92700000D03*
X116700000Y-91900000D03*
%TD*%
D14*
%TO.C,C12*%
X121650000Y-69730000D03*
X121650000Y-68770000D03*
%TD*%
D13*
%TO.C,R3*%
X107490000Y-91300000D03*
X108510000Y-91300000D03*
%TD*%
%TO.C,R10*%
X123390000Y-67750000D03*
X124410000Y-67750000D03*
%TD*%
D18*
%TO.C,U1*%
X108100000Y-67500000D03*
X108100000Y-68300000D03*
X108100000Y-69100000D03*
X108100000Y-69900000D03*
X108100000Y-70700000D03*
X108100000Y-71500000D03*
X108100000Y-72300000D03*
X108100000Y-73100000D03*
X108100000Y-73900000D03*
X108100000Y-74700000D03*
X108100000Y-75500000D03*
D19*
X109200000Y-76400000D03*
X110000000Y-76400000D03*
X110800000Y-76400000D03*
X111600000Y-76400000D03*
X112400000Y-76400000D03*
X113200000Y-76400000D03*
X114000000Y-76400000D03*
X114800000Y-76400000D03*
X115600000Y-76400000D03*
X116400000Y-76400000D03*
X117200000Y-76400000D03*
X118000000Y-76400000D03*
X118800000Y-76400000D03*
D18*
X119900000Y-75500000D03*
X119900000Y-74700000D03*
X119900000Y-73900000D03*
X119900000Y-73100000D03*
X119900000Y-72300000D03*
X119900000Y-71500000D03*
X119900000Y-70700000D03*
X119900000Y-69900000D03*
X119900000Y-69100000D03*
X119900000Y-68300000D03*
X119900000Y-67500000D03*
D19*
X118800000Y-66600000D03*
X118000000Y-66600000D03*
X117200000Y-66600000D03*
X116400000Y-66600000D03*
X115600000Y-66600000D03*
X114800000Y-66600000D03*
X114000000Y-66600000D03*
X113200000Y-66600000D03*
X112400000Y-66600000D03*
X111600000Y-66600000D03*
X110800000Y-66600000D03*
X110000000Y-66600000D03*
X109200000Y-66600000D03*
D20*
X112025000Y-69525000D03*
D21*
X112025000Y-71500000D03*
X112025000Y-73475000D03*
X114000000Y-69525000D03*
X114000000Y-71500000D03*
X114000000Y-73475000D03*
X115975000Y-69525000D03*
X115975000Y-71500000D03*
X115975000Y-73475000D03*
D22*
X119950000Y-66550000D03*
X119950000Y-76450000D03*
X108050000Y-76450000D03*
X108050000Y-66550000D03*
%TD*%
D23*
%TO.C,U4*%
X122962500Y-69750000D03*
X122962500Y-70250000D03*
X122962500Y-70750000D03*
X122962500Y-71250000D03*
D24*
X123650000Y-71937500D03*
X124150000Y-71937500D03*
X124650000Y-71937500D03*
X125150000Y-71937500D03*
D23*
X125837500Y-71250000D03*
X125837500Y-70750000D03*
X125837500Y-70250000D03*
X125837500Y-69750000D03*
D24*
X125150000Y-69062500D03*
X124650000Y-69062500D03*
X124150000Y-69062500D03*
X123650000Y-69062500D03*
D25*
X124400000Y-70500000D03*
%TD*%
D13*
%TO.C,R14*%
X124590000Y-79250000D03*
X125610000Y-79250000D03*
%TD*%
D26*
%TO.C,J2*%
X120000000Y-85500000D03*
X120000000Y-83500000D03*
D27*
X125750000Y-87850000D03*
X125750000Y-81150000D03*
%TD*%
D13*
%TO.C,R2*%
X104290000Y-78500000D03*
X105310000Y-78500000D03*
%TD*%
%TO.C,R9*%
X122640000Y-73250000D03*
X123660000Y-73250000D03*
%TD*%
%TO.C,R15*%
X124590000Y-89750000D03*
X125610000Y-89750000D03*
%TD*%
D12*
%TO.C,R5*%
X101400000Y-72510000D03*
X101400000Y-71490000D03*
%TD*%
D28*
%TO.C,L1*%
X102675000Y-73200000D03*
X104125000Y-73200000D03*
%TD*%
D29*
%TO.C,U3*%
X102750000Y-69250000D03*
X102750000Y-69750000D03*
X102750000Y-70250000D03*
X102750000Y-70750000D03*
X104050000Y-70750000D03*
X104050000Y-70250000D03*
X104050000Y-69750000D03*
X104050000Y-69250000D03*
%TD*%
D13*
%TO.C,R11*%
X124640000Y-73250000D03*
X125660000Y-73250000D03*
%TD*%
D14*
%TO.C,C3*%
X121500000Y-77230000D03*
X121500000Y-76270000D03*
%TD*%
D11*
%TO.C,C10*%
X123200000Y-75000000D03*
X125100000Y-75000000D03*
%TD*%
D13*
%TO.C,R16*%
X100990000Y-78500000D03*
X102010000Y-78500000D03*
%TD*%
D15*
%TO.C,C2*%
X106270000Y-78500000D03*
X107230000Y-78500000D03*
%TD*%
D13*
%TO.C,R1*%
X105490000Y-66500000D03*
X106510000Y-66500000D03*
%TD*%
D12*
%TO.C,R7*%
X121650000Y-73760000D03*
X121650000Y-72740000D03*
%TD*%
D15*
%TO.C,C14*%
X103020000Y-90500000D03*
X103980000Y-90500000D03*
%TD*%
D30*
%TO.C,SW1*%
X111075000Y-87150000D03*
X116325000Y-87150000D03*
X111075000Y-88850000D03*
X116325000Y-88850000D03*
%TD*%
D10*
%TO.C,C9*%
X127650000Y-71200000D03*
X127650000Y-69300000D03*
%TD*%
D31*
%TO.C,C8*%
X105650000Y-73025000D03*
X105650000Y-71475000D03*
%TD*%
D32*
%TO.C,J1*%
X102900000Y-87390000D03*
X102900000Y-81610000D03*
D33*
X101455000Y-87750000D03*
X101455000Y-86950000D03*
D34*
X101455000Y-85750000D03*
X101455000Y-84750000D03*
X101455000Y-84250000D03*
X101455000Y-83250000D03*
D33*
X101455000Y-82050000D03*
X101455000Y-81250000D03*
X101455000Y-81250000D03*
X101455000Y-82050000D03*
D34*
X101455000Y-82750000D03*
X101455000Y-83750000D03*
X101455000Y-85250000D03*
X101455000Y-86250000D03*
D33*
X101455000Y-86950000D03*
X101455000Y-87750000D03*
D35*
X102370000Y-88820000D03*
D36*
X106550000Y-88820000D03*
D35*
X102370000Y-80180000D03*
D36*
X106550000Y-80180000D03*
%TD*%
D37*
%TO.C,D1*%
X110512500Y-82000000D03*
X112087500Y-82000000D03*
%TD*%
D15*
%TO.C,C13*%
X126620000Y-79250000D03*
X127580000Y-79250000D03*
%TD*%
D13*
%TO.C,R12*%
X125390000Y-67750000D03*
X126410000Y-67750000D03*
%TD*%
%TO.C,R4*%
X109490000Y-91300000D03*
X110510000Y-91300000D03*
%TD*%
%TO.C,R6*%
X104390000Y-68000000D03*
X105410000Y-68000000D03*
%TD*%
%TO.C,R17*%
X100990000Y-90500000D03*
X102010000Y-90500000D03*
%TD*%
D15*
%TO.C,C4*%
X121520000Y-66500000D03*
X122480000Y-66500000D03*
%TD*%
D38*
%TO.C,U5*%
X114362500Y-81050000D03*
X114362500Y-82000000D03*
X114362500Y-82950000D03*
X116637500Y-82950000D03*
X116637500Y-82000000D03*
X116637500Y-81050000D03*
%TD*%
M02*
