%TF.GenerationSoftware,KiCad,Pcbnew,10.0.5*%
%TF.CreationDate,2026-08-25T17:32:42+02:00*%
%TF.ProjectId,env-sensor-a,656e762d-7365-46e7-936f-722d612e6b69,HW A1*%
%TF.SameCoordinates,Original*%
%TF.FileFunction,Copper,L4,Bot*%
%TF.FilePolarity,Positive*%
%FSLAX46Y46*%
G04 Gerber Fmt 4.6, Leading zero omitted, Abs format (unit mm)*
G04 Created by KiCad (PCBNEW 10.0.5) date 2026-08-25 17:32:42*
%MOMM*%
%LPD*%
G01*
G04 APERTURE LIST*
%TA.AperFunction,ComponentPad*%
%ADD10O,2.100000X1.000000*%
%TD*%
%TA.AperFunction,ComponentPad*%
%ADD11O,1.600000X1.000000*%
%TD*%
%TA.AperFunction,SMDPad,CuDef*%
%ADD12C,1.500000*%
%TD*%
%TA.AperFunction,ViaPad*%
%ADD13C,0.600000*%
%TD*%
G04 APERTURE END LIST*
D10*
%TO.P,J1,SH*%
%TO.N,GND*%
X102370000Y-88820000D03*
D11*
X106550000Y-88820000D03*
D10*
X102370000Y-80180000D03*
D11*
X106550000Y-80180000D03*
%TD*%
D12*
%TO.P,TP5,1*%
%TO.N,VBAT*%
X119160000Y-79500000D03*
%TD*%
%TO.P,TP9,1*%
%TO.N,UART_RX*%
X114080000Y-82040000D03*
%TD*%
%TO.P,TP4,1*%
%TO.N,+3V0*%
X116620000Y-79500000D03*
%TD*%
%TO.P,TP12,1*%
%TO.N,SDA*%
X121700000Y-82040000D03*
%TD*%
%TO.P,TP2,1*%
%TO.N,VBUS*%
X111540000Y-79500000D03*
%TD*%
%TO.P,TP7,1*%
%TO.N,BTN_PROV*%
X109000000Y-82040000D03*
%TD*%
%TO.P,TP16,1*%
%TO.N,TEST_MODE*%
X116620000Y-84580000D03*
%TD*%
%TO.P,TP6,1*%
%TO.N,EN*%
X121700000Y-79500000D03*
%TD*%
%TO.P,TP14,1*%
%TO.N,CHG_N*%
X111540000Y-84580000D03*
%TD*%
%TO.P,TP10,1*%
%TO.N,USB_DP*%
X116620000Y-82040000D03*
%TD*%
%TO.P,TP15,1*%
%TO.N,PG_N*%
X114080000Y-84580000D03*
%TD*%
%TO.P,TP17,1*%
%TO.N,GND*%
X119160000Y-84580000D03*
%TD*%
%TO.P,TP3,1*%
%TO.N,VSYS*%
X114080000Y-79500000D03*
%TD*%
%TO.P,TP8,1*%
%TO.N,UART_TX*%
X111540000Y-82040000D03*
%TD*%
%TO.P,TP13,1*%
%TO.N,SCL*%
X109000000Y-84580000D03*
%TD*%
%TO.P,TP11,1*%
%TO.N,USB_DM*%
X119160000Y-82040000D03*
%TD*%
%TO.P,TP1,1*%
%TO.N,GND*%
X109000000Y-79500000D03*
%TD*%
D13*
%TO.N,+3V0*%
X123400000Y-90100000D03*
%TO.N,GND*%
X110000000Y-72500000D03*
X127500000Y-85000000D03*
X122500000Y-87500000D03*
X105000000Y-85000000D03*
X124900000Y-90900000D03*
X110000000Y-75000000D03*
X105000000Y-92500000D03*
X125000000Y-85000000D03*
X102500000Y-92500000D03*
X127500000Y-90000000D03*
X120000000Y-87500000D03*
X110000000Y-70000000D03*
X125000000Y-77500000D03*
X127500000Y-92500000D03*
X127500000Y-77500000D03*
X105000000Y-82500000D03*
%TD*%
%TA.AperFunction,Conductor*%
%TO.N,GND*%
G36*
X129658691Y-65918907D02*
G01*
X129694655Y-65968407D01*
X129699500Y-65999000D01*
X129699500Y-93600500D01*
X129680593Y-93658691D01*
X129631093Y-93694655D01*
X129600500Y-93699500D01*
X121099000Y-93699500D01*
X121040809Y-93680593D01*
X121004845Y-93631093D01*
X121000000Y-93600500D01*
X121000000Y-90034108D01*
X122899500Y-90034108D01*
X122899500Y-90165892D01*
X122929579Y-90278151D01*
X122933609Y-90293190D01*
X122999496Y-90407309D01*
X122999498Y-90407311D01*
X122999500Y-90407314D01*
X123092686Y-90500500D01*
X123092688Y-90500501D01*
X123092690Y-90500503D01*
X123206810Y-90566390D01*
X123206808Y-90566390D01*
X123206812Y-90566391D01*
X123206814Y-90566392D01*
X123334108Y-90600500D01*
X123334110Y-90600500D01*
X123465890Y-90600500D01*
X123465892Y-90600500D01*
X123593186Y-90566392D01*
X123593188Y-90566390D01*
X123593190Y-90566390D01*
X123707309Y-90500503D01*
X123707309Y-90500502D01*
X123707314Y-90500500D01*
X123800500Y-90407314D01*
X123866392Y-90293186D01*
X123900500Y-90165892D01*
X123900500Y-90034108D01*
X123866392Y-89906814D01*
X123866390Y-89906811D01*
X123866390Y-89906809D01*
X123800503Y-89792690D01*
X123800501Y-89792688D01*
X123800500Y-89792686D01*
X123707314Y-89699500D01*
X123707311Y-89699498D01*
X123707309Y-89699496D01*
X123593189Y-89633609D01*
X123593191Y-89633609D01*
X123543799Y-89620375D01*
X123465892Y-89599500D01*
X123334108Y-89599500D01*
X123256200Y-89620375D01*
X123206809Y-89633609D01*
X123092690Y-89699496D01*
X122999496Y-89792690D01*
X122933609Y-89906809D01*
X122933608Y-89906814D01*
X122899500Y-90034108D01*
X121000000Y-90034108D01*
X121000000Y-89300001D01*
X121000000Y-89300000D01*
X111000000Y-89300000D01*
X111000000Y-89300001D01*
X111000000Y-93600500D01*
X110981093Y-93658691D01*
X110931593Y-93694655D01*
X110901000Y-93699500D01*
X100399500Y-93699500D01*
X100341309Y-93680593D01*
X100305345Y-93631093D01*
X100300500Y-93600500D01*
X100300500Y-87314234D01*
X102324500Y-87314234D01*
X102324500Y-87465766D01*
X102359086Y-87594847D01*
X102363720Y-87612139D01*
X102439481Y-87743360D01*
X102439483Y-87743362D01*
X102439485Y-87743365D01*
X102546635Y-87850515D01*
X102546637Y-87850516D01*
X102546639Y-87850518D01*
X102677861Y-87926279D01*
X102677859Y-87926279D01*
X102677863Y-87926280D01*
X102677865Y-87926281D01*
X102824234Y-87965500D01*
X102824236Y-87965500D01*
X102975764Y-87965500D01*
X102975766Y-87965500D01*
X103122135Y-87926281D01*
X103122137Y-87926279D01*
X103122139Y-87926279D01*
X103253360Y-87850518D01*
X103253360Y-87850517D01*
X103253365Y-87850515D01*
X103360515Y-87743365D01*
X103436281Y-87612135D01*
X103475500Y-87465766D01*
X103475500Y-87314234D01*
X103436281Y-87167865D01*
X103436279Y-87167862D01*
X103436279Y-87167860D01*
X103360518Y-87036639D01*
X103360516Y-87036637D01*
X103360515Y-87036635D01*
X103253365Y-86929485D01*
X103253362Y-86929483D01*
X103253360Y-86929481D01*
X103122138Y-86853720D01*
X103122140Y-86853720D01*
X103065347Y-86838503D01*
X102975766Y-86814500D01*
X102824234Y-86814500D01*
X102734652Y-86838503D01*
X102677860Y-86853720D01*
X102546639Y-86929481D01*
X102439481Y-87036639D01*
X102363720Y-87167860D01*
X102363719Y-87167865D01*
X102324500Y-87314234D01*
X100300500Y-87314234D01*
X100300500Y-84486381D01*
X108049500Y-84486381D01*
X108049500Y-84673618D01*
X108086026Y-84857249D01*
X108157677Y-85030229D01*
X108157681Y-85030238D01*
X108232065Y-85141559D01*
X108261698Y-85185908D01*
X108394092Y-85318302D01*
X108460463Y-85362649D01*
X108549761Y-85422318D01*
X108549767Y-85422320D01*
X108549769Y-85422322D01*
X108722749Y-85493973D01*
X108906384Y-85530500D01*
X108906385Y-85530500D01*
X109093615Y-85530500D01*
X109093616Y-85530500D01*
X109277251Y-85493973D01*
X109450231Y-85422322D01*
X109450234Y-85422319D01*
X109450238Y-85422318D01*
X109495187Y-85392282D01*
X109605908Y-85318302D01*
X109738302Y-85185908D01*
X109812282Y-85075187D01*
X109842318Y-85030238D01*
X109842319Y-85030234D01*
X109842322Y-85030231D01*
X109913973Y-84857251D01*
X109950500Y-84673616D01*
X109950500Y-84486384D01*
X109950499Y-84486381D01*
X110589500Y-84486381D01*
X110589500Y-84673618D01*
X110626026Y-84857249D01*
X110697677Y-85030229D01*
X110697681Y-85030238D01*
X110772065Y-85141559D01*
X110801698Y-85185908D01*
X110934092Y-85318302D01*
X111000463Y-85362649D01*
X111089761Y-85422318D01*
X111089767Y-85422320D01*
X111089769Y-85422322D01*
X111262749Y-85493973D01*
X111446384Y-85530500D01*
X111446385Y-85530500D01*
X111633615Y-85530500D01*
X111633616Y-85530500D01*
X111817251Y-85493973D01*
X111990231Y-85422322D01*
X111990234Y-85422319D01*
X111990238Y-85422318D01*
X112035187Y-85392282D01*
X112145908Y-85318302D01*
X112278302Y-85185908D01*
X112352282Y-85075187D01*
X112382318Y-85030238D01*
X112382319Y-85030234D01*
X112382322Y-85030231D01*
X112453973Y-84857251D01*
X112490500Y-84673616D01*
X112490500Y-84486384D01*
X112490499Y-84486381D01*
X113129500Y-84486381D01*
X113129500Y-84673618D01*
X113166026Y-84857249D01*
X113237677Y-85030229D01*
X113237681Y-85030238D01*
X113312065Y-85141559D01*
X113341698Y-85185908D01*
X113474092Y-85318302D01*
X113540463Y-85362649D01*
X113629761Y-85422318D01*
X113629767Y-85422320D01*
X113629769Y-85422322D01*
X113802749Y-85493973D01*
X113986384Y-85530500D01*
X113986385Y-85530500D01*
X114173615Y-85530500D01*
X114173616Y-85530500D01*
X114357251Y-85493973D01*
X114530231Y-85422322D01*
X114530234Y-85422319D01*
X114530238Y-85422318D01*
X114575187Y-85392282D01*
X114685908Y-85318302D01*
X114818302Y-85185908D01*
X114892282Y-85075187D01*
X114922318Y-85030238D01*
X114922319Y-85030234D01*
X114922322Y-85030231D01*
X114993973Y-84857251D01*
X115030500Y-84673616D01*
X115030500Y-84486384D01*
X115030499Y-84486381D01*
X115669500Y-84486381D01*
X115669500Y-84673618D01*
X115706026Y-84857249D01*
X115777677Y-85030229D01*
X115777681Y-85030238D01*
X115852065Y-85141559D01*
X115881698Y-85185908D01*
X116014092Y-85318302D01*
X116080463Y-85362649D01*
X116169761Y-85422318D01*
X116169767Y-85422320D01*
X116169769Y-85422322D01*
X116342749Y-85493973D01*
X116526384Y-85530500D01*
X116526385Y-85530500D01*
X116713615Y-85530500D01*
X116713616Y-85530500D01*
X116897251Y-85493973D01*
X117070231Y-85422322D01*
X117070234Y-85422319D01*
X117070238Y-85422318D01*
X117115187Y-85392282D01*
X117225908Y-85318302D01*
X117358302Y-85185908D01*
X117432282Y-85075187D01*
X117462318Y-85030238D01*
X117462319Y-85030234D01*
X117462322Y-85030231D01*
X117533973Y-84857251D01*
X117570500Y-84673616D01*
X117570500Y-84486384D01*
X117533973Y-84302749D01*
X117462322Y-84129769D01*
X117462320Y-84129767D01*
X117462318Y-84129761D01*
X117402649Y-84040463D01*
X117358302Y-83974092D01*
X117225908Y-83841698D01*
X117181559Y-83812065D01*
X117070238Y-83737681D01*
X117070229Y-83737677D01*
X116897249Y-83666026D01*
X116713618Y-83629500D01*
X116713616Y-83629500D01*
X116526384Y-83629500D01*
X116526381Y-83629500D01*
X116342750Y-83666026D01*
X116169770Y-83737677D01*
X116169761Y-83737681D01*
X116014092Y-83841698D01*
X116014088Y-83841701D01*
X115881701Y-83974088D01*
X115881698Y-83974092D01*
X115777681Y-84129761D01*
X115777677Y-84129770D01*
X115706026Y-84302750D01*
X115669500Y-84486381D01*
X115030499Y-84486381D01*
X114993973Y-84302749D01*
X114922322Y-84129769D01*
X114922320Y-84129767D01*
X114922318Y-84129761D01*
X114862649Y-84040463D01*
X114818302Y-83974092D01*
X114685908Y-83841698D01*
X114641559Y-83812065D01*
X114530238Y-83737681D01*
X114530229Y-83737677D01*
X114357249Y-83666026D01*
X114173618Y-83629500D01*
X114173616Y-83629500D01*
X113986384Y-83629500D01*
X113986381Y-83629500D01*
X113802750Y-83666026D01*
X113629770Y-83737677D01*
X113629761Y-83737681D01*
X113474092Y-83841698D01*
X113474088Y-83841701D01*
X113341701Y-83974088D01*
X113341698Y-83974092D01*
X113237681Y-84129761D01*
X113237677Y-84129770D01*
X113166026Y-84302750D01*
X113129500Y-84486381D01*
X112490499Y-84486381D01*
X112453973Y-84302749D01*
X112382322Y-84129769D01*
X112382320Y-84129767D01*
X112382318Y-84129761D01*
X112322649Y-84040463D01*
X112278302Y-83974092D01*
X112145908Y-83841698D01*
X112101559Y-83812065D01*
X111990238Y-83737681D01*
X111990229Y-83737677D01*
X111817249Y-83666026D01*
X111633618Y-83629500D01*
X111633616Y-83629500D01*
X111446384Y-83629500D01*
X111446381Y-83629500D01*
X111262750Y-83666026D01*
X111089770Y-83737677D01*
X111089761Y-83737681D01*
X110934092Y-83841698D01*
X110934088Y-83841701D01*
X110801701Y-83974088D01*
X110801698Y-83974092D01*
X110697681Y-84129761D01*
X110697677Y-84129770D01*
X110626026Y-84302750D01*
X110589500Y-84486381D01*
X109950499Y-84486381D01*
X109913973Y-84302749D01*
X109842322Y-84129769D01*
X109842320Y-84129767D01*
X109842318Y-84129761D01*
X109782649Y-84040463D01*
X109738302Y-83974092D01*
X109605908Y-83841698D01*
X109561559Y-83812065D01*
X109450238Y-83737681D01*
X109450229Y-83737677D01*
X109277249Y-83666026D01*
X109093618Y-83629500D01*
X109093616Y-83629500D01*
X108906384Y-83629500D01*
X108906381Y-83629500D01*
X108722750Y-83666026D01*
X108549770Y-83737677D01*
X108549761Y-83737681D01*
X108394092Y-83841698D01*
X108394088Y-83841701D01*
X108261701Y-83974088D01*
X108261698Y-83974092D01*
X108157681Y-84129761D01*
X108157677Y-84129770D01*
X108086026Y-84302750D01*
X108049500Y-84486381D01*
X100300500Y-84486381D01*
X100300500Y-81534234D01*
X102324500Y-81534234D01*
X102324500Y-81685766D01*
X102345128Y-81762750D01*
X102363720Y-81832139D01*
X102439481Y-81963360D01*
X102439483Y-81963362D01*
X102439485Y-81963365D01*
X102546635Y-82070515D01*
X102546637Y-82070516D01*
X102546639Y-82070518D01*
X102677861Y-82146279D01*
X102677859Y-82146279D01*
X102677863Y-82146280D01*
X102677865Y-82146281D01*
X102824234Y-82185500D01*
X102824236Y-82185500D01*
X102975764Y-82185500D01*
X102975766Y-82185500D01*
X103122135Y-82146281D01*
X103122137Y-82146279D01*
X103122139Y-82146279D01*
X103253360Y-82070518D01*
X103253360Y-82070517D01*
X103253365Y-82070515D01*
X103360515Y-81963365D01*
X103360518Y-81963360D01*
X103370321Y-81946381D01*
X108049500Y-81946381D01*
X108049500Y-82133618D01*
X108086026Y-82317249D01*
X108157677Y-82490229D01*
X108157681Y-82490238D01*
X108232065Y-82601559D01*
X108261698Y-82645908D01*
X108394092Y-82778302D01*
X108460463Y-82822649D01*
X108549761Y-82882318D01*
X108549767Y-82882320D01*
X108549769Y-82882322D01*
X108722749Y-82953973D01*
X108906384Y-82990500D01*
X108906385Y-82990500D01*
X109093615Y-82990500D01*
X109093616Y-82990500D01*
X109277251Y-82953973D01*
X109450231Y-82882322D01*
X109450234Y-82882319D01*
X109450238Y-82882318D01*
X109495187Y-82852282D01*
X109605908Y-82778302D01*
X109738302Y-82645908D01*
X109812282Y-82535187D01*
X109842318Y-82490238D01*
X109842319Y-82490234D01*
X109842322Y-82490231D01*
X109913973Y-82317251D01*
X109950500Y-82133616D01*
X109950500Y-81946384D01*
X109950499Y-81946381D01*
X110589500Y-81946381D01*
X110589500Y-82133618D01*
X110626026Y-82317249D01*
X110697677Y-82490229D01*
X110697681Y-82490238D01*
X110772065Y-82601559D01*
X110801698Y-82645908D01*
X110934092Y-82778302D01*
X111000463Y-82822649D01*
X111089761Y-82882318D01*
X111089767Y-82882320D01*
X111089769Y-82882322D01*
X111262749Y-82953973D01*
X111446384Y-82990500D01*
X111446385Y-82990500D01*
X111633615Y-82990500D01*
X111633616Y-82990500D01*
X111817251Y-82953973D01*
X111990231Y-82882322D01*
X111990234Y-82882319D01*
X111990238Y-82882318D01*
X112035187Y-82852282D01*
X112145908Y-82778302D01*
X112278302Y-82645908D01*
X112352282Y-82535187D01*
X112382318Y-82490238D01*
X112382319Y-82490234D01*
X112382322Y-82490231D01*
X112453973Y-82317251D01*
X112490500Y-82133616D01*
X112490500Y-81946384D01*
X112490499Y-81946381D01*
X113129500Y-81946381D01*
X113129500Y-82133618D01*
X113166026Y-82317249D01*
X113237677Y-82490229D01*
X113237681Y-82490238D01*
X113312065Y-82601559D01*
X113341698Y-82645908D01*
X113474092Y-82778302D01*
X113540463Y-82822649D01*
X113629761Y-82882318D01*
X113629767Y-82882320D01*
X113629769Y-82882322D01*
X113802749Y-82953973D01*
X113986384Y-82990500D01*
X113986385Y-82990500D01*
X114173615Y-82990500D01*
X114173616Y-82990500D01*
X114357251Y-82953973D01*
X114530231Y-82882322D01*
X114530234Y-82882319D01*
X114530238Y-82882318D01*
X114575187Y-82852282D01*
X114685908Y-82778302D01*
X114818302Y-82645908D01*
X114892282Y-82535187D01*
X114922318Y-82490238D01*
X114922319Y-82490234D01*
X114922322Y-82490231D01*
X114993973Y-82317251D01*
X115030500Y-82133616D01*
X115030500Y-81946384D01*
X115030499Y-81946381D01*
X115669500Y-81946381D01*
X115669500Y-82133618D01*
X115706026Y-82317249D01*
X115777677Y-82490229D01*
X115777681Y-82490238D01*
X115852065Y-82601559D01*
X115881698Y-82645908D01*
X116014092Y-82778302D01*
X116080463Y-82822649D01*
X116169761Y-82882318D01*
X116169767Y-82882320D01*
X116169769Y-82882322D01*
X116342749Y-82953973D01*
X116526384Y-82990500D01*
X116526385Y-82990500D01*
X116713615Y-82990500D01*
X116713616Y-82990500D01*
X116897251Y-82953973D01*
X117070231Y-82882322D01*
X117070234Y-82882319D01*
X117070238Y-82882318D01*
X117115187Y-82852282D01*
X117225908Y-82778302D01*
X117358302Y-82645908D01*
X117432282Y-82535187D01*
X117462318Y-82490238D01*
X117462319Y-82490234D01*
X117462322Y-82490231D01*
X117533973Y-82317251D01*
X117570500Y-82133616D01*
X117570500Y-81946384D01*
X117570499Y-81946381D01*
X118209500Y-81946381D01*
X118209500Y-82133618D01*
X118246026Y-82317249D01*
X118317677Y-82490229D01*
X118317681Y-82490238D01*
X118392065Y-82601559D01*
X118421698Y-82645908D01*
X118554092Y-82778302D01*
X118620463Y-82822649D01*
X118709761Y-82882318D01*
X118709767Y-82882320D01*
X118709769Y-82882322D01*
X118882749Y-82953973D01*
X119066384Y-82990500D01*
X119066385Y-82990500D01*
X119253615Y-82990500D01*
X119253616Y-82990500D01*
X119437251Y-82953973D01*
X119610231Y-82882322D01*
X119610234Y-82882319D01*
X119610238Y-82882318D01*
X119655187Y-82852282D01*
X119765908Y-82778302D01*
X119898302Y-82645908D01*
X119972282Y-82535187D01*
X120002318Y-82490238D01*
X120002319Y-82490234D01*
X120002322Y-82490231D01*
X120073973Y-82317251D01*
X120110500Y-82133616D01*
X120110500Y-81946384D01*
X120110499Y-81946381D01*
X120749500Y-81946381D01*
X120749500Y-82133618D01*
X120786026Y-82317249D01*
X120857677Y-82490229D01*
X120857681Y-82490238D01*
X120932065Y-82601559D01*
X120961698Y-82645908D01*
X121094092Y-82778302D01*
X121160463Y-82822649D01*
X121249761Y-82882318D01*
X121249767Y-82882320D01*
X121249769Y-82882322D01*
X121422749Y-82953973D01*
X121606384Y-82990500D01*
X121606385Y-82990500D01*
X121793615Y-82990500D01*
X121793616Y-82990500D01*
X121977251Y-82953973D01*
X122150231Y-82882322D01*
X122150234Y-82882319D01*
X122150238Y-82882318D01*
X122195187Y-82852282D01*
X122305908Y-82778302D01*
X122438302Y-82645908D01*
X122512282Y-82535187D01*
X122542318Y-82490238D01*
X122542319Y-82490234D01*
X122542322Y-82490231D01*
X122613973Y-82317251D01*
X122650500Y-82133616D01*
X122650500Y-81946384D01*
X122613973Y-81762749D01*
X122542322Y-81589769D01*
X122542320Y-81589767D01*
X122542318Y-81589761D01*
X122482649Y-81500463D01*
X122438302Y-81434092D01*
X122305908Y-81301698D01*
X122261559Y-81272065D01*
X122150238Y-81197681D01*
X122150229Y-81197677D01*
X121977249Y-81126026D01*
X121793618Y-81089500D01*
X121793616Y-81089500D01*
X121606384Y-81089500D01*
X121606381Y-81089500D01*
X121422750Y-81126026D01*
X121249770Y-81197677D01*
X121249761Y-81197681D01*
X121094092Y-81301698D01*
X121094088Y-81301701D01*
X120961701Y-81434088D01*
X120961698Y-81434092D01*
X120857681Y-81589761D01*
X120857677Y-81589770D01*
X120786026Y-81762750D01*
X120749500Y-81946381D01*
X120110499Y-81946381D01*
X120073973Y-81762749D01*
X120002322Y-81589769D01*
X120002320Y-81589767D01*
X120002318Y-81589761D01*
X119942649Y-81500463D01*
X119898302Y-81434092D01*
X119765908Y-81301698D01*
X119721559Y-81272065D01*
X119610238Y-81197681D01*
X119610229Y-81197677D01*
X119437249Y-81126026D01*
X119253618Y-81089500D01*
X119253616Y-81089500D01*
X119066384Y-81089500D01*
X119066381Y-81089500D01*
X118882750Y-81126026D01*
X118709770Y-81197677D01*
X118709761Y-81197681D01*
X118554092Y-81301698D01*
X118554088Y-81301701D01*
X118421701Y-81434088D01*
X118421698Y-81434092D01*
X118317681Y-81589761D01*
X118317677Y-81589770D01*
X118246026Y-81762750D01*
X118209500Y-81946381D01*
X117570499Y-81946381D01*
X117533973Y-81762749D01*
X117462322Y-81589769D01*
X117462320Y-81589767D01*
X117462318Y-81589761D01*
X117402649Y-81500463D01*
X117358302Y-81434092D01*
X117225908Y-81301698D01*
X117181559Y-81272065D01*
X117070238Y-81197681D01*
X117070229Y-81197677D01*
X116897249Y-81126026D01*
X116713618Y-81089500D01*
X116713616Y-81089500D01*
X116526384Y-81089500D01*
X116526381Y-81089500D01*
X116342750Y-81126026D01*
X116169770Y-81197677D01*
X116169761Y-81197681D01*
X116014092Y-81301698D01*
X116014088Y-81301701D01*
X115881701Y-81434088D01*
X115881698Y-81434092D01*
X115777681Y-81589761D01*
X115777677Y-81589770D01*
X115706026Y-81762750D01*
X115669500Y-81946381D01*
X115030499Y-81946381D01*
X114993973Y-81762749D01*
X114922322Y-81589769D01*
X114922320Y-81589767D01*
X114922318Y-81589761D01*
X114862649Y-81500463D01*
X114818302Y-81434092D01*
X114685908Y-81301698D01*
X114641559Y-81272065D01*
X114530238Y-81197681D01*
X114530229Y-81197677D01*
X114357249Y-81126026D01*
X114173618Y-81089500D01*
X114173616Y-81089500D01*
X113986384Y-81089500D01*
X113986381Y-81089500D01*
X113802750Y-81126026D01*
X113629770Y-81197677D01*
X113629761Y-81197681D01*
X113474092Y-81301698D01*
X113474088Y-81301701D01*
X113341701Y-81434088D01*
X113341698Y-81434092D01*
X113237681Y-81589761D01*
X113237677Y-81589770D01*
X113166026Y-81762750D01*
X113129500Y-81946381D01*
X112490499Y-81946381D01*
X112453973Y-81762749D01*
X112382322Y-81589769D01*
X112382320Y-81589767D01*
X112382318Y-81589761D01*
X112322649Y-81500463D01*
X112278302Y-81434092D01*
X112145908Y-81301698D01*
X112101559Y-81272065D01*
X111990238Y-81197681D01*
X111990229Y-81197677D01*
X111817249Y-81126026D01*
X111633618Y-81089500D01*
X111633616Y-81089500D01*
X111446384Y-81089500D01*
X111446381Y-81089500D01*
X111262750Y-81126026D01*
X111089770Y-81197677D01*
X111089761Y-81197681D01*
X110934092Y-81301698D01*
X110934088Y-81301701D01*
X110801701Y-81434088D01*
X110801698Y-81434092D01*
X110697681Y-81589761D01*
X110697677Y-81589770D01*
X110626026Y-81762750D01*
X110589500Y-81946381D01*
X109950499Y-81946381D01*
X109913973Y-81762749D01*
X109842322Y-81589769D01*
X109842320Y-81589767D01*
X109842318Y-81589761D01*
X109782649Y-81500463D01*
X109738302Y-81434092D01*
X109605908Y-81301698D01*
X109561559Y-81272065D01*
X109450238Y-81197681D01*
X109450229Y-81197677D01*
X109277249Y-81126026D01*
X109093618Y-81089500D01*
X109093616Y-81089500D01*
X108906384Y-81089500D01*
X108906381Y-81089500D01*
X108722750Y-81126026D01*
X108549770Y-81197677D01*
X108549761Y-81197681D01*
X108394092Y-81301698D01*
X108394088Y-81301701D01*
X108261701Y-81434088D01*
X108261698Y-81434092D01*
X108157681Y-81589761D01*
X108157677Y-81589770D01*
X108086026Y-81762750D01*
X108049500Y-81946381D01*
X103370321Y-81946381D01*
X103401707Y-81892020D01*
X103436279Y-81832139D01*
X103436279Y-81832137D01*
X103436281Y-81832135D01*
X103475500Y-81685766D01*
X103475500Y-81534234D01*
X103436281Y-81387865D01*
X103436279Y-81387862D01*
X103436279Y-81387860D01*
X103360518Y-81256639D01*
X103360516Y-81256637D01*
X103360515Y-81256635D01*
X103253365Y-81149485D01*
X103253362Y-81149483D01*
X103253360Y-81149481D01*
X103122138Y-81073720D01*
X103122140Y-81073720D01*
X103065347Y-81058503D01*
X102975766Y-81034500D01*
X102824234Y-81034500D01*
X102734652Y-81058503D01*
X102677860Y-81073720D01*
X102546639Y-81149481D01*
X102439481Y-81256639D01*
X102363720Y-81387860D01*
X102363719Y-81387865D01*
X102324500Y-81534234D01*
X100300500Y-81534234D01*
X100300500Y-79406381D01*
X110589500Y-79406381D01*
X110589500Y-79593618D01*
X110626026Y-79777249D01*
X110697677Y-79950229D01*
X110697681Y-79950238D01*
X110772065Y-80061559D01*
X110801698Y-80105908D01*
X110934092Y-80238302D01*
X111000463Y-80282649D01*
X111089761Y-80342318D01*
X111089767Y-80342320D01*
X111089769Y-80342322D01*
X111262749Y-80413973D01*
X111446384Y-80450500D01*
X111446385Y-80450500D01*
X111633615Y-80450500D01*
X111633616Y-80450500D01*
X111817251Y-80413973D01*
X111990231Y-80342322D01*
X111990234Y-80342319D01*
X111990238Y-80342318D01*
X112035187Y-80312282D01*
X112145908Y-80238302D01*
X112278302Y-80105908D01*
X112352282Y-79995187D01*
X112382318Y-79950238D01*
X112382319Y-79950234D01*
X112382322Y-79950231D01*
X112453973Y-79777251D01*
X112490500Y-79593616D01*
X112490500Y-79406384D01*
X112490499Y-79406381D01*
X113129500Y-79406381D01*
X113129500Y-79593618D01*
X113166026Y-79777249D01*
X113237677Y-79950229D01*
X113237681Y-79950238D01*
X113312065Y-80061559D01*
X113341698Y-80105908D01*
X113474092Y-80238302D01*
X113540463Y-80282649D01*
X113629761Y-80342318D01*
X113629767Y-80342320D01*
X113629769Y-80342322D01*
X113802749Y-80413973D01*
X113986384Y-80450500D01*
X113986385Y-80450500D01*
X114173615Y-80450500D01*
X114173616Y-80450500D01*
X114357251Y-80413973D01*
X114530231Y-80342322D01*
X114530234Y-80342319D01*
X114530238Y-80342318D01*
X114575187Y-80312282D01*
X114685908Y-80238302D01*
X114818302Y-80105908D01*
X114892282Y-79995187D01*
X114922318Y-79950238D01*
X114922319Y-79950234D01*
X114922322Y-79950231D01*
X114993973Y-79777251D01*
X115030500Y-79593616D01*
X115030500Y-79406384D01*
X115030499Y-79406381D01*
X115669500Y-79406381D01*
X115669500Y-79593618D01*
X115706026Y-79777249D01*
X115777677Y-79950229D01*
X115777681Y-79950238D01*
X115852065Y-80061559D01*
X115881698Y-80105908D01*
X116014092Y-80238302D01*
X116080463Y-80282649D01*
X116169761Y-80342318D01*
X116169767Y-80342320D01*
X116169769Y-80342322D01*
X116342749Y-80413973D01*
X116526384Y-80450500D01*
X116526385Y-80450500D01*
X116713615Y-80450500D01*
X116713616Y-80450500D01*
X116897251Y-80413973D01*
X117070231Y-80342322D01*
X117070234Y-80342319D01*
X117070238Y-80342318D01*
X117115187Y-80312282D01*
X117225908Y-80238302D01*
X117358302Y-80105908D01*
X117432282Y-79995187D01*
X117462318Y-79950238D01*
X117462319Y-79950234D01*
X117462322Y-79950231D01*
X117533973Y-79777251D01*
X117570500Y-79593616D01*
X117570500Y-79406384D01*
X117570499Y-79406381D01*
X118209500Y-79406381D01*
X118209500Y-79593618D01*
X118246026Y-79777249D01*
X118317677Y-79950229D01*
X118317681Y-79950238D01*
X118392065Y-80061559D01*
X118421698Y-80105908D01*
X118554092Y-80238302D01*
X118620463Y-80282649D01*
X118709761Y-80342318D01*
X118709767Y-80342320D01*
X118709769Y-80342322D01*
X118882749Y-80413973D01*
X119066384Y-80450500D01*
X119066385Y-80450500D01*
X119253615Y-80450500D01*
X119253616Y-80450500D01*
X119437251Y-80413973D01*
X119610231Y-80342322D01*
X119610234Y-80342319D01*
X119610238Y-80342318D01*
X119655187Y-80312282D01*
X119765908Y-80238302D01*
X119898302Y-80105908D01*
X119972282Y-79995187D01*
X120002318Y-79950238D01*
X120002319Y-79950234D01*
X120002322Y-79950231D01*
X120073973Y-79777251D01*
X120110500Y-79593616D01*
X120110500Y-79406384D01*
X120110499Y-79406381D01*
X120749500Y-79406381D01*
X120749500Y-79593618D01*
X120786026Y-79777249D01*
X120857677Y-79950229D01*
X120857681Y-79950238D01*
X120932065Y-80061559D01*
X120961698Y-80105908D01*
X121094092Y-80238302D01*
X121160463Y-80282649D01*
X121249761Y-80342318D01*
X121249767Y-80342320D01*
X121249769Y-80342322D01*
X121422749Y-80413973D01*
X121606384Y-80450500D01*
X121606385Y-80450500D01*
X121793615Y-80450500D01*
X121793616Y-80450500D01*
X121977251Y-80413973D01*
X122150231Y-80342322D01*
X122150234Y-80342319D01*
X122150238Y-80342318D01*
X122195187Y-80312282D01*
X122305908Y-80238302D01*
X122438302Y-80105908D01*
X122512282Y-79995187D01*
X122542318Y-79950238D01*
X122542319Y-79950234D01*
X122542322Y-79950231D01*
X122613973Y-79777251D01*
X122650500Y-79593616D01*
X122650500Y-79406384D01*
X122613973Y-79222749D01*
X122542322Y-79049769D01*
X122542320Y-79049767D01*
X122542318Y-79049761D01*
X122482649Y-78960463D01*
X122438302Y-78894092D01*
X122305908Y-78761698D01*
X122261559Y-78732065D01*
X122150238Y-78657681D01*
X122150229Y-78657677D01*
X121977249Y-78586026D01*
X121793618Y-78549500D01*
X121793616Y-78549500D01*
X121606384Y-78549500D01*
X121606381Y-78549500D01*
X121422750Y-78586026D01*
X121249770Y-78657677D01*
X121249761Y-78657681D01*
X121094092Y-78761698D01*
X121094088Y-78761701D01*
X120961701Y-78894088D01*
X120961698Y-78894092D01*
X120857681Y-79049761D01*
X120857677Y-79049770D01*
X120786026Y-79222750D01*
X120749500Y-79406381D01*
X120110499Y-79406381D01*
X120073973Y-79222749D01*
X120002322Y-79049769D01*
X120002320Y-79049767D01*
X120002318Y-79049761D01*
X119942649Y-78960463D01*
X119898302Y-78894092D01*
X119765908Y-78761698D01*
X119721559Y-78732065D01*
X119610238Y-78657681D01*
X119610229Y-78657677D01*
X119437249Y-78586026D01*
X119253618Y-78549500D01*
X119253616Y-78549500D01*
X119066384Y-78549500D01*
X119066381Y-78549500D01*
X118882750Y-78586026D01*
X118709770Y-78657677D01*
X118709761Y-78657681D01*
X118554092Y-78761698D01*
X118554088Y-78761701D01*
X118421701Y-78894088D01*
X118421698Y-78894092D01*
X118317681Y-79049761D01*
X118317677Y-79049770D01*
X118246026Y-79222750D01*
X118209500Y-79406381D01*
X117570499Y-79406381D01*
X117533973Y-79222749D01*
X117462322Y-79049769D01*
X117462320Y-79049767D01*
X117462318Y-79049761D01*
X117402649Y-78960463D01*
X117358302Y-78894092D01*
X117225908Y-78761698D01*
X117181559Y-78732065D01*
X117070238Y-78657681D01*
X117070229Y-78657677D01*
X116897249Y-78586026D01*
X116713618Y-78549500D01*
X116713616Y-78549500D01*
X116526384Y-78549500D01*
X116526381Y-78549500D01*
X116342750Y-78586026D01*
X116169770Y-78657677D01*
X116169761Y-78657681D01*
X116014092Y-78761698D01*
X116014088Y-78761701D01*
X115881701Y-78894088D01*
X115881698Y-78894092D01*
X115777681Y-79049761D01*
X115777677Y-79049770D01*
X115706026Y-79222750D01*
X115669500Y-79406381D01*
X115030499Y-79406381D01*
X114993973Y-79222749D01*
X114922322Y-79049769D01*
X114922320Y-79049767D01*
X114922318Y-79049761D01*
X114862649Y-78960463D01*
X114818302Y-78894092D01*
X114685908Y-78761698D01*
X114641559Y-78732065D01*
X114530238Y-78657681D01*
X114530229Y-78657677D01*
X114357249Y-78586026D01*
X114173618Y-78549500D01*
X114173616Y-78549500D01*
X113986384Y-78549500D01*
X113986381Y-78549500D01*
X113802750Y-78586026D01*
X113629770Y-78657677D01*
X113629761Y-78657681D01*
X113474092Y-78761698D01*
X113474088Y-78761701D01*
X113341701Y-78894088D01*
X113341698Y-78894092D01*
X113237681Y-79049761D01*
X113237677Y-79049770D01*
X113166026Y-79222750D01*
X113129500Y-79406381D01*
X112490499Y-79406381D01*
X112453973Y-79222749D01*
X112382322Y-79049769D01*
X112382320Y-79049767D01*
X112382318Y-79049761D01*
X112322649Y-78960463D01*
X112278302Y-78894092D01*
X112145908Y-78761698D01*
X112101559Y-78732065D01*
X111990238Y-78657681D01*
X111990229Y-78657677D01*
X111817249Y-78586026D01*
X111633618Y-78549500D01*
X111633616Y-78549500D01*
X111446384Y-78549500D01*
X111446381Y-78549500D01*
X111262750Y-78586026D01*
X111089770Y-78657677D01*
X111089761Y-78657681D01*
X110934092Y-78761698D01*
X110934088Y-78761701D01*
X110801701Y-78894088D01*
X110801698Y-78894092D01*
X110697681Y-79049761D01*
X110697677Y-79049770D01*
X110626026Y-79222750D01*
X110589500Y-79406381D01*
X100300500Y-79406381D01*
X100300500Y-65999000D01*
X100319407Y-65940809D01*
X100368907Y-65904845D01*
X100399500Y-65900000D01*
X129600500Y-65900000D01*
X129658691Y-65918907D01*
G37*
%TD.AperFunction*%
%TD*%
M02*
