%TF.GenerationSoftware,KiCad,Pcbnew,10.0.5*%
%TF.CreationDate,2026-08-25T17:32:42+02:00*%
%TF.ProjectId,env-sensor-a,656e762d-7365-46e7-936f-722d612e6b69,HW A1*%
%TF.SameCoordinates,Original*%
%TF.FileFunction,Legend,Bot*%
%TF.FilePolarity,Positive*%
%FSLAX46Y46*%
G04 Gerber Fmt 4.6, Leading zero omitted, Abs format (unit mm)*
G04 Created by KiCad (PCBNEW 10.0.5) date 2026-08-25 17:32:42*
%MOMM*%
%LPD*%
G01*
G04 APERTURE LIST*
%ADD10C,0.100000*%
G04 APERTURE END LIST*
D10*
X105694361Y-91921371D02*
X105494361Y-92521371D01*
X105494361Y-92521371D02*
X105294361Y-91921371D01*
X105122932Y-92349942D02*
X104837218Y-92349942D01*
X105180075Y-92521371D02*
X104980075Y-91921371D01*
X104980075Y-91921371D02*
X104780075Y-92521371D01*
X104237217Y-92521371D02*
X104437217Y-92235657D01*
X104580074Y-92521371D02*
X104580074Y-91921371D01*
X104580074Y-91921371D02*
X104351503Y-91921371D01*
X104351503Y-91921371D02*
X104294360Y-91949942D01*
X104294360Y-91949942D02*
X104265789Y-91978514D01*
X104265789Y-91978514D02*
X104237217Y-92035657D01*
X104237217Y-92035657D02*
X104237217Y-92121371D01*
X104237217Y-92121371D02*
X104265789Y-92178514D01*
X104265789Y-92178514D02*
X104294360Y-92207085D01*
X104294360Y-92207085D02*
X104351503Y-92235657D01*
X104351503Y-92235657D02*
X104580074Y-92235657D01*
X103980074Y-92521371D02*
X103980074Y-91921371D01*
X103722932Y-92349942D02*
X103437218Y-92349942D01*
X103780075Y-92521371D02*
X103580075Y-91921371D01*
X103580075Y-91921371D02*
X103380075Y-92521371D01*
X103180074Y-92521371D02*
X103180074Y-91921371D01*
X103180074Y-91921371D02*
X102837217Y-92521371D01*
X102837217Y-92521371D02*
X102837217Y-91921371D01*
X102637218Y-91921371D02*
X102294361Y-91921371D01*
X102465789Y-92521371D02*
X102465789Y-91921371D01*
X101665789Y-92349942D02*
X101380075Y-92349942D01*
X101722932Y-92521371D02*
X101522932Y-91921371D01*
X101522932Y-91921371D02*
X101322932Y-92521371D01*
X111380073Y-78121371D02*
X111380073Y-77521371D01*
X111380073Y-77521371D02*
X111151502Y-77521371D01*
X111151502Y-77521371D02*
X111094359Y-77549942D01*
X111094359Y-77549942D02*
X111065788Y-77578514D01*
X111065788Y-77578514D02*
X111037216Y-77635657D01*
X111037216Y-77635657D02*
X111037216Y-77721371D01*
X111037216Y-77721371D02*
X111065788Y-77778514D01*
X111065788Y-77778514D02*
X111094359Y-77807085D01*
X111094359Y-77807085D02*
X111151502Y-77835657D01*
X111151502Y-77835657D02*
X111380073Y-77835657D01*
X110665788Y-77521371D02*
X110551502Y-77521371D01*
X110551502Y-77521371D02*
X110494359Y-77549942D01*
X110494359Y-77549942D02*
X110437216Y-77607085D01*
X110437216Y-77607085D02*
X110408645Y-77721371D01*
X110408645Y-77721371D02*
X110408645Y-77921371D01*
X110408645Y-77921371D02*
X110437216Y-78035657D01*
X110437216Y-78035657D02*
X110494359Y-78092800D01*
X110494359Y-78092800D02*
X110551502Y-78121371D01*
X110551502Y-78121371D02*
X110665788Y-78121371D01*
X110665788Y-78121371D02*
X110722931Y-78092800D01*
X110722931Y-78092800D02*
X110780073Y-78035657D01*
X110780073Y-78035657D02*
X110808645Y-77921371D01*
X110808645Y-77921371D02*
X110808645Y-77721371D01*
X110808645Y-77721371D02*
X110780073Y-77607085D01*
X110780073Y-77607085D02*
X110722931Y-77549942D01*
X110722931Y-77549942D02*
X110665788Y-77521371D01*
X109837217Y-77549942D02*
X109894360Y-77521371D01*
X109894360Y-77521371D02*
X109980074Y-77521371D01*
X109980074Y-77521371D02*
X110065788Y-77549942D01*
X110065788Y-77549942D02*
X110122931Y-77607085D01*
X110122931Y-77607085D02*
X110151502Y-77664228D01*
X110151502Y-77664228D02*
X110180074Y-77778514D01*
X110180074Y-77778514D02*
X110180074Y-77864228D01*
X110180074Y-77864228D02*
X110151502Y-77978514D01*
X110151502Y-77978514D02*
X110122931Y-78035657D01*
X110122931Y-78035657D02*
X110065788Y-78092800D01*
X110065788Y-78092800D02*
X109980074Y-78121371D01*
X109980074Y-78121371D02*
X109922931Y-78121371D01*
X109922931Y-78121371D02*
X109837217Y-78092800D01*
X109837217Y-78092800D02*
X109808645Y-78064228D01*
X109808645Y-78064228D02*
X109808645Y-77864228D01*
X109808645Y-77864228D02*
X109922931Y-77864228D01*
X109437217Y-77521371D02*
X109322931Y-77521371D01*
X109322931Y-77521371D02*
X109265788Y-77549942D01*
X109265788Y-77549942D02*
X109208645Y-77607085D01*
X109208645Y-77607085D02*
X109180074Y-77721371D01*
X109180074Y-77721371D02*
X109180074Y-77921371D01*
X109180074Y-77921371D02*
X109208645Y-78035657D01*
X109208645Y-78035657D02*
X109265788Y-78092800D01*
X109265788Y-78092800D02*
X109322931Y-78121371D01*
X109322931Y-78121371D02*
X109437217Y-78121371D01*
X109437217Y-78121371D02*
X109494360Y-78092800D01*
X109494360Y-78092800D02*
X109551502Y-78035657D01*
X109551502Y-78035657D02*
X109580074Y-77921371D01*
X109580074Y-77921371D02*
X109580074Y-77721371D01*
X109580074Y-77721371D02*
X109551502Y-77607085D01*
X109551502Y-77607085D02*
X109494360Y-77549942D01*
X109494360Y-77549942D02*
X109437217Y-77521371D01*
M02*
