%TF.GenerationSoftware,KiCad,Pcbnew,10.0.5*%
%TF.CreationDate,2026-08-25T17:32:42+02:00*%
%TF.ProjectId,env-sensor-a,656e762d-7365-46e7-936f-722d612e6b69,HW A1*%
%TF.SameCoordinates,Original*%
%TF.FileFunction,Copper,L2,Inr*%
%TF.FilePolarity,Positive*%
%FSLAX46Y46*%
G04 Gerber Fmt 4.6, Leading zero omitted, Abs format (unit mm)*
G04 Created by KiCad (PCBNEW 10.0.5) date 2026-08-25 17:32:42*
%MOMM*%
%LPD*%
G01*
G04 APERTURE LIST*
%TA.AperFunction,ComponentPad*%
%ADD10O,2.100000X1.000000*%
%TD*%
%TA.AperFunction,ComponentPad*%
%ADD11O,1.600000X1.000000*%
%TD*%
%TA.AperFunction,ViaPad*%
%ADD12C,0.600000*%
%TD*%
G04 APERTURE END LIST*
D10*
%TO.N,GND*%
%TO.C,J1*%
X102370000Y-88820000D03*
D11*
X106550000Y-88820000D03*
D10*
X102370000Y-80180000D03*
D11*
X106550000Y-80180000D03*
%TD*%
D12*
%TO.N,+3V0*%
X123400000Y-90100000D03*
%TO.N,GND*%
X110000000Y-72500000D03*
X127500000Y-85000000D03*
X122500000Y-87500000D03*
X105000000Y-85000000D03*
X124900000Y-90900000D03*
X110000000Y-75000000D03*
X105000000Y-92500000D03*
X125000000Y-85000000D03*
X102500000Y-92500000D03*
X127500000Y-90000000D03*
X120000000Y-87500000D03*
X110000000Y-70000000D03*
X125000000Y-77500000D03*
X127500000Y-92500000D03*
X127500000Y-77500000D03*
X105000000Y-82500000D03*
%TD*%
%TA.AperFunction,Conductor*%
%TO.N,GND*%
G36*
X129658691Y-65918907D02*
G01*
X129694655Y-65968407D01*
X129699500Y-65999000D01*
X129699500Y-93600500D01*
X129680593Y-93658691D01*
X129631093Y-93694655D01*
X129600500Y-93699500D01*
X121099000Y-93699500D01*
X121040809Y-93680593D01*
X121004845Y-93631093D01*
X121000000Y-93600500D01*
X121000000Y-90034108D01*
X122899500Y-90034108D01*
X122899500Y-90165892D01*
X122929579Y-90278151D01*
X122933609Y-90293190D01*
X122999496Y-90407309D01*
X122999498Y-90407311D01*
X122999500Y-90407314D01*
X123092686Y-90500500D01*
X123092688Y-90500501D01*
X123092690Y-90500503D01*
X123206810Y-90566390D01*
X123206808Y-90566390D01*
X123206812Y-90566391D01*
X123206814Y-90566392D01*
X123334108Y-90600500D01*
X123334110Y-90600500D01*
X123465890Y-90600500D01*
X123465892Y-90600500D01*
X123593186Y-90566392D01*
X123593188Y-90566390D01*
X123593190Y-90566390D01*
X123707309Y-90500503D01*
X123707309Y-90500502D01*
X123707314Y-90500500D01*
X123800500Y-90407314D01*
X123866392Y-90293186D01*
X123900500Y-90165892D01*
X123900500Y-90034108D01*
X123866392Y-89906814D01*
X123866390Y-89906811D01*
X123866390Y-89906809D01*
X123800503Y-89792690D01*
X123800501Y-89792688D01*
X123800500Y-89792686D01*
X123707314Y-89699500D01*
X123707311Y-89699498D01*
X123707309Y-89699496D01*
X123593189Y-89633609D01*
X123593191Y-89633609D01*
X123543799Y-89620375D01*
X123465892Y-89599500D01*
X123334108Y-89599500D01*
X123256200Y-89620375D01*
X123206809Y-89633609D01*
X123092690Y-89699496D01*
X122999496Y-89792690D01*
X122933609Y-89906809D01*
X122933608Y-89906814D01*
X122899500Y-90034108D01*
X121000000Y-90034108D01*
X121000000Y-89300001D01*
X121000000Y-89300000D01*
X111000000Y-89300000D01*
X111000000Y-89300001D01*
X111000000Y-93600500D01*
X110981093Y-93658691D01*
X110931593Y-93694655D01*
X110901000Y-93699500D01*
X100399500Y-93699500D01*
X100341309Y-93680593D01*
X100305345Y-93631093D01*
X100300500Y-93600500D01*
X100300500Y-87314234D01*
X102324500Y-87314234D01*
X102324500Y-87465766D01*
X102359086Y-87594847D01*
X102363720Y-87612139D01*
X102439481Y-87743360D01*
X102439483Y-87743362D01*
X102439485Y-87743365D01*
X102546635Y-87850515D01*
X102546637Y-87850516D01*
X102546639Y-87850518D01*
X102677861Y-87926279D01*
X102677859Y-87926279D01*
X102677863Y-87926280D01*
X102677865Y-87926281D01*
X102824234Y-87965500D01*
X102824236Y-87965500D01*
X102975764Y-87965500D01*
X102975766Y-87965500D01*
X103122135Y-87926281D01*
X103122137Y-87926279D01*
X103122139Y-87926279D01*
X103253360Y-87850518D01*
X103253360Y-87850517D01*
X103253365Y-87850515D01*
X103360515Y-87743365D01*
X103436281Y-87612135D01*
X103475500Y-87465766D01*
X103475500Y-87314234D01*
X103436281Y-87167865D01*
X103436279Y-87167862D01*
X103436279Y-87167860D01*
X103360518Y-87036639D01*
X103360516Y-87036637D01*
X103360515Y-87036635D01*
X103253365Y-86929485D01*
X103253362Y-86929483D01*
X103253360Y-86929481D01*
X103122138Y-86853720D01*
X103122140Y-86853720D01*
X103065347Y-86838503D01*
X102975766Y-86814500D01*
X102824234Y-86814500D01*
X102734652Y-86838503D01*
X102677860Y-86853720D01*
X102546639Y-86929481D01*
X102439481Y-87036639D01*
X102363720Y-87167860D01*
X102363719Y-87167865D01*
X102324500Y-87314234D01*
X100300500Y-87314234D01*
X100300500Y-81534234D01*
X102324500Y-81534234D01*
X102324500Y-81685766D01*
X102359086Y-81814847D01*
X102363720Y-81832139D01*
X102439481Y-81963360D01*
X102439483Y-81963362D01*
X102439485Y-81963365D01*
X102546635Y-82070515D01*
X102546637Y-82070516D01*
X102546639Y-82070518D01*
X102677861Y-82146279D01*
X102677859Y-82146279D01*
X102677863Y-82146280D01*
X102677865Y-82146281D01*
X102824234Y-82185500D01*
X102824236Y-82185500D01*
X102975764Y-82185500D01*
X102975766Y-82185500D01*
X103122135Y-82146281D01*
X103122137Y-82146279D01*
X103122139Y-82146279D01*
X103253360Y-82070518D01*
X103253360Y-82070517D01*
X103253365Y-82070515D01*
X103360515Y-81963365D01*
X103436281Y-81832135D01*
X103475500Y-81685766D01*
X103475500Y-81534234D01*
X103436281Y-81387865D01*
X103436279Y-81387862D01*
X103436279Y-81387860D01*
X103360518Y-81256639D01*
X103360516Y-81256637D01*
X103360515Y-81256635D01*
X103253365Y-81149485D01*
X103253362Y-81149483D01*
X103253360Y-81149481D01*
X103122138Y-81073720D01*
X103122140Y-81073720D01*
X103065347Y-81058503D01*
X102975766Y-81034500D01*
X102824234Y-81034500D01*
X102734652Y-81058503D01*
X102677860Y-81073720D01*
X102546639Y-81149481D01*
X102439481Y-81256639D01*
X102363720Y-81387860D01*
X102363719Y-81387865D01*
X102324500Y-81534234D01*
X100300500Y-81534234D01*
X100300500Y-65999000D01*
X100319407Y-65940809D01*
X100368907Y-65904845D01*
X100399500Y-65900000D01*
X129600500Y-65900000D01*
X129658691Y-65918907D01*
G37*
%TD.AperFunction*%
%TD*%
M02*
