%TF.GenerationSoftware,KiCad,Pcbnew,10.0.5*%
%TF.CreationDate,2026-08-25T17:32:43+02:00*%
%TF.ProjectId,env-sensor-b,656e762d-7365-46e7-936f-722d622e6b69,HW B1*%
%TF.SameCoordinates,Original*%
%TF.FileFunction,Legend,Bot*%
%TF.FilePolarity,Positive*%
%FSLAX46Y46*%
G04 Gerber Fmt 4.6, Leading zero omitted, Abs format (unit mm)*
G04 Created by KiCad (PCBNEW 10.0.5) date 2026-08-25 17:32:43*
%MOMM*%
%LPD*%
G01*
G04 APERTURE LIST*
%ADD10C,0.100000*%
G04 APERTURE END LIST*
D10*
X105780075Y-91921371D02*
X105580075Y-92521371D01*
X105580075Y-92521371D02*
X105380075Y-91921371D01*
X105208646Y-92349942D02*
X104922932Y-92349942D01*
X105265789Y-92521371D02*
X105065789Y-91921371D01*
X105065789Y-91921371D02*
X104865789Y-92521371D01*
X104322931Y-92521371D02*
X104522931Y-92235657D01*
X104665788Y-92521371D02*
X104665788Y-91921371D01*
X104665788Y-91921371D02*
X104437217Y-91921371D01*
X104437217Y-91921371D02*
X104380074Y-91949942D01*
X104380074Y-91949942D02*
X104351503Y-91978514D01*
X104351503Y-91978514D02*
X104322931Y-92035657D01*
X104322931Y-92035657D02*
X104322931Y-92121371D01*
X104322931Y-92121371D02*
X104351503Y-92178514D01*
X104351503Y-92178514D02*
X104380074Y-92207085D01*
X104380074Y-92207085D02*
X104437217Y-92235657D01*
X104437217Y-92235657D02*
X104665788Y-92235657D01*
X104065788Y-92521371D02*
X104065788Y-91921371D01*
X103808646Y-92349942D02*
X103522932Y-92349942D01*
X103865789Y-92521371D02*
X103665789Y-91921371D01*
X103665789Y-91921371D02*
X103465789Y-92521371D01*
X103265788Y-92521371D02*
X103265788Y-91921371D01*
X103265788Y-91921371D02*
X102922931Y-92521371D01*
X102922931Y-92521371D02*
X102922931Y-91921371D01*
X102722932Y-91921371D02*
X102380075Y-91921371D01*
X102551503Y-92521371D02*
X102551503Y-91921371D01*
X101522931Y-92207085D02*
X101437217Y-92235657D01*
X101437217Y-92235657D02*
X101408646Y-92264228D01*
X101408646Y-92264228D02*
X101380074Y-92321371D01*
X101380074Y-92321371D02*
X101380074Y-92407085D01*
X101380074Y-92407085D02*
X101408646Y-92464228D01*
X101408646Y-92464228D02*
X101437217Y-92492800D01*
X101437217Y-92492800D02*
X101494360Y-92521371D01*
X101494360Y-92521371D02*
X101722931Y-92521371D01*
X101722931Y-92521371D02*
X101722931Y-91921371D01*
X101722931Y-91921371D02*
X101522931Y-91921371D01*
X101522931Y-91921371D02*
X101465789Y-91949942D01*
X101465789Y-91949942D02*
X101437217Y-91978514D01*
X101437217Y-91978514D02*
X101408646Y-92035657D01*
X101408646Y-92035657D02*
X101408646Y-92092800D01*
X101408646Y-92092800D02*
X101437217Y-92149942D01*
X101437217Y-92149942D02*
X101465789Y-92178514D01*
X101465789Y-92178514D02*
X101522931Y-92207085D01*
X101522931Y-92207085D02*
X101722931Y-92207085D01*
X111380073Y-78121371D02*
X111380073Y-77521371D01*
X111380073Y-77521371D02*
X111151502Y-77521371D01*
X111151502Y-77521371D02*
X111094359Y-77549942D01*
X111094359Y-77549942D02*
X111065788Y-77578514D01*
X111065788Y-77578514D02*
X111037216Y-77635657D01*
X111037216Y-77635657D02*
X111037216Y-77721371D01*
X111037216Y-77721371D02*
X111065788Y-77778514D01*
X111065788Y-77778514D02*
X111094359Y-77807085D01*
X111094359Y-77807085D02*
X111151502Y-77835657D01*
X111151502Y-77835657D02*
X111380073Y-77835657D01*
X110665788Y-77521371D02*
X110551502Y-77521371D01*
X110551502Y-77521371D02*
X110494359Y-77549942D01*
X110494359Y-77549942D02*
X110437216Y-77607085D01*
X110437216Y-77607085D02*
X110408645Y-77721371D01*
X110408645Y-77721371D02*
X110408645Y-77921371D01*
X110408645Y-77921371D02*
X110437216Y-78035657D01*
X110437216Y-78035657D02*
X110494359Y-78092800D01*
X110494359Y-78092800D02*
X110551502Y-78121371D01*
X110551502Y-78121371D02*
X110665788Y-78121371D01*
X110665788Y-78121371D02*
X110722931Y-78092800D01*
X110722931Y-78092800D02*
X110780073Y-78035657D01*
X110780073Y-78035657D02*
X110808645Y-77921371D01*
X110808645Y-77921371D02*
X110808645Y-77721371D01*
X110808645Y-77721371D02*
X110780073Y-77607085D01*
X110780073Y-77607085D02*
X110722931Y-77549942D01*
X110722931Y-77549942D02*
X110665788Y-77521371D01*
X109837217Y-77549942D02*
X109894360Y-77521371D01*
X109894360Y-77521371D02*
X109980074Y-77521371D01*
X109980074Y-77521371D02*
X110065788Y-77549942D01*
X110065788Y-77549942D02*
X110122931Y-77607085D01*
X110122931Y-77607085D02*
X110151502Y-77664228D01*
X110151502Y-77664228D02*
X110180074Y-77778514D01*
X110180074Y-77778514D02*
X110180074Y-77864228D01*
X110180074Y-77864228D02*
X110151502Y-77978514D01*
X110151502Y-77978514D02*
X110122931Y-78035657D01*
X110122931Y-78035657D02*
X110065788Y-78092800D01*
X110065788Y-78092800D02*
X109980074Y-78121371D01*
X109980074Y-78121371D02*
X109922931Y-78121371D01*
X109922931Y-78121371D02*
X109837217Y-78092800D01*
X109837217Y-78092800D02*
X109808645Y-78064228D01*
X109808645Y-78064228D02*
X109808645Y-77864228D01*
X109808645Y-77864228D02*
X109922931Y-77864228D01*
X109437217Y-77521371D02*
X109322931Y-77521371D01*
X109322931Y-77521371D02*
X109265788Y-77549942D01*
X109265788Y-77549942D02*
X109208645Y-77607085D01*
X109208645Y-77607085D02*
X109180074Y-77721371D01*
X109180074Y-77721371D02*
X109180074Y-77921371D01*
X109180074Y-77921371D02*
X109208645Y-78035657D01*
X109208645Y-78035657D02*
X109265788Y-78092800D01*
X109265788Y-78092800D02*
X109322931Y-78121371D01*
X109322931Y-78121371D02*
X109437217Y-78121371D01*
X109437217Y-78121371D02*
X109494360Y-78092800D01*
X109494360Y-78092800D02*
X109551502Y-78035657D01*
X109551502Y-78035657D02*
X109580074Y-77921371D01*
X109580074Y-77921371D02*
X109580074Y-77721371D01*
X109580074Y-77721371D02*
X109551502Y-77607085D01*
X109551502Y-77607085D02*
X109494360Y-77549942D01*
X109494360Y-77549942D02*
X109437217Y-77521371D01*
M02*
